<svg width="40" height="40" viewBox="0 0 40 40" fill="none" xmlns="http://www.w3.org/2000/svg">
<rect width="40" height="40" fill="url(#paint0_linear_502_4785)"/>
<g clip-path="url(#clip0_502_4785)">
<path d="M20.0002 16.7458C18.2082 16.7458 16.7458 18.2082 16.7458 20.0002C16.7458 21.7922 18.2082 23.2546 20.0002 23.2546C21.7922 23.2546 23.2546 21.7922 23.2546 20.0002C23.2546 18.2082 21.7922 16.7458 20.0002 16.7458ZM29.761 20.0002C29.761 18.6526 29.7732 17.3171 29.6975 15.9719C29.6218 14.4094 29.2654 13.0227 28.1228 11.8801C26.9778 10.7351 25.5935 10.3811 24.031 10.3054C22.6833 10.2297 21.3479 10.2419 20.0027 10.2419C18.655 10.2419 17.3196 10.2297 15.9744 10.3054C14.4119 10.3811 13.0251 10.7375 11.8826 11.8801C10.7375 13.0251 10.3835 14.4094 10.3079 15.9719C10.2322 17.3196 10.2444 18.655 10.2444 20.0002C10.2444 21.3455 10.2322 22.6833 10.3079 24.0286C10.3835 25.5911 10.74 26.9778 11.8826 28.1204C13.0276 29.2654 14.4119 29.6194 15.9744 29.6951C17.322 29.7707 18.6575 29.7585 20.0027 29.7585C21.3503 29.7585 22.6858 29.7707 24.031 29.6951C25.5935 29.6194 26.9802 29.2629 28.1228 28.1204C29.2678 26.9753 29.6218 25.5911 29.6975 24.0286C29.7756 22.6833 29.761 21.3479 29.761 20.0002ZM20.0002 25.0076C17.2292 25.0076 14.9929 22.7712 14.9929 20.0002C14.9929 17.2292 17.2292 14.9929 20.0002 14.9929C22.7712 14.9929 25.0076 17.2292 25.0076 20.0002C25.0076 22.7712 22.7712 25.0076 20.0002 25.0076ZM25.2126 15.9573C24.5657 15.9573 24.0432 15.4348 24.0432 14.7878C24.0432 14.1409 24.5657 13.6184 25.2126 13.6184C25.8596 13.6184 26.3821 14.1409 26.3821 14.7878C26.3823 14.9415 26.3521 15.0936 26.2934 15.2356C26.2347 15.3776 26.1486 15.5065 26.04 15.6152C25.9314 15.7238 25.8024 15.8099 25.6604 15.8686C25.5184 15.9273 25.3663 15.9575 25.2126 15.9573Z" fill="#F4F4F4"/>
</g>
<defs>
<linearGradient id="paint0_linear_502_4785" x1="-5" y1="48.5" x2="32.5" y2="6" gradientUnits="userSpaceOnUse">
<stop stop-color="#F5AA00"/>
<stop offset="1" stop-color="#F60551"/>
</linearGradient>
<clipPath id="clip0_502_4785">
<rect width="20" height="20" fill="white" transform="translate(10 10)"/>
</clipPath>
</defs>
</svg>
