<svg width="40" height="40" viewBox="0 0 40 40" fill="none" xmlns="http://www.w3.org/2000/svg">
<path d="M7.55271 9.39998C7.90246 4.79999 5.87422 1.35 4.96535 0C4.05609 1.35009 2.02822 4.80017 2.378 9.39998H7.55271Z" fill="#F4F4F4"/>
<path d="M2.09766 10.15H7.83231V13.7001H2.09766V10.15Z" fill="#F4F4F4"/>
<path d="M8.04135 14.45H1.88723L0.908203 15.7499H9.02042L8.04135 14.45Z" fill="#F4F4F4"/>
<path d="M1.18945 37.3999H8.67241V38.05H1.18945V37.3999Z" fill="#F4F4F4"/>
<path d="M0 38.7999H10V40H0V38.7999Z" fill="#F4F4F4"/>
<path d="M0.558594 16.55H9.44006V36.6499H0.558594V16.55Z" fill="#F4F4F4"/>
<path d="M22.5527 9.39998C22.9025 4.79999 20.8742 1.35 19.9654 0C19.0561 1.35009 17.0282 4.80017 17.378 9.39998H22.5527Z" fill="#F4F4F4"/>
<path d="M17.0977 10.15H22.8323V13.7001H17.0977V10.15Z" fill="#F4F4F4"/>
<path d="M23.0414 14.45H16.8872L15.9082 15.7499H24.0204L23.0414 14.45Z" fill="#F4F4F4"/>
<path d="M16.1895 37.3999H23.6724V38.05H16.1895V37.3999Z" fill="#F4F4F4"/>
<path d="M15 38.7999H25V40H15V38.7999Z" fill="#F4F4F4"/>
<path d="M15.5586 16.55H24.4401V36.6499H15.5586V16.55Z" fill="#F4F4F4"/>
<path d="M37.5527 9.39998C37.9025 4.79999 35.8742 1.35 34.9654 0C34.0561 1.35009 32.0282 4.80017 32.378 9.39998H37.5527Z" fill="#F4F4F4"/>
<path d="M32.0977 10.15H37.8323V13.7001H32.0977V10.15Z" fill="#F4F4F4"/>
<path d="M38.0414 14.45H31.8872L30.9082 15.7499H39.0204L38.0414 14.45Z" fill="#F4F4F4"/>
<path d="M31.1895 37.3999H38.6724V38.05H31.1895V37.3999Z" fill="#F4F4F4"/>
<path d="M30 38.7999H40V40H30V38.7999Z" fill="#F4F4F4"/>
<path d="M30.5586 16.55H39.4401V36.6499H30.5586V16.55Z" fill="#F4F4F4"/>
</svg>
