<svg width="28" height="26" viewBox="0 0 28 26" fill="none" xmlns="http://www.w3.org/2000/svg">
<path d="M21.6668 20.5C20.2002 20.5 19.0135 21.625 19.0135 23C19.0135 24.375 20.2002 25.5 21.6668 25.5C23.1335 25.5 24.3335 24.375 24.3335 23C24.3335 21.625 23.1335 20.5 21.6668 20.5ZM8.3335 20.5C6.86683 20.5 5.68016 21.625 5.68016 23C5.68016 24.375 6.86683 25.5 8.3335 25.5C9.80016 25.5 11.0002 24.375 11.0002 23C11.0002 21.625 9.80016 20.5 8.3335 20.5ZM8.3335 16.75L9.80016 14.25H19.7335C20.7335 14.25 21.6135 13.7375 22.0668 12.9625L27.9335 3H5.94683L4.6935 0.5H0.333496V3H3.00016L7.80016 12.4875L3.82683 19.25H24.3335V16.75H8.3335Z" fill="#6F7B8A"/>
</svg>
