<svg width="20" height="20" viewBox="0 0 20 20" fill="none" xmlns="http://www.w3.org/2000/svg">
<path d="M11.4458 4.24003L14.8288 0.33503C15.2188 -0.11497 15.9338 -0.11297 16.3868 0.34103L19.1688 3.12803C19.9968 3.95703 20.2338 5.18803 19.7548 6.17503C16.8931 12.1 12.1147 16.8851 6.19377 19.755C5.20777 20.234 3.97777 19.997 3.14977 19.168L0.341766 16.355C-0.113234 15.9 -0.114233 15.181 0.339767 14.791L4.25977 11.426C4.66977 11.074 5.30677 11.12 5.71777 11.532L7.08177 12.898C7.1516 12.9712 7.24352 13.0195 7.34342 13.0354C7.44331 13.0513 7.54567 13.0339 7.63477 12.986C9.86432 11.7021 11.7138 9.85026 12.9948 7.61903C13.0427 7.52978 13.0601 7.42726 13.0442 7.32719C13.0283 7.22711 12.98 7.13502 12.9068 7.06503L11.5468 5.70403C11.1348 5.29003 11.0898 4.65003 11.4458 4.23903V4.24003Z" fill="#F4F4F4"/>
</svg>
