<svg width="18" height="24" viewBox="0 0 18 24" fill="none" xmlns="http://www.w3.org/2000/svg">
<path d="M7.88906 23.4469C5.44219 20.4375 0 13.1438 0 9.04688C0 4.07625 4.02938 0.046875 9 0.046875C13.9688 0.046875 18 4.07625 18 9.04688C18 13.1438 12.5156 20.4375 10.1109 23.4469C9.53438 24.1641 8.46562 24.1641 7.88906 23.4469ZM9 12.0469C10.6547 12.0469 12 10.7016 12 9.04688C12 7.39219 10.6547 6.04688 9 6.04688C7.34531 6.04688 6 7.39219 6 9.04688C6 10.7016 7.34531 12.0469 9 12.0469Z" fill="#F4F4F4"/>
</svg>
