<svg width="24" height="25" viewBox="0 0 24 25" fill="none" xmlns="http://www.w3.org/2000/svg">
<path d="M11.2969 4.0625H12.7031C12.8281 4.0625 12.8906 4.125 12.8906 4.25V20.75C12.8906 20.875 12.8281 20.9375 12.7031 20.9375H11.2969C11.1719 20.9375 11.1094 20.875 11.1094 20.75V4.25C11.1094 4.125 11.1719 4.0625 11.2969 4.0625Z" fill="#F4F4F4"/>
<path d="M4.125 11.6094H19.875C20 11.6094 20.0625 11.6719 20.0625 11.7969V13.2031C20.0625 13.3281 20 13.3906 19.875 13.3906H4.125C4 13.3906 3.9375 13.3281 3.9375 13.2031V11.7969C3.9375 11.6719 4 11.6094 4.125 11.6094Z" fill="#F4F4F4"/>
</svg>
