<svg width="24" height="20" viewBox="0 0 24 20" fill="none" xmlns="http://www.w3.org/2000/svg">
<path d="M23.1429 2.28557H18.8571V0.785575C18.8571 0.667718 18.7607 0.571289 18.6429 0.571289H17.1429C17.025 0.571289 16.9286 0.667718 16.9286 0.785575V2.28557H12.9643V0.785575C12.9643 0.667718 12.8679 0.571289 12.75 0.571289H11.25C11.1321 0.571289 11.0357 0.667718 11.0357 0.785575V2.28557H7.07143V0.785575C7.07143 0.667718 6.975 0.571289 6.85714 0.571289H5.35714C5.23929 0.571289 5.14286 0.667718 5.14286 0.785575V2.28557H0.857143C0.383036 2.28557 0 2.66861 0 3.14272V18.5713C0 19.0454 0.383036 19.4284 0.857143 19.4284H23.1429C23.617 19.4284 24 19.0454 24 18.5713V3.14272C24 2.66861 23.617 2.28557 23.1429 2.28557ZM9.64286 14.7141C9.64286 14.832 9.54643 14.9284 9.42857 14.9284H4.5C4.38214 14.9284 4.28571 14.832 4.28571 14.7141V13.4284C4.28571 13.3106 4.38214 13.2141 4.5 13.2141H9.42857C9.54643 13.2141 9.64286 13.3106 9.64286 13.4284V14.7141ZM9.64286 11.0713C9.64286 11.1891 9.54643 11.2856 9.42857 11.2856H4.5C4.38214 11.2856 4.28571 11.1891 4.28571 11.0713V9.78557C4.28571 9.66772 4.38214 9.57129 4.5 9.57129H9.42857C9.54643 9.57129 9.64286 9.66772 9.64286 9.78557V11.0713ZM19.6741 8.62575L15.2545 14.7516C15.215 14.8064 15.1631 14.851 15.103 14.8818C15.0429 14.9125 14.9764 14.9286 14.9089 14.9286C14.8414 14.9286 14.7749 14.9125 14.7148 14.8818C14.6548 14.851 14.6028 14.8064 14.5634 14.7516L11.5045 10.5141C11.4027 10.3722 11.5045 10.174 11.6786 10.174H13.1491C13.2857 10.174 13.4143 10.2409 13.4946 10.3508L14.9089 12.3088L17.6866 8.45968C17.767 8.34718 17.8955 8.2829 18.0321 8.2829H19.5C19.6741 8.28557 19.7759 8.48379 19.6741 8.62575V8.62575Z" fill="#F4F4F4"/>
</svg>
