<svg width="20" height="17" viewBox="0 0 20 17" fill="none" xmlns="http://www.w3.org/2000/svg">
<path d="M15.8086 16.5665C15.7226 16.671 15.6145 16.7552 15.4921 16.8128C15.3696 16.8705 15.2359 16.9003 15.1006 16.9001C14.9828 16.9008 14.8662 16.8777 14.7575 16.8324C14.6489 16.787 14.5505 16.7203 14.4682 16.6361L10.8634 13.0265C10.6948 12.8577 10.6002 12.629 10.6002 12.3905C10.6002 12.152 10.6948 11.9232 10.8634 11.7545C10.9468 11.6707 11.0459 11.6043 11.155 11.5589C11.2642 11.5136 11.3812 11.4903 11.4994 11.4903C11.6176 11.4903 11.7346 11.5136 11.8437 11.5589C11.9529 11.6043 12.052 11.6707 12.1354 11.7545L14.2006 13.8329V1.00007C14.2006 0.761372 14.2954 0.532453 14.4642 0.363671C14.633 0.194888 14.8619 0.100067 15.1006 0.100067C15.3393 0.100067 15.5682 0.194888 15.737 0.363671C15.9058 0.532453 16.0006 0.761372 16.0006 1.00007V13.8209L18.067 11.7593C18.1504 11.6757 18.2494 11.6094 18.3584 11.5642C18.4675 11.5189 18.5843 11.4957 18.7024 11.4957C18.8204 11.4957 18.9373 11.5189 19.0463 11.5642C19.1554 11.6094 19.2544 11.6757 19.3378 11.7593C19.5063 11.928 19.601 12.1568 19.601 12.3953C19.601 12.6338 19.5063 12.8625 19.3378 13.0313L15.8074 16.5665H15.8086ZM5.60858 0.433667C5.52261 0.32913 5.41451 0.244979 5.29207 0.18729C5.16964 0.1296 5.03592 0.099809 4.90058 0.100067C4.78284 0.09938 4.66618 0.122401 4.55753 0.167756C4.44888 0.213112 4.35048 0.279875 4.26818 0.364067L0.664575 3.97367C0.496035 4.14242 0.401367 4.37117 0.401367 4.60967C0.401367 4.84817 0.496035 5.07692 0.664575 5.24567C0.747973 5.32941 0.847086 5.39585 0.956228 5.44119C1.06537 5.48653 1.18239 5.50987 1.30058 5.50987C1.41876 5.50987 1.53578 5.48653 1.64492 5.44119C1.75406 5.39585 1.85318 5.32941 1.93658 5.24567L4.00058 3.16847V16.0001C4.00058 16.2388 4.0954 16.4677 4.26418 16.6365C4.43296 16.8052 4.66188 16.9001 4.90058 16.9001C5.13927 16.9001 5.36819 16.8052 5.53697 16.6365C5.70575 16.4677 5.80058 16.2388 5.80058 16.0001V3.17927L7.86698 5.24087C7.95035 5.32443 8.04939 5.39072 8.15842 5.43595C8.26745 5.48119 8.38433 5.50447 8.50238 5.50447C8.62042 5.50447 8.7373 5.48119 8.84633 5.43595C8.95536 5.39072 9.0544 5.32443 9.13778 5.24087C9.30632 5.07212 9.40098 4.84337 9.40098 4.60487C9.40098 4.36637 9.30632 4.13762 9.13778 3.96887L5.60738 0.432467L5.60858 0.433667Z" fill="white"/>
</svg>
