<svg width="182" height="40" viewBox="0 0 182 40" fill="none" xmlns="http://www.w3.org/2000/svg">
<path d="M19.7216 37.6934C10.0177 37.6934 2.12042 29.8102 2.12042 20.0584C2.12042 10.3358 9.98852 2.42336 19.7216 2.42336C29.4548 2.42336 37.3229 10.3066 37.3229 20.0584C37.3229 29.8102 29.4256 37.6934 19.7216 37.6934ZM19.7799 0.467163C8.93944 0.467163 0.167969 9.25548 0.167969 20.1168C0.167969 30.9781 8.93944 39.7664 19.7799 39.7664C30.6204 39.7664 39.3919 30.9781 39.3919 20.1168C39.3919 9.28468 30.6204 0.467163 19.7799 0.467163ZM30.0667 25.0219V24.8759L29.0177 24.292V16.4672C31.0575 16.9343 32.5729 18.7445 32.5729 20.9343C32.5729 22.7153 31.5529 24.2628 30.0667 25.0219ZM26.9778 24.292L25.8704 24.9051V24.9927C24.4134 24.2336 23.4226 22.7153 23.4226 20.9343C23.4226 18.7737 24.9379 16.9343 26.9778 16.4964V24.292ZM19.7799 33.6642C17.2447 33.6642 15.2048 31.6204 15.2048 29.0803C15.2048 26.9197 16.7201 25.0803 18.76 24.6131V24.9635L17.5069 25.6934V27.5037L18.76 26.7737V27.5037L17.5069 28.2336V30.1022L18.76 29.3431V30.0146L17.5069 30.7445V32.5256L19.7799 31.2409L22.0529 32.4964V30.7153L20.7999 30.0146V29.3139L22.0529 30.0438V28.1752L20.7999 27.4745V26.7153L22.0529 27.4161V25.6934L20.7999 24.9635V24.6131C22.8397 25.0803 24.3551 26.8905 24.3551 29.0803C24.3259 31.5912 22.2861 33.6642 19.7799 33.6642ZM13.602 25.0511V24.9051L12.5529 24.3212V16.5256C14.5928 16.9927 16.1082 18.8029 16.1082 20.9927C16.1082 22.7445 15.0882 24.292 13.602 25.0511ZM10.5422 24.292L9.43484 24.9051V24.9927C7.97778 24.2336 6.98699 22.7153 6.98699 20.9343C6.98699 18.7445 8.50232 16.9343 10.5422 16.4672V24.292ZM28.9885 15.1533V12.292V11.1825L30.3581 11.5621L27.9686 7.38687L25.6081 11.5621L26.9778 11.1825V12.292V15.1533C24.2385 15.6204 22.1112 18.0438 22.1112 20.9343C22.1112 22.1898 22.5192 23.3577 23.1894 24.3212C22.4901 23.7956 21.645 23.4453 20.7416 23.2701V9.0511L22.1112 9.45986L19.7216 5.31388L17.3612 9.45986L18.7309 9.0511V23.2993C17.8566 23.4453 17.0407 23.7956 16.3413 24.3212C17.0115 23.3577 17.3904 22.219 17.3904 20.9635C17.3904 18.073 15.2922 15.6496 12.5238 15.1825V12.292V11.1825L13.8934 11.5621L11.5039 7.38687L9.14343 11.5621L10.5131 11.1825V12.292V15.1825C7.7738 15.6496 5.67564 18.073 5.67564 20.9635C5.67564 23.854 7.7738 26.2482 10.5131 26.7445L9.4057 27.3577V29.2555L10.4839 28.6423V29.2847L9.37656 29.927V31.708L11.4747 30.511L13.5437 31.6788V29.8686L12.4655 29.2847V28.6131L13.5437 29.2263V27.3869V27.2993L12.4947 26.7153C13.398 26.5693 14.214 26.1898 14.9134 25.6934C14.2431 26.6277 13.8643 27.7956 13.8643 29.0511C13.8643 32.292 16.487 34.9197 19.7216 34.9197C22.9563 34.9197 25.579 32.292 25.579 29.0511C25.579 27.7956 25.171 26.6277 24.5008 25.6642C25.2002 26.1898 26.0161 26.5402 26.9195 26.6861V26.7153L25.8121 27.3285V29.2263L26.9195 28.6131V29.2555L25.8121 29.8978V31.6788L27.9103 30.4818L29.9793 31.6496V29.8394L28.9011 29.2555V28.6131L29.9793 29.2263V27.3869V27.2993L28.9302 26.7153V26.6861C31.6986 26.219 33.7968 23.7956 33.7968 20.9051C33.8842 18.0438 31.7569 15.6204 28.9885 15.1533ZM119.326 26.6861V32.8467L107.378 32.8175V31.7664H107.757C108.252 31.7664 108.544 31.5329 108.719 31.0073C108.923 30.4526 109.01 29.5767 109.01 28.0584V12.6715C109.01 9.86862 108.719 8.96352 107.815 8.96352H107.378V8.00001H119.326V14.0438H118.685L118.627 13.8394C117.811 10.8029 116.645 9.60585 114.401 9.60585H111.837V19.0949C114.081 19.0365 114.984 18.2482 115.013 16.438V16.146H115.829V23.4161H115.013V23.1241C114.984 21.4015 114.139 20.7299 111.837 20.7007V31.2409L114.343 31.2701C116.645 31.2701 117.84 30.073 118.627 26.9489L118.685 26.7445H119.326V26.6861ZM78.645 26.6861V32.8467L66.6971 32.8175V31.7664H67.1051C67.6005 31.7664 67.8919 31.5329 68.0667 31.0073C68.2707 30.4526 68.3581 29.5767 68.3581 28.0584V12.6715C68.3581 9.86862 68.0667 8.96352 67.1634 8.96352H66.7262V8.00001H78.6741V14.0438H78.0039L77.9456 13.8394C77.1296 10.8029 75.964 9.60585 73.7201 9.60585H71.1557V19.0949C73.3996 19.0365 74.3029 18.2482 74.3321 16.438V16.146H75.148V23.4161H74.3612V23.1241C74.3321 21.4015 73.487 20.7299 71.1848 20.7007V31.2409L73.691 31.2701C75.9931 31.2701 77.1879 30.073 77.9747 26.9489L78.033 26.7445H78.645V26.6861ZM55.7109 30.1898C54.9241 30.8905 53.875 31.2993 52.8551 31.2993C52.8551 31.2993 51.7186 31.2701 51.3106 31.2701H51.2523C50.9318 31.2701 50.6986 31.1825 50.5529 31.0365C50.1741 30.6569 50.1741 29.7226 50.2032 28.5256V27.9416V20.6131H52.1557C55.6235 20.6423 57.2262 22.511 57.2262 26.5402C57.1971 28.0584 56.7017 29.3139 55.7109 30.1898ZM51.7186 9.57665C54.283 9.57665 55.7983 10.365 55.7983 14.3066C55.7983 16.1752 55.6526 17.5766 54.895 18.3358C54.4287 18.8029 53.7293 19.0365 52.7385 19.0365C52.6511 19.0365 52.5928 19.0365 52.5054 19.0365H50.2032V9.54746L51.7186 9.57665ZM56.4394 19.7664C57.9548 18.7153 58.6833 16.9635 58.6542 14.4234C58.6542 9.86862 56.5851 8.0584 51.3397 8.00001L45.8321 7.97081V9.1095H46.2109C47.1434 9.1095 47.4348 9.89782 47.4348 12.3796V27.6204C47.4348 29.7226 47.3474 31.0365 46.852 31.5329C46.6772 31.708 46.4732 31.7664 46.0943 31.7664H45.8029V32.7591H52.622C57.4594 32.7591 59.9947 30.5694 59.9947 26.4818C60.0529 22.9197 58.8581 20.7007 56.4394 19.7664ZM166.942 21.8686L170.002 13.1971L173.616 21.8978L166.942 21.8686ZM181.659 31.8248C181.105 31.708 180.114 30.7153 179.502 29.2555L170.614 7.24088L163.854 26.8613C162.63 30.2774 161.872 31.708 160.269 31.7956L159.978 31.8248V32.7883L166.505 32.8175V31.854L166.243 31.8248C165.194 31.7372 164.553 31.0365 164.553 29.9854C164.553 29.3723 164.786 28.3504 165.252 27.0657L166.389 23.4745H174.14L175.947 28.1752C176.355 29.1387 176.501 30.0438 176.501 30.3942C176.501 31.2409 176.064 31.8248 175.452 31.8248H175.015V32.8175H181.834V31.8832L181.659 31.8248ZM156.131 9.54746H154.849V27.9708C154.849 30.7737 155.14 31.6788 156.102 31.6788H156.481V32.7883H150.449V31.6788H150.827C151.76 31.6788 152.081 30.7737 152.081 27.9708V9.57665H150.798C148.525 9.60584 147.301 10.7737 146.515 13.781L146.456 13.9854H145.699V7.97081H161.231V14.0146H160.444L160.386 13.8102C159.599 10.8029 158.404 9.60585 156.131 9.54746ZM141.357 7.97081V14.0146H140.57L140.512 13.8102C139.725 10.8029 138.501 9.60584 136.228 9.57665H134.946V28C134.946 30.8029 135.266 31.708 136.199 31.708H136.577V32.8175H130.574V31.708H130.953C131.449 31.708 131.74 31.5037 131.915 30.9489C132.119 30.3942 132.177 29.5183 132.177 28V9.60585H130.895C128.622 9.63504 127.398 10.8029 126.611 13.8102L126.553 14.0146H125.766V8.00001L141.357 7.97081ZM91.5545 19.0365V9.54746H93.2155C96.5376 9.57665 97.1496 11.2701 97.1496 14.5985C97.1496 16.0292 97.033 17.5766 96.217 18.3942C95.7799 18.8321 95.168 19.0365 94.352 19.0365H91.5545ZM96.0422 20.5548C98.6649 19.708 100.005 17.6642 100.005 14.4818C100.005 10.073 97.7324 8.0292 92.8367 8.00001L87.2124 7.97081V9.0803H87.5913C88.5238 9.0803 88.8152 9.92701 88.8152 12.7883V28.0292C88.8152 29.8102 88.7278 31.0073 88.2615 31.4745C88.0867 31.6496 87.8827 31.7372 87.5039 31.7372H87.2124V32.7299H93.1572V32.0292L93.0989 31.7372H92.8075C91.8167 31.7372 91.5253 30.9197 91.5253 28.0292V20.6423H93.2155C93.6235 22.3942 96.3919 32.9927 101.754 33.0219V32.8175C99.0146 30.8029 96.4793 22.073 96.0422 20.5548Z" fill="#F4F4F4"/>
</svg>
