<svg width="208" height="40" viewBox="0 0 208 40" fill="none" xmlns="http://www.w3.org/2000/svg">
<g clip-path="url(#clip0_712_7896)">
<path d="M27.2797 28.8587C21.0772 28.8587 14.8738 28.9217 8.67266 28.8327C5.4585 28.7867 2.7255 27.5548 0.878413 24.7778C0.289647 23.8926 0.0135676 22.9079 0.0163966 21.832C0.0287112 17.0665 0.0743081 12.3 0.000920273 7.53566C-0.0397676 4.89095 1.27181 3.11587 3.32476 1.74716C5.1706 0.516541 7.25733 0.0402718 9.45904 0.0355854C12.3346 0.0296173 15.2102 0.0245037 18.0857 0.0360107C25.1518 0.0645657 32.2179 0.113792 39.284 0.131266C41.5344 0.136593 43.7857 0.0860882 46.0355 0.0234394C46.6981 0.0051136 46.9239 0.264025 46.9184 0.89308C46.9013 2.86058 46.8909 4.82915 46.9231 6.79644C46.9344 7.48303 46.6907 7.69506 46.008 7.69399C35.3614 7.67694 24.7149 7.67929 14.0683 7.68589C12.8376 7.68675 11.6115 7.76368 10.4561 8.26274C8.64056 9.04693 7.30368 10.1363 7.43298 12.3848C7.51852 13.8716 7.44471 15.3686 7.41975 16.8605C7.39478 18.3477 8.2836 19.2541 9.41529 19.9788C10.5328 20.6942 11.788 21.047 13.1123 21.0491C23.2515 21.0663 33.3905 21.0679 43.5294 21.074C44.4079 21.0746 45.2865 21.0815 46.1648 21.067C46.6787 21.0584 46.9092 21.3084 46.9096 21.797C46.9116 23.8702 46.9111 25.9434 46.9079 28.0166C46.9071 28.5937 46.7231 28.8997 46.0297 28.8967C39.7799 28.8703 33.5298 28.8814 27.2797 28.8814C27.2797 28.8739 27.2797 28.8662 27.2797 28.8587Z" fill="#F4F4F4"/>
<path d="M114.858 2.97265C116.716 4.19283 118.576 5.41003 120.431 6.63404C123.414 8.60197 126.396 10.5699 129.373 12.5457C132.643 14.7157 135.906 16.8963 139.175 19.0683C139.959 19.589 140.755 20.0901 141.539 20.6105C141.702 20.7187 141.854 20.8484 142.055 20.7668C142.317 20.6603 142.241 20.4187 142.241 20.2116C142.24 13.7855 142.251 7.35921 142.222 0.932911C142.219 0.232042 142.429 0.013834 143.107 0.0242748C145.008 0.0530434 146.91 0.0304546 148.811 0.0359936C149.612 0.0383377 149.719 0.16577 149.657 0.932486C149.638 1.16817 149.649 1.40641 149.649 1.6438C149.649 10.4173 149.649 19.1913 149.649 27.965C149.649 28.8833 149.647 28.8771 148.75 28.8745C147.039 28.8699 145.325 28.8151 143.617 28.8939C142.608 28.9406 141.792 28.651 140.979 28.1021C137.369 25.6657 133.738 23.2597 130.115 20.844C125.96 18.0742 121.802 15.3091 117.649 12.5357C115.427 11.0513 113.219 9.54534 110.99 8.06966C110.601 7.81161 110.159 7.66372 109.652 7.67054C107.633 7.69675 105.612 7.66819 103.592 7.69078C103.041 7.69718 102.846 7.53053 102.851 6.95582C102.871 4.84661 102.844 2.73633 102.822 0.626905C102.818 0.198158 103.012 0.03088 103.423 0.0317326C105.585 0.0364208 107.749 0.0336494 109.911 0.0359936C110.277 0.0364208 110.622 0.142117 110.921 0.341146C111.808 0.929501 112.684 1.53426 113.564 2.13242C113.96 2.46591 114.416 2.70842 114.858 2.97265Z" fill="#F4F4F4"/>
<path d="M70.205 11.2634C72.2207 11.2644 74.2361 11.268 76.2518 11.2602C76.5238 11.2593 76.8608 11.3494 77.0187 11.0275C77.1731 10.7129 76.8429 10.5714 76.7028 10.3754C76.1939 9.66323 75.6635 8.96705 75.1468 8.26043C74.8477 7.8515 74.4871 7.66248 73.9458 7.66909C71.4751 7.69914 69.0038 7.68443 66.5329 7.68081C66.3082 7.68038 66.0258 7.79652 65.8892 7.52269C65.7491 7.24162 66.0381 7.11057 66.1659 6.9288C67.635 4.84196 69.1174 2.76429 70.5679 0.664881C70.8894 0.199482 71.2651 0.0202694 71.8168 0.0268764C73.5748 0.0471191 75.338 0.11339 77.0898 0.00641632C78.259 -0.06497 78.9053 0.443262 79.5036 1.33932C81.8906 4.91356 84.324 8.45733 86.7391 12.013C88.8521 15.1242 90.96 18.2388 93.0773 21.3474C94.5937 23.5741 96.1263 25.7898 97.6368 28.0204C97.7835 28.2372 98.0928 28.4739 97.9313 28.757C97.791 29.0024 97.4517 28.8781 97.2005 28.8787C94.8246 28.8826 92.4485 28.8647 90.0728 28.8852C89.4877 28.8905 89.1699 28.7098 88.8442 28.1754C87.4688 25.9185 85.9799 23.7311 84.5883 21.4836C83.9433 20.4416 83.3201 19.386 82.671 18.3453C82.4212 17.9452 82.1464 17.7706 81.7102 17.7711C77.2753 17.7745 72.8405 17.7832 68.4057 17.7723C67.9793 17.7715 67.7377 17.9931 67.5366 18.2872C65.8577 20.7425 64.1913 23.2065 62.515 25.6637C61.8764 26.5998 61.203 27.5127 60.5836 28.4609C60.3702 28.7876 60.1261 28.8869 59.7635 28.8859C57.2215 28.8787 54.6795 28.8846 52.1377 28.8814C51.9572 28.8812 51.7297 28.9551 51.6141 28.7631C51.4703 28.5242 51.7016 28.3648 51.8135 28.2022C53.849 25.242 55.8947 22.2884 57.9321 19.3294C59.6483 16.8371 61.3666 14.3464 63.0594 11.8383C63.3623 11.3895 63.6886 11.2363 64.2324 11.2469C66.2226 11.2859 68.214 11.2625 70.205 11.2634Z" fill="#F4F4F4"/>
<path d="M206.551 2.14204C204.559 4.51528 202.567 6.88936 200.573 9.26153C199.324 10.747 198.1 12.2549 196.806 13.7003C196.357 14.2017 196.45 14.5356 196.813 14.9706C198.16 16.5867 199.495 18.2132 200.837 19.8338C202.994 22.4388 205.161 25.0367 207.305 27.6533C207.574 27.9812 208.172 28.2801 207.953 28.7235C207.772 29.0904 207.172 28.8652 206.76 28.8675C204.764 28.8803 202.768 28.8686 200.772 28.8801C200.394 28.8822 200.087 28.8147 199.827 28.5076C197.002 25.1652 194.162 21.8352 191.343 18.487C190.913 17.9758 190.461 17.7525 189.762 17.7681C187.129 17.8262 184.494 17.7184 181.861 17.8271C181.346 17.8482 181.028 17.6732 181.041 17.0431C181.079 15.3371 181.075 13.6295 181.051 11.9231C181.042 11.3173 181.225 11.0976 181.871 11.1061C184.6 11.1415 187.33 11.1131 190.059 11.1287C190.581 11.1319 190.926 10.9465 191.267 10.5431C193.771 7.58107 196.303 4.64228 198.826 1.69625C199.583 0.335211 200.722 -0.0144787 202.253 0.104855C204.113 0.0618095 205.691 0.14023 207.434 0.0801373C207.629 0.0733185 207.844 0.0995293 207.945 0.266594C208.075 0.480755 207.854 0.608397 207.729 0.730713C207.287 1.16116 206.913 1.64638 206.551 2.14204Z" fill="#F4F4F4"/>
<path d="M170.178 14.4402C170.178 9.89081 170.187 5.34167 170.168 0.792311C170.166 0.228676 170.372 0.0273037 170.911 0.0300732C172.883 0.0409412 174.854 0.0434971 176.825 0.0285797C177.391 0.0243187 177.615 0.213335 177.613 0.818096C177.59 9.41902 177.589 18.0199 177.583 26.6211C177.583 27.1421 177.551 27.6657 177.592 28.1833C177.639 28.7759 177.365 28.8963 176.833 28.8893C174.886 28.8635 172.938 28.8522 170.991 28.8884C170.365 28.9001 170.175 28.7167 170.179 28.0883C170.202 23.5389 170.191 18.9897 170.191 14.4402C170.187 14.4402 170.183 14.4402 170.178 14.4402Z" fill="#F4F4F4"/>
<path d="M156.215 19.8508C156.215 17.1258 156.233 14.4007 156.201 11.6759C156.194 11.0217 156.394 10.8075 157.054 10.8203C158.998 10.8578 160.944 10.8501 162.889 10.8276C163.467 10.8209 163.698 11.0104 163.689 11.6062C163.649 14.0421 163.617 16.4788 163.632 18.9148C163.647 21.3998 163.551 23.8851 163.686 26.3711C163.719 26.9742 163.61 27.5836 163.696 28.2015C163.755 28.628 163.524 28.8899 163.016 28.8854C160.974 28.8677 158.931 28.868 156.889 28.8874C156.354 28.8922 156.201 28.683 156.205 28.1679C156.225 25.3955 156.215 22.6232 156.215 19.8508Z" fill="#F4F4F4"/>
<path d="M102.847 19.9896C102.847 17.3352 102.848 14.6807 102.847 12.0264C102.846 11.1679 102.916 11.1125 103.777 11.1169C105.675 11.1272 107.574 11.1382 109.472 11.1093C110.019 11.1012 110.243 11.2608 110.242 11.8231C110.232 17.2986 110.231 22.7744 110.244 28.25C110.245 28.7633 110.047 28.8886 109.565 28.8833C107.593 28.8611 105.62 28.8468 103.649 28.8908C103.013 28.9048 102.83 28.7143 102.836 28.0957C102.862 25.394 102.847 22.6916 102.847 19.9896Z" fill="#F4F4F4"/>
<path d="M156.214 3.86811C156.213 2.82587 156.234 1.78341 156.204 0.742226C156.19 0.25637 156.36 0.0338998 156.845 0.0345392C158.886 0.0368834 160.928 0.0279336 162.97 0.0402932C163.5 0.0434895 163.718 0.244863 163.692 0.881164C163.61 2.91387 163.61 4.9517 163.648 6.98633C163.658 7.56317 163.45 7.68613 162.964 7.68464C160.947 7.67888 158.929 7.67164 156.911 7.68997C156.398 7.69465 156.188 7.53206 156.205 6.994C156.238 5.95303 156.214 4.91015 156.214 3.86811Z" fill="#F4F4F4"/>
<path d="M43.6262 39.1092C43.6262 39.3629 43.5365 39.5734 43.3572 39.7405C43.184 39.9135 42.9769 40 42.7356 40H40.0638V38.6637H40.9544V39.1092H42.7356V38.3204H40.9453C40.6916 38.3204 40.4813 38.2336 40.3143 38.0606C40.1412 37.8872 40.0547 37.6768 40.0547 37.4295V36.6314C40.0547 36.384 40.1412 36.1735 40.3143 36.0002C40.4875 35.827 40.6978 35.7403 40.9453 35.7403H43.617V37.0768H42.7264V36.6314H40.9453V37.4295H42.7356C42.9829 37.4295 43.1934 37.513 43.3665 37.68C43.5397 37.8533 43.6262 38.0666 43.6262 38.3204V39.1092Z" fill="#F4F4F4"/>
<path d="M51.6834 35.7403V39.1092C51.6834 39.3629 51.5938 39.5734 51.4144 39.7405C51.2474 39.9135 51.0402 40 50.7929 40H49.0117C48.758 40 48.5478 39.9135 48.3808 39.7405C48.2076 39.5734 48.1211 39.3629 48.1211 39.1092V35.7403H49.0117V39.1092H50.7929V35.7403H51.6834Z" fill="#F4F4F4"/>
<path d="M57.0703 37.3273H58.8514V36.6314H57.0703V37.3273ZM56.1797 35.7403H58.8514C59.0988 35.7403 59.309 35.827 59.4822 36.0002C59.6553 36.1735 59.742 36.384 59.742 36.6314V37.3273C59.742 37.5811 59.6524 37.7913 59.473 37.9584C59.306 38.1318 59.0988 38.2183 58.8514 38.2183H57.0703V40H56.1797V35.7403Z" fill="#F4F4F4"/>
<path d="M64.2383 36.6314C64.2383 36.384 64.3248 36.1735 64.4979 36.0002C64.6709 35.827 64.8814 35.7403 65.1289 35.7403H67.8006V37.0768H66.91V36.6314H65.1289V37.4295H66.0657V38.3204H65.1289V39.1092H66.91V38.6637H67.8006V40H65.1289C64.8752 40 64.6649 39.9135 64.4979 39.7405C64.3248 39.5734 64.2383 39.3629 64.2383 39.1092V36.6314Z" fill="#F4F4F4"/>
<path d="M73.1855 37.3273H74.9667V36.6314H73.1855V37.3273ZM75.8573 40H74.9667V38.2183H73.1855V40H72.2949V35.7403H74.9667C75.214 35.7403 75.4244 35.827 75.5976 36.0002C75.7706 36.1735 75.8573 36.384 75.8573 36.6314V37.3273C75.8573 37.4945 75.817 37.643 75.7367 37.7727C75.817 37.9089 75.8573 38.0574 75.8573 38.2183V40Z" fill="#F4F4F4"/>
<path d="M80.3535 35.7403H81.2445V40H80.3535V35.7403Z" fill="#F4F4F4"/>
<path d="M86.6308 39.1092H88.412V36.6314H86.6308V39.1092ZM85.7402 36.6314C85.7402 36.384 85.8267 36.1735 85.9999 36.0002C86.1731 35.827 86.3833 35.7403 86.6308 35.7403H88.412C88.6593 35.7403 88.8695 35.827 89.0427 36.0002C89.2159 36.1735 89.3026 36.384 89.3026 36.6314V39.1092C89.3026 39.3629 89.2129 39.5734 89.0335 39.7405C88.8665 39.9135 88.6593 40 88.412 40H86.6308C86.3771 40 86.1669 39.9135 85.9999 39.7405C85.8267 39.5734 85.7402 39.3629 85.7402 39.1092V36.6314Z" fill="#F4F4F4"/>
<path d="M94.6875 37.3273H96.4686V36.6314H94.6875V37.3273ZM97.3592 40H96.4686V38.2183H94.6875V40H93.7969V35.7403H96.4686C96.7162 35.7403 96.9264 35.827 97.0996 36.0002C97.2727 36.1735 97.3592 36.384 97.3592 36.6314V37.3273C97.3592 37.4945 97.3192 37.643 97.2389 37.7727C97.3192 37.9089 97.3592 38.0574 97.3592 38.2183V40Z" fill="#F4F4F4"/>
<path d="M110.758 35.7403H111.648V40H110.758V38.3112H108.976V40H108.086V35.7403H108.976V37.4201H110.758V35.7403Z" fill="#F4F4F4"/>
<path d="M118.826 36.6314H117.035V37.4295H118.826V36.6314ZM116.145 36.6314C116.145 36.384 116.231 36.1735 116.404 36.0002C116.577 35.827 116.788 35.7403 117.035 35.7403H118.863C119.091 35.7528 119.286 35.8393 119.447 36.0002C119.626 36.1735 119.716 36.384 119.716 36.6314V40H118.826V38.3204H117.035V40H116.145V36.6314Z" fill="#F4F4F4"/>
<path d="M126.883 40V36.6314H125.101V40H124.211V35.7403H126.883C127.13 35.7403 127.337 35.827 127.504 36.0002C127.683 36.1735 127.773 36.384 127.773 36.6314V40H126.883Z" fill="#F4F4F4"/>
<path d="M133.16 39.1092H134.941V36.6314H133.16V39.1092ZM135.832 39.1092C135.832 39.3629 135.745 39.5734 135.572 39.7405C135.399 39.9135 135.189 40 134.941 40H132.27V35.7403H134.941C135.189 35.7403 135.396 35.827 135.563 36.0002C135.742 36.1735 135.832 36.384 135.832 36.6314V39.1092Z" fill="#F4F4F4"/>
<path d="M140.326 36.6314C140.326 36.384 140.413 36.1735 140.586 36.0002C140.759 35.827 140.969 35.7403 141.217 35.7403H143.889V37.0768H142.998V36.6314H141.217V39.1092H142.998V38.3204H142.553V37.4295H143.889V40H141.217C140.963 40 140.753 39.9135 140.586 39.7405C140.413 39.5734 140.326 39.3629 140.326 39.1092V36.6314Z" fill="#F4F4F4"/>
<path d="M151.947 35.7403V39.1092C151.947 39.3629 151.857 39.5734 151.678 39.7405C151.511 39.9135 151.304 40 151.057 40H149.275C149.022 40 148.811 39.9135 148.645 39.7405C148.471 39.5734 148.385 39.3629 148.385 39.1092V35.7403H149.275V39.1092H151.057V35.7403H151.947Z" fill="#F4F4F4"/>
<path d="M159.115 40V36.6314H157.334V40H156.443V35.7403H159.115C159.362 35.7403 159.57 35.827 159.737 36.0002C159.916 36.1735 160.006 36.384 160.006 36.6314V40H159.115Z" fill="#F4F4F4"/>
<path d="M168.072 39.1092C168.072 39.3629 167.982 39.5734 167.803 39.7405C167.63 39.9135 167.422 40 167.181 40H164.509V38.6637H165.4V39.1092H167.181V38.3204H165.391C165.137 38.3204 164.927 38.2336 164.76 38.0606C164.586 37.8872 164.5 37.6768 164.5 37.4295V36.6314C164.5 36.384 164.586 36.1735 164.76 36.0002C164.933 35.827 165.143 35.7403 165.391 35.7403H168.062V37.0768H167.172V36.6314H165.391V37.4295H167.181C167.428 37.4295 167.639 37.513 167.812 37.68C167.985 37.8533 168.072 38.0666 168.072 38.3204V39.1092Z" fill="#F4F4F4"/>
</g>
<defs>
<clipPath id="clip0_712_7896">
<rect width="208" height="40" fill="white"/>
</clipPath>
</defs>
</svg>
