<svg width="101" height="40" viewBox="0 0 101 40" fill="none" xmlns="http://www.w3.org/2000/svg">
<g clip-path="url(#clip0_712_7939)">
<path d="M17.147 0.315749C16.8918 0.373644 16.4277 0.454697 16.1029 0.489434C15.7896 0.524171 15.314 0.628381 15.0588 0.709434C14.8035 0.790487 14.3047 0.941013 13.9566 1.0568C13.2954 1.25365 12.6341 1.4968 12.0425 1.76312C11.4856 2.00628 10.6619 2.38838 10.4763 2.50417C10.3835 2.56207 10.2211 2.63154 10.1283 2.67786C9.15375 3.07154 6.6595 5.02839 5.36016 6.3947C4.7337 7.06628 3.05153 9.27787 3.05153 9.42839C3.05153 9.48629 2.98192 9.5905 2.90071 9.65997C2.8195 9.72945 2.50627 10.2968 2.20464 10.9221C1.89141 11.5473 1.56657 12.2073 1.47376 12.381C1.38095 12.5663 1.31135 12.7863 1.31135 12.8905C1.31135 12.9831 1.24174 13.2031 1.14893 13.3652C1.05612 13.5389 0.928507 13.8863 0.8589 14.141C0.37165 15.9705 0.267239 16.4568 0.162828 17.3947C0.000411443 18.7495 0.000411443 20.9958 0.162828 22.4779C0.27884 23.5779 0.37165 24.041 0.777691 25.3958C0.882102 25.72 0.963311 26.0674 0.963311 26.1716C0.963311 26.2642 1.03292 26.4842 1.12573 26.6695C1.21854 26.8432 1.46216 27.4105 1.67098 27.92C1.8798 28.4295 2.10023 28.9042 2.15823 28.9853C2.21624 29.0663 2.35545 29.3095 2.48307 29.5411C2.59908 29.7611 2.8079 30.1316 2.93551 30.3632C3.64319 31.6832 5.83581 34.1379 7.41357 35.3884C9.17696 36.8011 9.74541 37.1253 12.1585 38.2253C12.9009 38.5611 14.5135 39.0821 15.4068 39.2674C15.9172 39.3716 16.5205 39.5105 16.7409 39.5684C17.3558 39.7537 21.3118 39.8347 22.1355 39.6726C22.5183 39.6032 23.11 39.499 23.4464 39.4411C25.1982 39.1516 27.5881 38.3411 28.9222 37.5884C29.015 37.5305 29.3282 37.3684 29.6183 37.2179C31.4512 36.3032 34.1659 33.9411 35.5813 32.0421C36.4398 30.8958 37.5071 29.2053 37.5071 28.9968C37.5071 28.9274 37.5767 28.7768 37.6579 28.6842C37.7391 28.58 37.9015 28.2674 38.0175 27.9779C38.1335 27.6884 38.296 27.2947 38.3772 27.1095C38.6324 26.5537 39.0384 25.141 39.4329 23.4621C39.7229 22.2463 39.7229 17.6147 39.4329 16.561C39.3285 16.1673 39.2473 15.7273 39.2473 15.5768C39.2473 15.4263 39.166 15.1484 39.0732 14.9631C38.9804 14.7895 38.8992 14.5116 38.8992 14.361C38.8992 14.1063 38.7136 13.5852 38.3656 12.8905C38.2728 12.7052 38.2031 12.4968 38.2031 12.4273C38.2031 12.1842 37.1242 10.1116 36.5326 9.21997C35.7901 8.10839 34.2123 6.16313 33.5511 5.5726C33.0638 5.1326 32.5534 4.71576 31.7645 4.09049C31.254 3.68523 29.8155 2.75891 29.4906 2.61996C29.3398 2.56207 29.131 2.45786 29.0382 2.38838C28.1565 1.80944 25.1402 0.75575 23.7597 0.53575C23.3768 0.477855 22.8316 0.373644 22.5415 0.315749C21.8919 0.165223 17.7734 0.176802 17.147 0.315749ZM22.7271 4.51891C23.4812 4.72733 24.2353 4.92418 24.7806 5.03997C25.0242 5.09786 25.291 5.20207 25.3606 5.27155C25.5694 5.47997 25.8247 5.42207 26.0799 5.10944C26.3003 4.83154 26.3351 4.83154 26.7528 4.97049C26.9964 5.06312 27.2516 5.19049 27.3212 5.25997C27.4024 5.34102 27.5068 5.39891 27.5648 5.39891C27.6229 5.39891 27.9013 5.54944 28.1913 5.74628C28.4697 5.93155 28.725 6.09365 28.7598 6.09365C28.957 6.09365 30.8828 7.69155 31.7645 8.59471C33.0058 9.85681 33.8295 11.0147 34.688 12.6937C35.0708 13.4463 35.1056 13.7358 34.804 13.7358C34.4096 13.7358 34.398 13.9905 34.7228 14.9284C35.1868 16.3063 35.3028 16.8852 35.4305 18.3674C35.6277 20.66 35.3144 23.6589 34.7344 25.0137C34.4212 25.7316 34.4328 25.94 34.7924 26.2063L35.0824 26.4263L34.6532 27.2832C34.4212 27.7579 34.1079 28.3137 33.9571 28.5221C33.8063 28.7189 33.6787 28.9158 33.6787 28.9621C33.6787 29.3211 31.022 32.1811 29.8967 33.0379C28.6438 33.9874 26.7644 35.0411 26.3235 35.0411C26.2075 35.0411 26.0915 34.9368 26.0567 34.8095C25.9871 34.5316 25.6971 34.5084 25.0358 34.74C23.7365 35.18 23.3304 35.2842 22.3675 35.4463C20.2445 35.7937 17.437 35.6084 15.4068 34.9947C13.7826 34.4968 13.8522 34.5084 13.655 34.7863C13.5622 34.9253 13.4114 35.0411 13.3302 35.0411C13.1446 35.0411 11.648 34.2884 10.9403 33.8368C8.46928 32.2621 6.21865 29.7032 4.91932 27.0053L4.65249 26.4495L4.95412 26.1716C5.11654 26.0095 5.25575 25.8589 5.25575 25.8358C5.25575 25.8126 5.09334 25.3032 4.90772 24.7126C4.21165 22.6053 3.95642 19.9189 4.25805 18.1358C4.60609 16.1442 4.68729 15.7621 5.09334 14.6158L5.29056 14.0484L4.97732 13.7937L4.65249 13.5389L5.01213 12.7979C5.78941 11.1884 6.6595 9.91471 7.86602 8.6526C8.56209 7.92313 10.2675 6.44102 10.4183 6.44102C10.4531 6.44102 10.6619 6.31365 10.8591 6.16313C11.068 6.0126 11.4624 5.76944 11.7524 5.61891C12.0425 5.46839 12.3557 5.2947 12.4485 5.21365C12.5413 5.14418 12.7965 5.01681 13.0054 4.93576C13.3534 4.79681 13.3882 4.80839 13.6202 5.09786C13.887 5.44523 14.0379 5.46839 14.5019 5.23681C14.8267 5.0747 14.9892 5.01681 16.6249 4.59997C17.7502 4.31049 21.8223 4.26418 22.7271 4.51891Z" fill="#F4F4F4"/>
<path d="M7.64526 12.1032C7.61045 12.1611 7.63366 12.8558 7.69166 13.6432C7.81928 15.1369 7.88888 16.2716 7.97009 17.8927C8.0049 18.5179 8.0745 18.9 8.17891 18.9579C8.38773 19.0969 13.2718 19.0853 13.4807 18.9579C13.6199 18.8653 13.6315 18.6684 13.5387 17.8232L13.4343 16.8042L11.9609 16.7695C10.2207 16.7348 10.2903 16.7811 10.2323 15.4148L10.1859 14.4884L19.0376 14.4537L27.8777 14.4305L27.9938 14.7316C28.0634 14.8937 28.1098 15.4727 28.1098 16.0053V16.9895L26.7756 18.3442C26.0448 19.0853 25.4415 19.7569 25.4415 19.8379C25.4415 19.919 26.1144 20.6484 26.9264 21.459C27.7501 22.2695 28.5042 23.0684 28.6086 23.2306C28.7362 23.439 28.8058 23.8211 28.8174 24.5274C28.8406 25.7085 28.8406 25.6969 27.1469 27.3642L26.0564 28.4411H25.0819C24.5482 28.4411 24.0377 28.3948 23.9565 28.3369C23.8753 28.2906 23.7825 27.9664 23.7477 27.619C23.7245 27.2716 23.6549 26.6 23.6085 26.1253L23.5273 25.2569H21.2071V26.0674C21.2187 26.5074 21.2535 27.3179 21.3115 27.8621C21.3579 28.4064 21.4391 29.2632 21.4739 29.7727L21.5551 30.699L24.351 30.7337L27.1469 30.7569L29.1655 28.719C30.2792 27.6074 31.2073 26.6695 31.2305 26.6348C31.3581 26.519 31.2073 23.3463 31.0565 22.6863C30.8941 22.0032 30.836 21.9106 29.8499 20.9611C29.2699 20.4053 28.8058 19.8958 28.8058 19.8263C28.8058 19.7453 29.1655 19.34 29.6179 18.9116C30.0588 18.4716 30.4648 18.0316 30.5228 17.9274C30.6736 17.5916 30.3372 12.4274 30.1284 12.1032C30.0472 11.9642 7.72647 11.9642 7.64526 12.1032Z" fill="#F4F4F4"/>
<path d="M15.1283 16.8505C15.0123 16.9316 14.9891 17.0821 15.0587 17.4526C15.1051 17.7305 15.1863 18.6916 15.2327 19.5832C15.3255 21.1579 15.5459 23.3695 15.6387 23.659C15.6735 23.7748 16.5436 23.8095 19.4323 23.8095C21.4973 23.8095 23.2375 23.7632 23.3071 23.7169C23.4347 23.6358 23.3767 22.3853 23.1099 19.7569C23.0287 19.0274 22.9475 18.0547 22.9011 17.6147L22.8315 16.8042L21.741 16.7695C21.1377 16.7579 20.6041 16.7811 20.5461 16.839C20.488 16.8968 20.5228 17.8347 20.6273 19.0737C20.7201 20.2432 20.8013 21.239 20.8013 21.2969C20.8013 21.3432 20.1052 21.3663 19.2699 21.3547L17.727 21.32L17.6574 19.7569C17.5877 18.3442 17.5297 17.8232 17.3673 17.0011C17.3209 16.7579 17.2629 16.7463 16.3 16.7463C15.7432 16.7463 15.2211 16.7926 15.1283 16.8505ZM61.2314 8.0621C60.9762 8.12 60.5122 8.16631 60.1873 8.16631C59.5609 8.17789 58.2035 8.45579 57.6003 8.71052C57.3914 8.80315 57.1246 8.87263 56.997 8.87263C56.8694 8.87263 56.5794 8.95368 56.3357 9.05789C56.0921 9.1621 55.7441 9.32421 55.5469 9.40526C54.8856 9.67158 53.6907 10.2968 53.505 10.4474C53.4122 10.54 53.2846 10.6095 53.2382 10.6095C52.9134 10.6095 50.0363 13.3421 50.0363 13.6432C50.0363 13.6895 49.8855 13.9442 49.7115 14.2221C49.5258 14.5 49.2938 14.9516 49.1778 15.2411C49.0618 15.5305 48.911 15.8895 48.8414 16.0516C48.6093 16.5842 48.4005 17.3716 48.2845 18.0779C48.2265 18.46 48.1337 19.0274 48.0757 19.3516C47.9249 20.139 47.9249 21.8526 48.0757 22.7674C48.1453 23.1842 48.2497 23.8095 48.2961 24.1569C48.4121 24.8979 48.6441 25.72 48.853 26.0905C48.9226 26.2295 48.9922 26.4148 48.9922 26.4958C48.9922 26.7158 50.0131 28.4295 50.3727 28.8348C52.2289 30.8727 54.5143 32.2621 57.1014 32.9221C59.0852 33.42 59.3636 33.4548 61.8695 33.4663C64.1549 33.4663 65.025 33.4084 67.4961 33.0611C67.9485 32.9916 68.9114 32.9106 69.6539 32.8758C70.7676 32.8179 71.0692 32.8411 71.3825 33.0032C71.8233 33.2116 72.0786 33.2463 72.0786 33.0727C72.0786 33.0032 72.0902 31.579 72.0902 29.8884C72.0902 28.1979 72.0786 26.7621 72.0786 26.7042C72.0786 26.5074 71.6609 26.5769 71.0692 26.8663C69.8163 27.4916 68.7258 27.9779 68.5982 27.9779C68.5286 27.9779 68.3546 28.0358 68.2154 28.1169C67.8325 28.3253 66.8348 28.6611 66.568 28.6727C66.4404 28.6727 66.1039 28.7653 65.8139 28.8695C65.0482 29.1474 60.7674 29.1474 60.0133 28.8695C59.7233 28.7653 59.3984 28.6727 59.294 28.6727C58.8416 28.6727 57.3914 27.7811 56.6838 27.0748C56.2777 26.6811 55.9529 26.3105 55.9529 26.2411C55.9529 26.1832 55.8021 25.9053 55.6049 25.6274C55.4192 25.3379 55.2568 25.0021 55.2568 24.8748C55.2568 24.7474 55.1756 24.5853 55.0828 24.5042C54.99 24.4232 54.9088 24.2263 54.9088 24.0527C54.9088 23.8905 54.8276 23.5432 54.7348 23.2884C54.5027 22.64 54.5027 19.5369 54.7348 18.8884C54.8276 18.6337 54.9088 18.3095 54.9088 18.1705C54.9088 18.0316 54.9784 17.7769 55.0712 17.5916C55.164 17.4179 55.3496 17.0358 55.4772 16.7463C56.2545 15.1368 57.3682 13.9674 58.8532 13.2495C59.8277 12.7747 60.1525 12.6705 61.4635 12.4621C62.3335 12.3232 64.5262 12.3232 65.2919 12.4737C65.6167 12.5316 66.1619 12.6242 66.5216 12.6821C66.8812 12.74 67.2757 12.8326 67.3917 12.9021C67.8557 13.1337 68.4938 13.3884 68.6446 13.3884C68.7258 13.3884 69.0158 13.539 69.2711 13.7358C69.5379 13.9211 69.7931 14.0832 69.8511 14.0832C69.8975 14.0832 70.1064 14.2453 70.3268 14.4305C70.5356 14.6274 70.7444 14.7547 70.7908 14.7316C70.8372 14.6968 70.9764 14.4537 71.0809 14.1758C71.1969 13.8979 71.3593 13.539 71.4521 13.3653C71.5449 13.2032 71.6145 12.9947 71.6145 12.9021C71.6145 12.8095 71.7537 12.4042 71.9161 11.9874C72.0785 11.5821 72.2642 11.0842 72.3106 10.8989C72.3686 10.7021 72.5194 10.2621 72.6586 9.91474C73.1111 8.78 73.1807 8.87263 71.9161 8.87263C71.2897 8.87263 70.698 8.82631 70.582 8.76842C69.8279 8.36315 62.4148 7.80736 61.2314 8.0621ZM77.2527 8.62947C77.2179 8.68737 77.2643 8.79158 77.3571 8.87263C77.5775 9.05789 77.5775 9.41684 77.3571 9.79895C77.2643 9.96105 77.1947 10.2274 77.1831 10.3895C77.1831 10.5516 77.1019 10.7832 77.0091 10.9105C76.9163 11.0263 76.835 11.2232 76.835 11.3274C76.835 11.4432 76.7654 11.6979 76.6726 11.9063C76.139 13.1568 75.6633 14.8937 75.8605 14.8937C76.0114 14.8937 76.835 14.2916 76.835 14.1874C76.835 14.1295 76.9047 14.0832 76.9975 14.0832C77.0787 14.0832 77.2179 14.0021 77.2991 13.9095C77.3803 13.8168 77.5195 13.7358 77.6239 13.7358C77.7167 13.7358 77.8908 13.6663 77.9836 13.5853C78.088 13.5042 78.4824 13.3305 78.8653 13.2147C79.2481 13.099 79.7934 12.9368 80.0718 12.8558C80.7098 12.6589 89.8864 12.6126 90.0024 12.8095C90.0372 12.8674 89.8168 13.2611 89.5152 13.6663C89.2135 14.0832 88.5174 15.0558 87.9722 15.82C87.4269 16.5842 86.6613 17.6611 86.2668 18.1937C85.8608 18.7263 85.5359 19.2011 85.5359 19.2358C85.5359 19.2821 85.3039 19.6179 85.0139 19.9884C84.7239 20.359 84.4918 20.6947 84.4918 20.7411C84.4918 20.7874 84.2598 21.1232 83.9698 21.4937C83.6797 21.8642 83.4477 22.2116 83.4477 22.2463C83.4477 22.2926 83.3085 22.5011 83.1345 22.7095C82.9489 22.9179 82.4964 23.5432 82.1136 24.0874C81.7308 24.6316 81.1043 25.5232 80.7214 26.0558C80.3386 26.5884 79.7121 27.48 79.3293 28.0358C78.9465 28.58 78.32 29.46 77.9256 29.9811C77.5427 30.5021 77.1947 31.0116 77.1599 31.1042C77.1251 31.1969 76.8234 31.6137 76.487 32.019C76.139 32.4474 75.9302 32.7948 75.9882 32.8527C76.0462 32.9106 81.0811 32.9453 87.8678 32.9337C98.2625 32.899 99.6198 32.8758 99.585 32.7253C99.4342 32.2158 99.4458 31.4516 99.6198 31.1274C99.7242 30.9306 99.8054 30.6642 99.8054 30.5369C99.8054 30.4095 99.875 30.1316 99.9678 29.9232C100.061 29.7148 100.223 29.2284 100.327 28.8463C100.432 28.4642 100.594 28.0011 100.687 27.8274C101 27.1905 100.815 26.6116 100.409 26.959C100.061 27.26 99.411 27.5842 98.7613 27.7927C98.4133 27.9084 97.9724 28.0474 97.7752 28.1053C96.5803 28.499 95.1765 28.6032 90.5593 28.6379C86.4292 28.6727 85.884 28.6611 85.884 28.499C85.884 28.4063 85.9304 28.3253 85.9884 28.3253C86.0348 28.3253 86.2436 28.0821 86.4292 27.7695C86.6265 27.4684 87.0789 26.8084 87.4385 26.299C89.5732 23.2884 90.5593 21.8874 91.5106 20.5095C91.9514 19.8726 92.3458 19.34 92.4038 19.3169C92.4503 19.2937 92.4967 19.2242 92.4967 19.1547C92.4967 19.0969 92.7287 18.7495 92.9955 18.3905C93.2739 18.0316 93.6336 17.5221 93.8076 17.2558C93.97 17.0011 94.1672 16.7116 94.26 16.619C94.3529 16.5263 94.5501 16.2484 94.7009 15.9937C94.8517 15.739 95.0141 15.5074 95.0489 15.4726C95.1069 15.4263 95.9538 14.2337 97.5432 11.9411C97.81 11.5589 98.2857 10.8758 98.5989 10.4358C98.9005 9.98421 99.3762 9.40526 99.6546 9.15052C99.9214 8.88421 100.107 8.62947 100.072 8.59473C99.9562 8.47894 77.3223 8.51368 77.2527 8.62947Z" fill="#F4F4F4"/>
</g>
<defs>
<clipPath id="clip0_712_7939">
<rect width="101" height="40" fill="white"/>
</clipPath>
</defs>
</svg>
