<svg width="60" height="50" viewBox="0 0 60 50" fill="none" xmlns="http://www.w3.org/2000/svg">
<path d="M0.272322 0.257941C4.22375 0.257941 8.17517 0.257103 12.1266 0.257941C12.1224 9.36766 12.1274 18.4774 12.1241 27.5879C15.15 27.5871 18.176 27.5888 21.202 27.5871C21.2011 22.5184 21.202 17.4497 21.2011 12.3811C24.0353 12.3827 26.8686 12.3744 29.7028 12.3852C29.6978 20.0176 29.702 27.6499 29.7003 35.2822C30.0805 35.2814 30.4616 35.2814 30.8418 35.2814C30.8418 27.6482 30.8427 20.0142 30.8418 12.3802C34.599 12.3794 38.3569 12.3802 42.1149 12.3802C42.1157 14.9824 42.1149 17.5837 42.1157 20.1859C42.1299 21.8878 42.0847 23.5921 42.1383 25.2923C44.8703 20.9899 47.5981 16.6842 50.3284 12.3802C53.2539 12.3777 56.1802 12.3844 59.1057 12.3769C58.3033 13.6499 57.5629 14.9615 56.7857 16.2496C54.9331 19.3677 53.0814 22.4857 51.2288 25.6038C51.0135 25.9782 50.7748 26.3383 50.5814 26.7244C52.1894 26.7261 53.8678 26.9045 55.2924 27.7077C56.2531 28.2437 56.9909 29.1616 57.2815 30.2253C57.5387 31.0695 57.501 31.9589 57.4993 32.83C57.5127 36.0226 57.5043 39.2152 57.5244 42.4079C55.0119 42.407 52.4985 42.4087 49.9851 42.407C49.9851 40.5494 49.9859 38.6918 49.9851 36.835C47.3619 36.8367 44.7388 36.8342 42.1157 36.8358C42.1157 38.6935 42.1132 40.5502 42.1174 42.4079C35.1442 42.4079 28.1718 42.4079 21.1995 42.407C21.2045 40.4841 21.1995 38.5611 21.202 36.6382C18.2062 36.6357 15.2095 36.6357 12.2137 36.6382C12.2162 38.5611 12.2112 40.4849 12.2162 42.4079C8.23463 42.4079 4.25306 42.4079 0.271484 42.4079C0.274834 28.3576 0.273997 14.3082 0.272322 0.257941Z" fill="#ED1C24"/>
<path d="M9.74281 45.7646C10.1423 45.1558 10.8366 44.7847 11.5468 44.6834C12.1431 44.6172 12.7663 44.6348 13.3257 44.8693C13.247 45.1742 13.1674 45.4782 13.0904 45.7839C12.4857 45.5494 11.7503 45.4891 11.1825 45.8501C10.69 46.1524 10.4832 46.7604 10.5024 47.3149C10.4957 47.866 10.7411 48.4489 11.2386 48.7261C11.8056 49.0427 12.4957 48.9698 13.0912 48.7772C13.1473 49.0795 13.2051 49.3819 13.2688 49.6834C12.4974 49.9497 11.6289 49.9816 10.8525 49.7236C10.1163 49.4824 9.5485 48.8375 9.381 48.0846C9.21852 47.3057 9.28552 46.4363 9.74281 45.7646Z" fill="#F4F4F4"/>
<path d="M33.016 45.3233C33.4389 44.6181 34.4464 44.474 35.1399 44.8325C35.6935 45.1063 35.8895 45.8576 35.5955 46.3886C35.4129 46.7521 35.0511 46.9673 34.7111 47.1625C35.0051 47.4824 35.2823 47.8166 35.5804 48.1323C35.7873 47.7404 35.9297 47.3182 36.0051 46.8819C36.3468 46.8811 36.6885 46.8811 37.0302 46.8819C36.9071 47.5854 36.655 48.2772 36.1893 48.8283C36.49 49.1549 36.7748 49.4941 37.0846 49.8124C36.6332 49.8082 36.1818 49.8107 35.7304 49.809C35.6265 49.6943 35.5235 49.5804 35.4205 49.4665C35.1743 49.6239 34.9088 49.7496 34.6299 49.8392C34.2798 49.876 33.9255 49.8928 33.5737 49.8643C33.1969 49.7973 32.8208 49.6365 32.5712 49.3367C32.2145 48.9397 32.1734 48.3358 32.3652 47.8543C32.521 47.4648 32.8602 47.1943 33.2128 46.9883C32.8359 46.5326 32.691 45.845 33.016 45.3233ZM33.8761 45.7311C33.7915 46.0687 33.995 46.3794 34.2078 46.6206C34.4012 46.4573 34.6399 46.309 34.7262 46.0578C34.7806 45.8409 34.7538 45.5678 34.552 45.4355C34.3041 45.2395 33.9213 45.4363 33.8761 45.7311ZM33.4255 48.6465C33.6977 49.1532 34.4523 49.1909 34.8568 48.8283C34.5118 48.3827 34.0821 48.0075 33.7337 47.5628C33.3828 47.7931 33.2228 48.2663 33.4255 48.6465Z" fill="#F4F4F4"/>
<path d="M45.189 44.7019C45.8423 44.5863 46.5601 44.6457 47.122 45.0251C47.7502 45.433 48.0952 46.1709 48.1581 46.9012C48.22 47.6055 48.0961 48.3568 47.6823 48.9439C46.8138 50.1868 44.6857 50.2446 43.7946 48.9975C43.1631 48.1064 43.1304 46.8551 43.6195 45.892C43.9302 45.2856 44.5215 44.8375 45.189 44.7019ZM45.3473 45.6248C44.8356 45.8283 44.586 46.3895 44.524 46.9054C44.4604 47.4941 44.5173 48.1583 44.9252 48.6223C45.2904 49.062 46.0349 49.1122 46.4462 48.7111C46.8465 48.3384 46.9621 47.7613 46.9579 47.2354C46.9554 46.7144 46.8105 46.1483 46.3984 45.799C46.1179 45.5444 45.6957 45.5176 45.3473 45.6248Z" fill="#F4F4F4"/>
<path d="M48.8992 46.2136C49.2208 45.3811 50.0374 44.8124 50.9076 44.6884C51.5156 44.6131 52.1521 44.6348 52.7267 44.8685C52.6421 45.1692 52.5617 45.4715 52.4955 45.7772C51.8573 45.5486 51.0801 45.4824 50.5039 45.8995C49.7602 46.4774 49.7058 47.6867 50.2585 48.412C50.7962 49.0561 51.7552 49.0285 52.4855 48.7772C52.5458 49.0796 52.6019 49.3811 52.6614 49.6842C52.0433 49.9087 51.3691 49.9414 50.7225 49.8484C50.0466 49.7378 49.3959 49.3626 49.05 48.7588C48.6103 47.9958 48.5885 47.0268 48.8992 46.2136Z" fill="#F4F4F4"/>
<path d="M0.3072 44.737C0.694135 44.737 1.08191 44.7378 1.46884 44.737C1.46382 45.3878 1.46968 46.0385 1.46549 46.6893C2.09866 46.6859 2.73182 46.6901 3.36415 46.6868C3.36248 46.0368 3.36666 45.3869 3.36164 44.737C3.74271 44.7378 4.12378 44.7378 4.50486 44.737C4.50151 46.428 4.49899 48.1197 4.50569 49.8107C4.12378 49.8099 3.74187 49.8099 3.35996 49.8107C3.36918 49.1055 3.35829 48.4003 3.36666 47.6951C2.73266 47.6817 2.09866 47.6926 1.46465 47.6884C1.47135 48.3961 1.46214 49.103 1.46968 49.8107C1.08107 49.8099 0.693297 49.8115 0.304688 49.8074C0.311388 48.1172 0.3072 46.4271 0.3072 44.737Z" fill="#F4F4F4"/>
<path d="M5.5 44.737C6.54941 44.7378 7.59883 44.7378 8.64908 44.737C8.64824 45.0502 8.6474 45.3635 8.64908 45.6767C7.98576 45.6759 7.32161 45.6767 6.65745 45.6759C6.6608 46.0251 6.65997 46.3735 6.65997 46.7228C7.28141 46.7203 7.90201 46.7228 8.52345 46.7211C8.52596 47.0385 8.52513 47.3551 8.52513 47.6725C7.90285 47.6708 7.28057 47.6734 6.65913 47.6717C6.6608 48.0712 6.6608 48.4707 6.65829 48.871C7.35678 48.8685 8.05444 48.871 8.75293 48.8693C8.74958 49.1826 8.74958 49.4958 8.75377 49.8099C7.67002 49.8124 6.58543 49.8065 5.50167 49.8124C5.49916 48.1206 5.50168 46.4288 5.5 44.737Z" fill="#F4F4F4"/>
<path d="M14.0137 44.7361C14.3931 44.7378 14.7725 44.737 15.151 44.737C15.1468 45.4899 15.1477 46.242 15.1502 46.9949C15.6376 46.2303 16.1611 45.4907 16.6669 44.7387C17.141 44.7361 17.615 44.7378 18.089 44.737C17.5271 45.4547 16.9676 46.175 16.4098 46.8969C17.0003 47.8676 17.5874 48.8408 18.1812 49.809C17.7306 49.8107 17.28 49.8098 16.8303 49.8098C16.4107 49.0904 16.0296 48.3467 15.584 47.6449C15.4266 47.8224 15.2398 47.9941 15.1561 48.2202C15.1359 48.7495 15.1527 49.2797 15.1519 49.8098C14.7725 49.8098 14.3931 49.809 14.0137 49.8107C14.0187 48.1197 14.017 46.4279 14.0137 44.7361Z" fill="#F4F4F4"/>
<path d="M18.6401 44.737C19.027 44.7378 19.4139 44.7378 19.8017 44.737C19.7984 46.1089 19.8017 47.4799 19.8 48.8517C20.4742 48.8526 21.1484 48.8484 21.8235 48.8543C21.8159 49.1725 21.8168 49.4908 21.821 49.8099C20.7598 49.8082 19.6987 49.8141 18.6367 49.8074C18.6459 48.1172 18.6401 46.4271 18.6401 44.737Z" fill="#F4F4F4"/>
<path d="M22.493 44.737C23.5374 44.7446 24.5818 44.7253 25.6254 44.7454C25.6538 45.0536 25.6312 45.3643 25.6396 45.6742C24.9763 45.6792 24.3138 45.6767 23.6513 45.675C23.6538 46.0243 23.6538 46.3727 23.6522 46.7219C24.2728 46.7228 24.8934 46.7194 25.514 46.7245C25.514 47.0402 25.5148 47.3568 25.5114 47.6742C24.8917 47.67 24.2719 47.6734 23.6513 47.6717C23.6538 48.0712 23.6538 48.4715 23.6513 48.871C24.3473 48.8685 25.0441 48.8702 25.7401 48.8694C25.7376 49.1817 25.7376 49.495 25.7409 49.8074C24.658 49.8132 23.5751 49.8099 22.4922 49.809C22.4964 48.1181 22.4947 46.428 22.493 44.737Z" fill="#F4F4F4"/>
<path d="M26.519 44.7923C27.3464 44.7077 28.1932 44.6147 29.0165 44.7864C29.5123 44.8836 29.9938 45.2253 30.1111 45.7378C30.3314 46.4129 29.9227 47.1826 29.2543 47.4045C29.519 47.541 29.7325 47.7663 29.8347 48.0486C30.0466 48.6248 30.1379 49.2378 30.3557 49.8132C29.9587 49.8074 29.5617 49.8124 29.1647 49.8074C29.0131 49.402 28.9093 48.9807 28.8096 48.5603C28.7451 48.3099 28.6622 48.0184 28.4151 47.8911C28.1823 47.7831 27.9193 47.8048 27.6706 47.7956C27.6597 48.4673 27.6672 49.139 27.6664 49.8107C27.2828 49.809 26.8992 49.8115 26.5156 49.8074C26.5232 48.1357 26.5165 46.464 26.519 44.7923ZM27.6622 45.5854C27.6681 46.0477 27.6655 46.51 27.6639 46.9723C28.034 46.9606 28.4578 47.0335 28.7694 46.7847C29.1094 46.531 29.1136 45.9397 28.7593 45.6985C28.4319 45.495 28.0265 45.5293 27.6622 45.5854Z" fill="#F4F4F4"/>
<path d="M39.1465 44.737C39.5292 44.7387 39.912 44.7353 40.2947 44.7404C40.2729 45.4899 40.2495 46.2429 40.3065 46.9908C40.7529 46.2077 41.3039 45.4924 41.7964 44.7395C42.2704 44.7362 42.7445 44.7378 43.2185 44.7378C42.6557 45.4548 42.0971 46.1759 41.5393 46.897C42.1306 47.8677 42.7185 48.84 43.3098 49.8099C42.8601 49.8099 42.4103 49.8099 41.9606 49.8099C41.546 49.0829 41.1406 48.3492 40.7168 47.6273C40.5719 47.8224 40.3709 47.9908 40.283 48.2219C40.2637 48.7512 40.2805 49.2806 40.2788 49.8107C39.9011 49.8099 39.5234 49.809 39.1465 49.8115C39.1507 48.1197 39.1498 46.428 39.1465 44.737Z" fill="#F4F4F4"/>
<path d="M53.4062 44.737C53.7932 44.7378 54.181 44.737 54.5687 44.737C54.5629 45.3878 54.5687 46.0385 54.5645 46.6884C55.1977 46.6859 55.83 46.6893 56.4632 46.6868C56.4607 46.0368 56.4649 45.3869 56.4599 44.737C56.8409 44.7378 57.2228 44.7378 57.6039 44.737C57.6014 46.428 57.5989 48.1189 57.6056 49.8107C57.2228 49.8099 56.8409 49.8099 56.459 49.8107C56.4674 49.1047 56.4582 48.3995 56.4649 47.6935C55.8309 47.6842 55.1977 47.6918 54.5645 47.6884C54.5696 48.3961 54.562 49.1038 54.5687 49.8107C54.181 49.809 53.7932 49.8099 53.4062 49.8107C53.4079 48.1197 53.4079 46.428 53.4062 44.737Z" fill="#F4F4F4"/>
<path d="M33.5742 49.8643C33.926 49.8928 34.2803 49.876 34.6303 49.8392C34.5181 49.8911 34.4067 49.9447 34.2962 50H33.6705C33.6462 49.9665 33.5985 49.8986 33.5742 49.8643Z" fill="#F4F4F4"/>
</svg>
