<svg width="197" height="40" viewBox="0 0 197 40" fill="none" xmlns="http://www.w3.org/2000/svg">
<path d="M12.7242 0.928699C8.51964 2.44649 5.94405 5.06412 4.60121 9.17754C4.11692 10.6513 4.02886 11.3112 4.02886 13.6429C4.02886 16.2386 4.38108 18.2403 4.93142 18.8782C5.2176 19.1861 5.17357 20.308 4.86538 20.308C4.44712 20.308 3.36845 18.9662 2.81811 17.7783C1.89354 15.7546 1.71743 14.9627 1.71743 12.763C1.71743 11.5972 1.65139 10.6293 1.56333 10.6293C1.29917 10.6293 0.748829 11.8392 0.594733 12.807C0.506679 13.313 0.352583 13.7749 0.264529 13.8409C0.000365347 13.9949 0.000365347 17.6024 0.264529 17.7563C0.374597 17.8223 0.528693 18.3283 0.594733 18.8562C0.990979 21.3858 3.50053 25.1033 6.27425 27.281C7.08876 27.8969 7.04473 28.2269 6.14217 28.2269C5.30565 28.2269 2.44388 27.127 1.84951 26.5991C1.43125 26.2251 0.946952 26.1372 0.946952 26.4231C0.946952 26.7751 2.28978 28.6448 3.14831 29.5027C3.63262 29.9866 4.60121 30.6685 5.30565 30.9985C6.47237 31.5924 6.73654 31.6364 9.37817 31.6584C10.9191 31.6804 12.2399 31.7464 12.328 31.8124C12.5481 32.0543 11.9097 32.6482 10.765 33.2202C9.92851 33.6381 9.29012 33.7921 8.16742 33.8141C6.16418 33.8361 6.53841 34.254 9.84046 35.5738C11.4034 36.2117 14.5294 35.8598 15.0797 34.9579C15.3659 34.518 16.0043 35.1339 16.7307 36.5857C17.127 37.3336 17.7874 38.3674 18.2277 38.8514L19.0201 39.7313L19.5705 39.1593C20.0988 38.5874 21.4196 35.4858 21.4196 34.8039C21.4196 34.606 21.5737 34.32 21.7498 34.166C22.014 33.9461 22.2341 34.0121 22.8945 34.43C23.643 34.8699 23.9732 34.9359 26.0425 34.9139C27.9357 34.9139 28.53 34.8259 29.4106 34.43C29.9829 34.144 30.4452 33.8581 30.4452 33.7481C30.4452 33.6381 30.071 33.3961 29.6307 33.2202C28.486 32.7362 27.4734 31.8784 27.6275 31.5044C27.7155 31.2844 28.3759 31.0865 29.5206 30.9325C30.5113 30.7785 31.7 30.4706 32.1843 30.2066C33.4611 29.5687 35.1561 27.6989 35.9486 26.0712C36.8292 24.2454 36.7631 23.8055 35.7065 24.8173C34.1655 26.2691 31.2157 27.501 30.9515 26.7751C30.9075 26.6431 31.3698 26.2251 31.9642 25.8292C35.0241 23.8715 37.2694 19.6481 37.2694 15.9526C37.2694 14.3028 36.6311 11.9272 35.7505 10.2994L35.0461 8.97957L35.1782 10.0794C35.5744 13.4009 35.5744 13.7309 35.1782 15.2047C34.5838 17.3604 33.0428 20.088 32.3824 20.088C32.1403 20.088 32.1623 18.8562 32.4264 18.3722C32.7567 17.7783 33.307 15.2927 33.307 14.3468C33.307 13.115 32.6686 9.59548 32.2503 8.56163C31.1276 5.70203 28.6621 3.0624 25.5362 1.32464C24.4135 0.70873 22.9606 0.334782 22.9606 0.642739C22.9606 0.752724 23.3128 1.08268 23.7531 1.36864C25.5582 2.60046 27.2312 5.08612 27.9797 7.72575C29.1024 11.6412 29.1904 13.225 28.3759 15.7326C27.6935 17.7783 27.0991 18.8342 25.9104 20.022C24.7437 21.2318 24.2594 21.2318 23.4009 20.044C22.6524 19.0322 22.5864 18.6362 23.0707 18.1083C23.3348 17.8003 23.3128 17.6244 22.8285 16.5905C22.2341 15.3587 22.2121 14.7208 22.7184 12.2791C23.0927 10.3654 23.0266 7.96771 22.5203 6.99985C22.2782 6.51592 22.08 6.05398 22.08 5.96599C22.08 5.878 22.3882 5.46006 22.7625 5.02012C23.1587 4.58019 23.4009 4.16225 23.3128 4.09625C23.2468 4.00827 23.0486 4.07426 22.9166 4.20624C22.3222 4.80016 20.385 4.4922 18.6679 3.54633C17.8534 3.10639 16.7087 2.95241 15.8722 3.17238C15.4099 3.28237 15.0357 3.48034 15.0357 3.59033C15.0357 3.70031 14.7055 3.94228 14.2872 4.14025C13.891 4.33822 13.3186 4.73417 13.0545 5.02012C12.6142 5.48206 12.5922 5.61404 12.8343 6.38393C13.2306 7.61576 13.4067 7.70375 14.1331 7.02184C14.9476 6.22996 15.7841 6.29595 15.8722 7.15383C15.9162 7.54977 15.8502 7.76974 15.6521 7.76974C15.1898 7.79174 12.9004 9.52949 13.3406 9.52949C13.869 9.52949 15.0357 8.91358 15.0357 8.64962C15.0357 8.51763 15.1898 8.42965 15.3659 8.42965C15.564 8.42965 15.6961 8.62762 15.6961 8.95757C15.6961 9.66147 16.1364 9.92544 16.2905 9.33152C16.4445 8.71561 17.3251 8.71561 17.7654 9.35352C18.4698 10.3654 18.0956 12.4991 16.9509 13.7969C16.3125 14.5448 16.1143 14.6328 15.0357 14.6768C13.6928 14.7648 13.5608 15.0507 14.5073 15.7546C15.1678 16.2605 15.1678 16.5905 14.5073 17.6464C14.2212 18.1083 13.891 18.9222 13.7809 19.4501C13.6268 20.264 13.4947 20.418 13.0324 20.484C12.5702 20.5279 12.2179 20.286 11.2273 19.2301C10.1266 18.0203 9.51026 16.9864 8.62971 14.8088C8.14541 13.5769 8.21145 9.04556 8.76179 7.65975C9.68636 5.28409 11.3814 2.93042 13.0765 1.6546C14.6614 0.466764 14.5514 0.268792 12.7242 0.928699ZM17.3251 4.38221C17.8314 4.58019 17.7654 5.50406 17.237 5.79002C16.6427 6.09797 16.3565 5.9 16.3565 5.15211C16.3565 4.29423 16.5986 4.09625 17.3251 4.38221ZM20.2749 22.8596C20.8913 22.9916 21.3316 23.2996 22.036 24.1354C22.5423 24.7514 22.3442 25.7192 21.5297 26.5991L20.7592 27.413L21.4637 28.1829C23.0707 29.8766 23.4229 30.2066 23.7311 30.2066C24.2154 30.2066 24.1273 30.8005 23.599 31.1745C22.8505 31.6804 22.014 31.2184 20.407 29.4147C19.3283 28.2049 18.8 27.7869 18.3818 27.7869H17.8314L17.9635 29.5247L18.0956 31.2624L17.4352 31.3944C16.1804 31.6364 15.9603 31.3284 16.0923 29.4807C16.1804 27.9409 16.1584 27.8309 15.7181 27.6769C15.1457 27.501 15.1237 27.105 15.6961 26.7311C16.0703 26.5111 16.1364 26.2251 16.1364 25.0593C16.1364 24.2234 16.0263 23.5635 15.8722 23.4755C14.9917 22.9256 18.2937 22.4637 20.2749 22.8596Z" fill="#CF1818"/>
<path d="M18.0745 24.1795C17.9645 24.2674 17.8984 24.7734 17.8984 25.2793C17.8984 26.0272 17.9865 26.2472 18.3387 26.3571C18.9771 26.5551 20.3199 26.0712 20.342 25.6313C20.386 25.0813 20.2979 24.6194 20.1438 24.4434C19.9017 24.2015 18.2507 23.9815 18.0745 24.1795ZM121.12 3.45836C121.076 3.50235 120.196 3.65633 119.161 3.81031C117.29 4.05228 113.812 5.19612 113.261 5.72404C113.107 5.87802 112.865 6.01 112.733 6.01C112.337 6.01 110.488 7.4178 109.255 8.64963C106.107 11.7952 104.654 15.5787 104.632 20.572C104.632 22.5517 104.984 25.7632 105.271 26.1372C105.359 26.2472 105.645 26.9511 105.931 27.677C106.217 28.4029 106.591 29.1508 106.745 29.3487C106.922 29.5247 107.054 29.7667 107.054 29.8547C107.054 30.3826 109.673 32.9782 111.566 34.342C112.117 34.716 114.758 35.9258 115.969 36.3218C119.381 37.4656 124.114 37.9055 128.495 37.4876C131.137 37.2236 133.844 36.6957 134.218 36.3437C134.351 36.2338 134.593 36.1458 134.813 36.1458C135.011 36.1458 135.429 35.9478 135.759 35.6838L136.332 35.2439V29.1728C136.332 23.4316 136.354 23.0796 136.794 22.3757C137.102 21.8478 137.454 21.6058 138.005 21.4958C139.876 21.1439 138.357 20.9679 133.47 20.9679C128.561 20.9679 126.976 21.1659 129.045 21.4958C129.618 21.5838 130.08 21.8258 130.366 22.1997C130.806 22.7717 130.828 23.0576 130.828 28.7988V34.782L130.058 35.2659C129.309 35.7278 129.067 35.7498 125.545 35.6838C122.947 35.6178 121.737 35.5079 121.539 35.3319C121.407 35.1779 121.098 35.0459 120.9 35.0459C120.702 35.0459 119.711 34.628 118.721 34.1441C116.299 32.9342 113.702 30.3606 112.469 28.0069C110.752 24.6854 110.246 22.2437 110.422 17.9103C110.532 14.9188 110.862 13.357 111.831 11.3113C112.271 10.3434 112.381 10.1894 113.944 8.60564C115.287 7.24183 117.334 6.07599 119.227 5.61406C120.856 5.19612 123.96 5.06413 125.765 5.3061C127.416 5.54807 130.036 6.29596 130.476 6.64791C130.608 6.7579 130.96 6.91188 131.269 6.99986C132.061 7.24183 133.624 8.56164 134.285 9.55151C134.593 10.0134 134.945 10.8933 135.077 11.5312C135.495 13.401 135.781 12.829 135.803 10.0354C135.825 8.60564 135.914 6.82389 135.98 6.07599C136.134 4.53621 136.222 4.6242 134.24 4.38223C131.995 4.11827 129.243 3.78831 127.746 3.59034C126.139 3.37037 121.296 3.28238 121.12 3.45836ZM149.65 4.03028C144.213 4.09627 139.92 4.20626 140.14 4.29424C140.36 4.40423 140.889 4.47022 141.285 4.47022C142.187 4.47022 143.266 5.06413 143.64 5.76804C143.86 6.18598 143.926 9.22155 143.926 19.8461C143.926 27.303 143.838 33.8801 143.75 34.474C143.618 35.2439 143.376 35.7058 142.87 36.1678C142.496 36.5197 142.231 36.8497 142.297 36.8937C142.341 36.9597 146.458 37.0476 151.433 37.1356C161.868 37.2676 161.053 37.4656 161.427 34.9139C161.691 33.0222 161.713 31.0865 161.449 31.0865C161.339 31.0865 161.207 31.5044 161.119 32.0104C160.921 33.1762 160.151 34.21 159.072 34.738C158.367 35.0679 157.707 35.1339 154.933 35.1339C151.323 35.1339 150.729 35.0019 149.892 33.8801C149.452 33.2862 149.43 33.0002 149.43 26.8411V20.418L152.864 20.352C155.902 20.308 156.43 20.352 157.333 20.7479C158.411 21.2099 159.006 22.0897 159.006 23.2556C159.006 23.5635 159.094 23.8495 159.204 23.9155C159.314 24.0035 159.468 22.9916 159.534 21.6718C159.6 20.374 159.754 18.9222 159.864 18.4383C160.151 17.2504 159.974 17.0964 159.072 17.8003C158.301 18.3943 158.235 18.3943 154.097 18.5043C150.222 18.6142 149.892 18.5922 149.606 18.2183C149.386 17.8883 149.32 16.5245 149.32 12.1691C149.32 7.06585 149.364 6.49393 149.716 6.18598C150.024 5.92201 150.663 5.90002 153.811 6.07599C156.342 6.20797 157.751 6.36195 158.169 6.58192C158.94 6.97787 159.666 8.09971 159.666 8.9136C159.666 9.24355 159.754 9.55151 159.864 9.63949C160.084 9.77147 160.239 8.56164 160.415 5.61406C160.503 3.8763 160.481 3.81031 160.04 3.8543C159.776 3.8983 155.109 3.96429 149.65 4.03028ZM42.8839 4.25025C43.1261 4.36023 43.6984 4.44822 44.1607 4.44822C45.1513 4.47022 45.9878 4.97615 46.4281 5.81203C46.9124 6.7579 46.8904 33.2422 46.3841 34.9359C46.1639 35.7058 45.8998 36.1678 45.6356 36.2558C45.4155 36.3218 45.1733 36.5197 45.1073 36.6957C45.0192 36.9377 45.1733 37.0257 45.7017 37.0476C47.4627 37.1136 54.0668 37.0257 54.1549 36.9377C54.2209 36.8717 53.8907 36.6297 53.4064 36.4097C51.9535 35.6398 51.9315 35.5519 51.8435 29.3707C51.7774 24.9933 51.8214 23.7395 52.0416 23.4756C52.2837 23.1676 52.658 23.1456 54.4851 23.2556C55.6738 23.3436 56.7745 23.4536 56.9286 23.5195C57.0607 23.5635 57.6991 24.3114 58.2934 25.1473C63.9069 33.0442 65.8661 35.2879 68.0015 36.3657C68.9921 36.8717 69.3663 36.9157 72.6023 36.9817C75.8163 37.0476 76.0805 37.0257 75.6842 36.7177C75.4421 36.5417 75.0899 36.3657 74.9137 36.3657C74.4074 36.3657 72.9545 35.5299 71.8979 34.672C70.9513 33.9241 66.7687 29.3487 65.4919 27.677C65.4039 27.545 64.3692 26.2472 63.1805 24.7954C62.0138 23.3216 61.0452 21.9798 61.0452 21.8258C61.0452 21.6498 61.9257 20.616 62.9824 19.5381C64.3472 18.1303 65.1397 17.1184 65.668 16.0186C66.4165 14.5228 66.4385 14.3908 66.4385 11.9492C66.4385 9.00158 66.1303 8.1877 64.3692 6.47194C63.3566 5.48208 62.7842 5.24011 59.3721 4.22825C58.5136 3.96429 42.2895 3.98629 42.8839 4.25025ZM57.4129 6.22997C59.3941 7.08785 61.1332 9.28754 61.5074 11.4652C61.6175 12.1471 61.7716 13.005 61.8376 13.379C61.9697 14.1709 61.3974 17.6684 61.0011 18.3723C60.3187 19.5821 59.174 20.7919 58.3375 21.1879C56.8626 21.9138 53.3844 21.7378 52.0856 20.9019C51.8655 20.7699 51.7994 19.0542 51.7994 13.5329C51.7994 9.5735 51.8875 6.22997 51.9755 6.07599C52.3498 5.48208 55.894 5.59206 57.4129 6.22997ZM70.4009 4.25025C70.6431 4.36023 71.1934 4.44822 71.6117 4.44822C72.6023 4.47022 73.769 5.17412 74.0552 5.96601C74.2093 6.36195 74.2974 9.30954 74.2753 14.5888C74.2313 22.8156 74.4735 27.281 75.0458 29.2167C76.2566 33.2642 79.0963 36.1238 82.9487 37.1356C84.7979 37.5976 88.5622 37.7735 90.6535 37.4876C95.5405 36.8057 99.0847 33.9901 100.384 29.7667C101.396 26.5771 101.396 26.4231 101.528 16.1286C101.616 8.9136 101.726 5.98801 101.924 5.65805C102.299 4.99814 103.179 4.47022 103.906 4.47022C104.236 4.47022 104.676 4.36023 104.852 4.25025C105.072 4.11827 103.223 4.05228 99.4589 4.05228C96.2449 4.07427 93.9775 4.16226 94.2857 4.25025C94.5939 4.33824 95.1002 4.42622 95.4305 4.44822C95.7607 4.47022 96.355 4.66819 96.7953 4.91016C98.0501 5.65805 98.1381 6.38395 98.1381 16.3486C98.1381 24.7954 97.8519 29.3487 97.3456 29.6787C97.2356 29.7447 97.1475 30.0086 97.1475 30.2726C97.1475 31.5484 94.5279 34.452 92.9649 34.9359C92.6567 35.0239 92.2825 35.2219 92.1064 35.3539C91.9083 35.5079 90.7415 35.5959 89.0025 35.5959C86.4049 35.5959 86.1407 35.5519 85.018 34.9799C83.3009 34.1221 81.9141 32.8462 81.3417 31.6144C81.0555 31.0205 80.7474 30.3826 80.6373 30.1846C80.5272 29.9866 80.2851 28.9968 80.109 28.0069C79.8228 26.5331 79.7567 24.3554 79.7567 16.5245C79.7567 6.44994 79.8448 5.26211 80.6813 5.02014C80.9015 4.93215 81.0776 4.77818 81.0776 4.66819C81.0776 4.55821 81.4078 4.47022 81.804 4.47022C82.1782 4.47022 82.6625 4.36023 82.8387 4.25025C83.0588 4.11827 80.9015 4.03028 76.5648 4.05228C72.6684 4.05228 70.1368 4.14026 70.4009 4.25025ZM163.298 4.25025C163.365 4.36023 163.893 4.47022 164.465 4.47022C165.302 4.47022 165.676 4.6022 166.248 5.08613C166.975 5.68005 166.997 5.74604 167.195 8.09971C167.415 10.6294 167.261 32.6703 167.019 34.342C166.931 35.0239 166.667 35.5299 166.116 36.0578C165.698 36.4977 165.39 36.8937 165.456 36.9377C165.544 37.0476 171.113 37.1136 173.491 37.0476C174.569 37.0257 174.702 36.6737 173.733 36.3218C173.249 36.1458 172.94 35.8378 172.654 35.1339C172.302 34.32 172.236 33.5281 172.214 29.0628C172.192 26.2472 172.192 23.8275 172.192 23.6955C172.214 23.2556 173.315 23.1236 175.406 23.2776L177.409 23.4316L179.148 25.8292C184.74 33.4841 186.391 35.3759 188.394 36.3657C189.429 36.8717 189.737 36.9157 193.347 36.9597C195.46 36.9817 197.001 36.9377 196.759 36.8937C196.517 36.8277 196.121 36.6957 195.879 36.5857C195.637 36.4977 194.888 36.1678 194.228 35.8598C192.224 35.0019 190.287 33.0222 184.762 26.2032C183.551 24.7074 182.296 23.2116 182.01 22.8376C181.196 21.8918 181.328 21.4298 182.648 20.308C185.444 17.9323 187.183 14.6548 187.183 11.6852C187.183 11.0033 187.095 10.3654 186.963 10.2994C186.853 10.2334 186.743 10.0134 186.743 9.81547C186.743 9.13356 185.752 7.41781 184.806 6.49393C183.749 5.46008 182.979 5.08613 180.645 4.44822C179.192 4.07427 178.268 4.03028 171.113 4.03028C165.874 4.03028 163.21 4.09627 163.298 4.25025ZM177.167 6.01C177.299 6.09799 177.629 6.22997 177.938 6.29596C178.246 6.38395 178.928 6.80189 179.456 7.24183C181.35 8.8696 182.12 10.8273 182.12 14.0389C182.12 17.6244 180.931 20.132 178.752 21.1879C177.013 22.0458 172.874 21.6278 172.302 20.572C171.95 19.8681 172.038 6.60392 172.412 6.16398C172.83 5.63605 176.485 5.52607 177.167 6.01Z" fill="#CF1818"/>
</svg>
