<svg width="125" height="40" viewBox="0 0 125 40" fill="none" xmlns="http://www.w3.org/2000/svg">
<g clip-path="url(#clip0_712_7951)">
<path d="M66.7142 31.3678H67.5225L69.0148 35.0155L70.1546 31.3678H71.0044L69.4085 36.5492H68.6832L67.1287 32.7772L65.9681 36.5492H65.0977L66.7142 31.3678ZM71.7712 31.3678H75.4189L75.1702 32.1761H72.393L71.9578 33.544H74.4241L74.1754 34.3523H71.7091L71.2738 35.7409H74.0718L73.823 36.5492H70.1546L71.7712 31.3678ZM76.0407 31.3678H76.9733L77.2013 35.3264L79.8956 31.3678H80.8904L77.2427 36.5906H76.4759L76.0407 31.3678ZM81.5536 31.3678H85.2013L84.9526 32.1761H82.1754L81.7401 33.544H84.2065L83.9578 34.3523H81.4914L81.0562 35.7409H83.8541L83.6054 36.5492H79.937L81.5536 31.3678ZM85.9474 31.3678H87.7505C88.5588 31.3678 89.0977 31.6373 89.3049 32.114C89.45 32.4248 89.4914 32.7979 89.3878 33.171C89.2427 33.9171 88.6832 34.4559 87.7505 34.6425L88.5588 36.5285H87.564L86.8179 34.7254H85.7816L85.222 36.5285H84.3308L85.9474 31.3678ZM87.1495 33.9378C87.8541 33.9378 88.393 33.6684 88.4966 33.171C88.5795 32.9844 88.5795 32.8186 88.5173 32.6321C88.4344 32.3627 88.1443 32.1969 87.6469 32.1969H86.5692L86.0303 33.9378H87.1495ZM91.3567 35.6373L92.0407 35.057C92.4137 35.5336 92.849 35.7824 93.5122 35.7824C94.051 35.7824 94.4863 35.4922 94.507 35.0777C94.5277 34.7668 94.3205 34.5803 93.6365 34.2901C92.8904 33.9585 92.393 33.6062 92.4344 32.9015C92.4759 31.9274 93.3671 31.2642 94.4241 31.2642C95.2324 31.2642 95.8127 31.5751 96.2065 32.0518L95.564 32.6735C95.2116 32.2798 94.8386 32.0725 94.3205 32.0725C93.7401 32.0725 93.3878 32.4041 93.3671 32.7565C93.3464 33.0881 93.5951 33.2539 94.279 33.5647C95.0251 33.8756 95.4604 34.2487 95.4396 34.9533C95.3982 35.9689 94.4655 36.6114 93.4085 36.6114C92.4759 36.6114 91.792 36.2798 91.3567 35.6373ZM97.2635 31.3678H100.911L100.662 32.1761H97.8852L97.45 33.544H99.9163L99.6676 34.3523H97.222L96.7868 35.7409H99.5847L99.336 36.5492H95.6676L97.2635 31.3678ZM102.984 32.1969H101.409L101.657 31.3471H105.699L105.429 32.1969H103.854L102.507 36.5285H101.616L102.984 32.1969ZM107.605 32.1969H106.03L106.279 31.3471H110.32L110.072 32.1969H108.497L107.149 36.5285H106.279L107.605 32.1969ZM111.087 31.3678H111.978L110.631 35.7202H113.243L112.994 36.5492H109.512L111.087 31.3678ZM115.336 31.3678H118.984L118.735 32.1761H115.958L115.523 33.544H117.989L117.74 34.3523H115.274L114.839 35.7409H117.637L117.388 36.5492H113.719L115.336 31.3678Z" fill="#F4F4F4"/>
<path d="M117.804 15.9067C118.674 15.9067 118.716 16.6114 118.633 17.0052C118.55 17.3782 118.674 17.0052 118.55 17.4611C118.426 17.9171 117.99 19.2228 116.726 19.2228H115.565L116.56 15.9067H117.804ZM115.856 22.2694C116.726 22.2694 116.954 22.4559 116.602 23.7616L115.793 26.7875C115.669 27.2435 115.503 28.4663 115.669 28.9223H119.586C119.586 28.9223 119.503 28.0932 119.545 27.658C119.669 26.6632 120.498 23.1813 120.498 23.1813C120.809 22.0829 120.104 21.1295 119.109 20.8808L119.255 20.8394C121.576 20.0311 122.156 18.4559 122.384 17.3368C123.047 14.3109 121.514 12.8394 118.322 12.8394H113.783L108.871 28.9223H112.622L114.653 22.2694H115.876H115.856Z" fill="#F4F4F4"/>
<path d="M43.8967 15.5751L43.2542 17.9171C42.6117 20.0933 44.0004 21.8756 47.3579 21.8756C50.4045 21.8756 52.3941 20.9637 53.2853 17.9585C53.8656 16.0518 53.8242 14.7254 52.9744 13.772C52.3112 13.0259 51.2542 12.487 50.0729 11.6995C49.2646 11.1813 49.4718 10.601 49.7413 9.60621C50.0729 8.38341 50.4459 7.76165 51.3164 7.76165C52.5392 7.76165 52.1662 8.77719 51.275 11.3471H55.1921C56.2491 7.82382 56.3941 5.17098 51.5444 5.17098C48.5185 5.17098 46.591 6.95336 45.8656 9.52331C45.4719 10.8912 45.7206 12.3212 46.2387 12.9015C46.819 13.6062 48.5185 14.6632 49.4511 15.3057C50.2387 15.886 49.9278 16.8808 49.4511 18.1865C49.0366 19.285 48.4149 19.285 47.7931 19.285C46.3216 19.285 47.1506 17.4404 47.8138 15.5958L43.8967 15.5751ZM68.8501 22.9534L68.2076 25.2953C67.5651 27.4508 68.9537 29.2332 72.332 29.2332C75.3786 29.2332 77.3682 28.3212 78.2594 25.3368C78.819 23.4508 78.7775 22.1243 77.9278 21.171C77.2646 20.4249 76.2076 19.886 75.0263 19.0984C74.218 18.5803 74.4252 18 74.6947 17.0052C75.0263 15.8031 75.3993 15.1606 76.2698 15.1606C77.4926 15.1606 77.1195 16.1762 76.2283 18.7254H80.1454C81.2024 15.2228 81.3268 12.5699 76.4978 12.5699C73.4719 12.5699 71.5651 14.3523 70.819 16.9015C70.4252 18.2694 70.6739 19.6787 71.2128 20.2798C71.8138 20.9844 73.5133 22.0207 74.4459 22.6632C75.2335 23.2435 74.9226 24.2383 74.4459 25.5233C74.0314 26.6217 73.4097 26.6218 72.7879 26.6218C71.3164 26.6218 72.1454 24.7772 72.7879 22.9326L68.8501 22.9534ZM56.5807 21.7513L61.5962 5.31605H57.762L52.7257 21.7513H56.5807ZM59.1506 16.2798C58.4459 19.5751 58.9226 21.4611 62.4459 21.8342C66.0107 22.228 68.2283 20.9223 68.2283 20.9223L70.5703 12.8186H65.1195L64.2076 15.9067H65.9693L64.9744 19.0777C64.705 19.2228 64.3941 19.2435 63.7516 19.2435C62.7983 19.2435 62.2387 18.8497 62.7983 17.1088L65.0573 9.46113C65.3475 8.44558 65.8242 7.78238 66.7361 7.78238C68.332 7.78238 67.9796 8.96372 67.1713 11.3679H70.9226L71.3993 9.79274C72.2283 6.99481 70.9226 5.21242 67.7102 5.08807C64.1454 4.94299 62.4045 5.81346 60.9744 9.87564C60.9537 9.91709 59.7102 13.5648 59.1506 16.2798ZM90.2801 24.1762C89.306 27.3886 90.8812 29.171 93.9693 29.2332C98.4459 29.3161 100.042 26.8912 100.85 24.2383L104.332 12.8394H100.456L96.8915 24.5492C96.6843 25.2124 96.1662 26.3316 94.9641 26.3316C93.9278 26.3316 93.7413 25.4197 93.9693 24.6736L97.5755 12.8394H93.7206L90.2801 24.1762ZM108.104 28.9223L109.016 25.9585H104.933L106.073 22.2694H110.135L111.068 19.2228H106.985L107.98 15.9067H112.063L113.016 12.8186H105.057L100.145 28.9015H108.104V28.9223Z" fill="#F4F4F4"/>
<path d="M81.0779 28.9223L82.4043 25.9378H86.1349L86.1142 28.9223H89.5131L89.6168 12.8394H84.9743L77.2852 28.9223H81.0779Z" fill="#F4F4F4"/>
<path d="M86.1964 17.3989L83.7715 22.8497H86.1549L86.1964 17.3989Z" fill="#F4F4F4"/>
<path d="M123.234 14.3109V13.2746H123.587C123.711 13.2746 123.794 13.2953 123.835 13.316C123.877 13.3368 123.939 13.3575 123.98 13.4197C124.022 13.4611 124.022 13.5233 124.022 13.5648C124.022 13.6269 123.98 13.7098 123.939 13.772C123.898 13.8135 123.815 13.8549 123.711 13.8756C123.753 13.8964 123.773 13.9171 123.794 13.9171C123.835 13.9585 123.877 14.0207 123.939 14.1243L124.063 14.3316H123.856L123.773 14.1658C123.711 14.0207 123.628 13.9585 123.607 13.9378C123.566 13.9171 123.545 13.8964 123.462 13.8964H123.379V14.3316L123.234 14.3109ZM123.421 13.7306H123.628C123.732 13.7306 123.794 13.7098 123.835 13.6891C123.877 13.6477 123.877 13.6269 123.877 13.5648C123.877 13.5233 123.877 13.5233 123.856 13.4819C123.835 13.4611 123.815 13.4404 123.794 13.4404C123.752 13.4197 123.711 13.4197 123.628 13.4197H123.421V13.7306Z" fill="#F4F4F4"/>
<path d="M124.602 13.7927C124.602 14.3109 124.167 14.7461 123.649 14.7461C123.131 14.7461 122.695 14.3109 122.695 13.7927C122.695 13.2746 123.131 12.8394 123.649 12.8394C124.167 12.8394 124.602 13.2539 124.602 13.7927ZM123.649 12.9844C123.213 12.9844 122.84 13.3368 122.84 13.7927C122.84 14.228 123.193 14.601 123.649 14.601C124.084 14.601 124.457 14.2487 124.457 13.7927C124.457 13.3575 124.084 12.9844 123.649 12.9844Z" fill="#F4F4F4"/>
<path d="M19.5434 3.34713C28.8076 3.34713 36.3309 10.8704 36.3309 20.1347C36.3309 29.3989 28.8076 36.9223 19.5434 36.9223C10.2791 36.9223 2.75582 29.4197 2.75582 20.1347C2.75582 10.8497 10.2791 3.34713 19.5434 3.34713ZM19.5434 0.839355C8.91126 0.839355 0.248047 9.50257 0.248047 20.1347C0.248047 30.7668 8.91126 39.43 19.5434 39.43C30.1755 39.43 38.8387 30.7668 38.8387 20.1347C38.8387 9.48184 30.1755 0.839355 19.5434 0.839355Z" fill="#F4F4F4"/>
<path d="M20.539 6.39375C20.1867 6.37302 19.8551 6.35229 19.5442 6.35229C19.2126 6.35229 18.9017 6.37302 18.5494 6.39375C18.3628 6.41447 18.2178 6.55955 18.2178 6.74608V33.4818C18.2178 33.6684 18.3628 33.8342 18.5494 33.8342C18.9017 33.8549 19.2333 33.8756 19.5442 33.8756C19.8551 33.8756 20.1867 33.8549 20.539 33.8342C20.7255 33.8134 20.8706 33.6684 20.8706 33.4818V6.74608C20.8706 6.55955 20.7255 6.41447 20.539 6.39375ZM33.2644 18.9533C33.2437 18.7875 33.1193 18.6632 32.9535 18.6217C31.5235 18.3937 30.0312 18.2072 28.5183 18.0414H28.4768C28.3939 18.0414 28.311 18.0829 28.2281 18.145C28.1452 18.2072 28.1038 18.3108 28.1038 18.4145V20.3834C28.1038 20.5699 28.2489 20.715 28.4147 20.7357C29.1193 20.8186 29.824 20.9015 30.5701 20.9844C30.3214 24.3212 28.6012 27.3057 25.8447 29.2124V11.0155C27.1297 11.9274 28.2489 13.088 29.0364 14.4352C29.0986 14.5388 29.2022 14.601 29.3058 14.601C30.1141 14.6839 30.9017 14.7875 31.6478 14.8912C31.6685 14.8912 31.6893 14.8912 31.6893 14.8912C31.7929 14.8912 31.9172 14.8497 31.9794 14.7461C32.0623 14.6424 32.0831 14.4974 32.0209 14.373C30.4043 10.829 27.3369 8.13468 23.6478 6.97405C23.6064 6.95333 23.5649 6.95333 23.5442 6.95333C23.4613 6.95333 23.3991 6.97406 23.3369 7.01551C23.2333 7.07768 23.1919 7.18131 23.1919 7.30566V32.8808C23.1919 33.0051 23.254 33.1088 23.3369 33.1709C23.3991 33.2124 23.482 33.2331 23.5442 33.2331C23.5856 33.2331 23.6271 33.2331 23.6478 33.2124C28.9742 31.5336 32.8292 26.6632 33.2229 21.088C33.2437 20.6943 33.2644 20.3834 33.2644 20.0932C33.3059 19.7409 33.2851 19.3471 33.2644 18.9533ZM15.7722 17.772C15.71 17.7098 15.6064 17.6684 15.5235 17.6684H15.5027C13.14 17.772 10.8188 17.9585 8.60119 18.2279C9.0986 15.3264 10.7774 12.715 13.2022 11.0155V13.8963C13.2022 14 13.2437 14.0829 13.3266 14.1658C13.3888 14.2279 13.4717 14.2694 13.5753 14.2694H13.596C14.2385 14.2279 14.9017 14.1865 15.5442 14.1658C15.7307 14.1658 15.8965 14 15.8965 13.8134V7.32639C15.8965 7.20204 15.8343 7.09841 15.7514 7.03623C15.6893 6.99478 15.6064 6.97405 15.5442 6.97405C15.5027 6.97405 15.4613 6.97405 15.4406 6.99478C10.2799 8.63209 6.34212 13.4404 5.88616 18.7254C5.80326 19.5544 5.82398 20.4663 5.84471 20.943C5.84471 21.0466 5.88616 21.1502 5.96906 21.2124C6.03124 21.2538 6.11414 21.2953 6.19704 21.2953C6.21777 21.2953 6.23849 21.2953 6.25922 21.2953C7.91725 20.9844 11.3784 20.5906 13.2437 20.487V29.2331C11.5442 28.0518 10.2178 26.4352 9.38875 24.5492C9.32657 24.4248 9.20222 24.3212 9.05714 24.3212C9.03642 24.3212 9.03642 24.3212 9.01569 24.3212C8.31103 24.4041 7.64782 24.5077 7.00533 24.5906C6.9017 24.6114 6.79808 24.6735 6.75663 24.7564C6.69445 24.8601 6.69445 24.9637 6.7359 25.0673C8.22813 28.943 11.482 31.9896 15.4613 33.2331C15.5027 33.2538 15.5442 33.2539 15.5649 33.2539C15.6478 33.2539 15.71 33.2331 15.7722 33.1709C15.8758 33.1088 15.9172 33.0051 15.9172 32.8808V31.886V18.0207C15.8965 17.9378 15.8551 17.8549 15.7722 17.772Z" fill="#F4F4F4"/>
<path d="M33.2438 36.8809V37.1503H32.8086V38.3524H32.4977V37.1503H32.0625V36.8809H33.2438ZM34.4045 36.8809H34.8397V38.3524H34.5495V37.3575V37.2332V37.1088L34.2801 38.3524H33.99L33.7205 37.1088V38.3524H33.4304V36.8809H33.8863L34.1558 38.0415L34.4045 36.8809Z" fill="#F4F4F4"/>
</g>
<defs>
<clipPath id="clip0_712_7951">
<rect width="125" height="40" fill="white"/>
</clipPath>
</defs>
</svg>
