<svg width="127" height="40" viewBox="0 0 127 40" fill="none" xmlns="http://www.w3.org/2000/svg">
<path fill-rule="evenodd" clip-rule="evenodd" d="M30.4238 20.5111L27.142 14.195L27.0172 21.4193C27.0033 21.9679 26.9853 22.3635 26.9568 22.6084C26.928 22.8638 26.8357 23.1079 26.6884 23.3188C26.5345 23.5471 26.2952 23.7069 25.9727 23.7919C25.7098 23.8625 25.4824 23.8673 25.2875 23.8079C25.0888 23.7431 24.9112 23.6266 24.7729 23.4703C24.6075 23.2833 24.4672 23.0756 24.3554 22.8526C24.225 22.607 24.1092 22.376 24.003 22.1664L20.4743 15.0313C20.2655 14.6176 20.1352 14.2953 20.0811 14.0643C20.0103 13.7885 20.0503 13.4961 20.1927 13.2494C20.3363 12.9997 20.5492 12.8365 20.8287 12.7611C21.2143 12.6587 21.507 12.723 21.7033 12.9527C21.8974 13.1858 22.1055 13.5406 22.3254 14.0235L25.2459 20.2462L25.3339 13.6714C25.3346 13.1685 25.352 12.7811 25.3853 12.5127C25.4199 12.2409 25.5163 11.9891 25.6793 11.756C25.8416 11.5201 26.0982 11.3569 26.4519 11.2628C26.8077 11.168 27.108 11.1881 27.3494 11.3223C27.5907 11.4558 27.7752 11.6246 27.9056 11.8245C28.0332 12.0251 28.2205 12.3606 28.4694 12.8358L31.4662 18.5881L31.2915 11.6336C31.2763 11.3472 31.2763 11.0602 31.2915 10.7738C31.3046 10.5635 31.365 10.3601 31.4739 10.1692C31.5834 9.97551 31.7756 9.84339 32.053 9.76868C32.1821 9.73161 32.3177 9.72224 32.4507 9.74119C32.5838 9.76015 32.7113 9.80701 32.8249 9.87867C33.0642 10.0239 33.2195 10.2453 33.2889 10.542C33.3388 10.7551 33.3658 11.1023 33.37 11.5928L33.4116 19.6575C33.4123 20.2019 33.4005 20.6045 33.379 20.8653C33.3563 21.1265 33.2694 21.3781 33.1259 21.5978C32.9809 21.8288 32.7361 21.9879 32.3921 22.0799C32.0703 22.1664 31.7894 22.1491 31.5529 22.0246C31.3316 21.9158 31.1433 21.7504 31.0071 21.5452C30.8021 21.2066 30.6076 20.8617 30.4238 20.5111ZM40.397 16.6887L43.6316 16.8146L42.1551 11.7816L40.397 16.6887ZM44.6324 20.2005L44.1629 18.6691L39.7651 18.4975L39.2006 20.0228C38.9773 20.6176 38.7935 21.0175 38.643 21.2229C38.496 21.4269 38.2581 21.5245 37.9328 21.512C37.6582 21.501 37.4175 21.3799 37.2129 21.1475C37.009 20.9151 36.9105 20.6557 36.9195 20.3693C36.9251 20.2074 36.9556 20.0373 37.0083 19.8643C37.0645 19.6907 37.1526 19.4493 37.2753 19.1429L40.2895 11.4288C40.3748 11.2075 40.4781 10.9418 40.5995 10.632C40.7202 10.3193 40.8443 10.0634 40.9768 9.86068C41.1063 9.66086 41.2815 9.49446 41.4879 9.37509C41.6967 9.25404 41.9505 9.1994 42.2501 9.21116C42.5546 9.22292 42.807 9.29762 43.0068 9.43458C43.2072 9.57154 43.3681 9.74309 43.4874 9.94991C43.6046 10.1567 43.7038 10.3795 43.7842 10.616C43.8626 10.8519 43.9611 11.1673 44.0824 11.5596L46.6652 19.4431C46.8677 20.0428 46.9655 20.4765 46.9572 20.7456C46.9482 21.0237 46.8344 21.2755 46.618 21.4996C46.4016 21.7251 46.1464 21.8316 45.8517 21.8212C45.6969 21.8201 45.5452 21.7781 45.412 21.6995C45.2906 21.6275 45.19 21.5321 45.1103 21.4103C45.0305 21.2886 44.9459 21.1039 44.8578 20.8549C44.7711 20.6073 44.6948 20.3907 44.6324 20.2005ZM54.0667 11.9836L52.4805 20.4329L56.6903 21.4477C57.0246 21.5272 57.2653 21.6815 57.4088 21.9112C57.5559 22.138 57.6009 22.3919 57.5482 22.6707C57.4948 22.957 57.3631 23.1666 57.1536 23.3015C56.9435 23.435 56.6667 23.462 56.3283 23.3797L51.314 22.1733C50.8632 22.064 50.5573 21.8717 50.402 21.5978C50.2466 21.3225 50.2175 20.9317 50.3125 20.4267L51.9909 11.4842C52.0797 11.011 52.242 10.6769 52.475 10.4853C52.708 10.2923 52.9792 10.2335 53.2871 10.3075C53.5971 10.3815 53.8281 10.5593 53.9772 10.8409C54.1263 11.1217 54.1561 11.5049 54.0667 11.9836ZM68.1684 17.3742L65.8423 16.4915L63.2096 24.9181C63.0584 25.4016 62.8476 25.726 62.5778 25.8865C62.308 26.047 62.0167 26.0663 61.706 25.9487C61.5556 25.8949 61.4187 25.8089 61.305 25.6969C61.1914 25.5848 61.1036 25.4493 61.0478 25.2999C60.9237 24.9865 60.9355 24.5895 61.0853 24.1108L63.718 15.685L61.3918 14.803C61.027 14.6647 60.785 14.4731 60.6636 14.2303C60.5402 13.984 60.5242 13.7184 60.6158 13.4265C60.7094 13.1263 60.8765 12.9243 61.1144 12.8212C61.353 12.7154 61.6471 12.7299 61.9973 12.8634L68.7732 15.4346C69.1429 15.575 69.387 15.7673 69.5111 16.017C69.6346 16.2626 69.6519 16.5323 69.5624 16.8215C69.4702 17.1134 69.3051 17.3105 69.068 17.4191C68.8335 17.527 68.5332 17.5125 68.1684 17.3742ZM74.1218 18.0541L73.4921 21.5411L78.0146 22.6707L78.6444 19.1851C78.7352 18.6898 78.8989 18.3398 79.1333 18.1385C79.3691 17.9365 79.641 17.875 79.9531 17.9517C80.2659 18.0299 80.4989 18.2153 80.6494 18.5113C80.7999 18.806 80.8311 19.2079 80.7403 19.7087L79.0078 29.2918C78.9169 29.7933 78.7505 30.144 78.5077 30.3439C78.265 30.5438 77.9876 30.6047 77.679 30.5279C77.5281 30.4933 77.3874 30.4242 77.268 30.326C77.1486 30.2278 77.0538 30.1032 76.991 29.9621C76.8488 29.6633 76.8231 29.2662 76.9126 28.7675L77.6519 24.678L73.1293 23.5485L72.39 27.6365C72.2992 28.1408 72.1327 28.4901 71.89 28.69C71.6472 28.8899 71.3698 28.9508 71.0626 28.874C70.747 28.7945 70.5168 28.6063 70.3746 28.3082C70.2324 28.0101 70.2054 27.6109 70.2962 27.1122L72.0273 17.5305C72.1181 17.0352 72.279 16.6845 72.5093 16.4818C72.7396 16.2792 73.0149 16.2176 73.3353 16.2978C73.6481 16.376 73.8811 16.5614 74.0316 16.8567C74.1814 17.1514 74.2126 17.5526 74.1218 18.0541ZM91.5553 20.9248H87.0015V24.0444H91.1954C91.504 24.0444 91.7343 24.1323 91.8861 24.308C92.0366 24.485 92.1136 24.7161 92.1136 25.0052C92.1136 25.2957 92.0394 25.5295 91.8903 25.7115C91.7398 25.8927 91.5068 25.9847 91.1954 25.9847H87.0015V29.5976H91.7114C92.0297 29.5976 92.2697 29.6923 92.4292 29.8784C92.5915 30.0672 92.6705 30.3162 92.6705 30.6268C92.6705 30.9284 92.5922 31.1698 92.4292 31.3608C92.2697 31.5461 92.0297 31.6402 91.7114 31.6402H86.2185C85.7795 31.6402 85.4612 31.5171 85.2691 31.2687C85.0756 31.0204 84.9806 30.6178 84.9806 30.0652V20.5166C84.9806 20.1466 85.0249 19.845 85.1109 19.6112C85.1976 19.3774 85.3315 19.2065 85.516 19.1C85.6991 18.9935 85.9335 18.9409 86.2192 18.9409H91.556C91.8799 18.9409 92.1185 19.0322 92.2738 19.2127C92.4299 19.3961 92.5096 19.6319 92.5096 19.928C92.5096 20.231 92.4299 20.4696 92.2738 20.6536C92.1178 20.8328 91.8792 20.9248 91.5553 20.9248ZM100.047 20.0802L97.9366 20.5664L98.653 23.6619L100.7 23.1901C101.25 23.0642 101.7 22.9107 102.056 22.7295C102.406 22.5496 102.655 22.32 102.799 22.0474C102.944 21.7742 102.971 21.4394 102.877 21.0382C102.816 20.7441 102.666 20.4756 102.448 20.2683C102.231 20.0641 101.957 19.9306 101.662 19.8858C101.37 19.8339 100.833 19.8996 100.047 20.0802ZM99.8334 25.1131L99.0331 25.2985L99.8702 28.9155C99.9798 29.39 99.9555 29.7656 99.7974 30.0396C99.6399 30.3128 99.3896 30.4892 99.0511 30.5667C98.6884 30.6504 98.3777 30.5992 98.1232 30.4083C97.8686 30.2173 97.6897 29.8978 97.5843 29.4426L95.5779 20.7802C95.4655 20.2898 95.4926 19.9072 95.6632 19.6368C95.8324 19.3656 96.1646 19.1733 96.6563 19.0606L100.374 18.2049C100.813 18.0991 101.258 18.0197 101.706 17.967C102.055 17.9243 102.408 17.9371 102.753 18.005C103.14 18.072 103.51 18.2149 103.841 18.4256C104.176 18.6407 104.457 18.9132 104.682 19.248C104.908 19.5794 105.07 19.9515 105.164 20.3624C105.357 21.2014 105.276 21.9271 104.918 22.5378C104.559 23.15 103.92 23.6702 103.004 24.1025C103.459 24.2229 103.922 24.4539 104.389 24.7873C104.854 25.1221 105.289 25.4915 105.687 25.8989C106.086 26.307 106.412 26.6826 106.662 27.0243C106.91 27.3702 107.052 27.6137 107.086 27.7555C107.12 27.9056 107.106 28.0619 107.045 28.2314C106.984 28.3974 106.883 28.542 106.736 28.6679C106.579 28.7951 106.394 28.8831 106.196 28.9245C105.941 28.9826 105.71 28.9729 105.508 28.892C105.306 28.8111 105.122 28.6949 104.952 28.5392C104.713 28.3133 104.479 28.0808 104.252 27.842L102.983 26.5325C102.525 26.0504 102.132 25.6935 101.807 25.4611C101.479 25.23 101.171 25.0924 100.878 25.046C100.588 24.9983 100.238 25.0197 99.8334 25.1131Z" fill="#F4F4F4"/>
<path d="M2.55861 15.6325C2.54751 15.1164 8.10347 10.1437 17.5467 6.63663C23.3153 4.49129 29.3527 3.14872 35.4886 2.64679C50.1397 1.46464 58.0155 4.61473 64.1901 7.08348C66.2028 7.88865 68.0275 8.61841 69.8411 9.08048C71.2566 9.44087 72.668 9.86489 74.0891 10.2917C79.835 12.0168 85.7641 13.7959 94.6213 11.8439C98.1362 11.0692 100.826 10.2087 102.928 9.32051C104.983 8.4524 106.47 7.55662 107.622 6.69128C108.638 5.92762 109.41 5.24696 110.001 4.7261C111.261 3.6145 111.993 2.96844 112.929 3.62834C113.05 3.71411 113.836 5.09755 114.271 6.72656C114.495 7.57046 114.683 8.52918 114.73 9.47545C114.805 10.9613 114.601 12.3413 114.371 13.9066C114.22 14.9228 114.058 16.0254 113.957 17.3673C113.946 17.5139 114.382 17.3728 114.983 17.6765C116.248 18.3163 118.091 18.9915 119.656 19.5013C122.116 20.3016 124.092 24.1399 124.377 24.9354L124.448 24.9492C124.419 25.0952 124.384 25.163 124.351 25.2301L124.346 25.2342C124.293 25.3394 117.535 30.0535 109.354 33.4567C105.207 35.1819 100.642 36.6449 96.3101 37.1422C90.0627 37.8581 83.6669 37.735 77.4555 36.8773C71.0943 35.9981 64.9274 34.3442 59.3118 32.0256C53.9507 29.8114 49.2436 28.4466 44.6448 27.8794C40.0674 27.3149 35.5843 27.5404 30.6491 28.5047C28.2619 28.9723 26.0502 29.7235 24.1 30.5612C22.3779 31.3056 20.7097 32.1681 19.1072 33.1427C17.5129 34.1056 15.9235 35.0765 14.3391 36.0555C14.1401 36.1786 13.5353 36.2284 13.3182 36.1378C13.312 36.1351 11.2001 35.2974 10.9407 31.7392C10.8319 30.252 10.9879 28.1498 11.1273 26.2836C11.2577 24.5259 11.3707 23.0034 11.3444 22.9599C11.2542 22.8139 10.7764 22.475 10.0794 22.0316C9.11049 21.4139 7.86143 20.7208 6.61929 20.0809C5.47079 19.4888 4.62606 18.8324 4.02198 18.2236C2.96017 17.1536 2.56832 16.0689 2.55861 15.6325ZM111.805 6.14205C110.865 6.91955 109.949 7.73854 108.971 8.47454C107.699 9.4298 106.059 10.4183 103.796 11.3742C101.58 12.3108 98.7638 13.2135 95.104 14.0208C85.667 16.1001 79.4626 14.238 73.4496 12.4333C72.0736 12.0203 70.7067 11.6101 69.2884 11.2483C67.3652 10.7586 65.4593 9.99563 63.3572 9.15518C57.4094 6.77636 49.8214 3.74178 35.6634 4.8845C29.7349 5.36435 23.901 6.65665 18.3263 8.72494C9.82137 11.8833 4.79459 15.3122 4.80083 15.5889C4.80291 15.6864 5.01583 16.0551 5.60742 16.6514C6.07001 17.1176 6.72887 17.626 7.64365 18.0978C8.99051 18.7929 10.3131 19.5234 11.2882 20.1439C12.2356 20.7464 12.9541 21.3205 13.2461 21.7909C13.665 22.4667 13.5284 24.3122 13.3702 26.4427C13.2371 28.2342 13.0873 30.2541 13.1844 31.5835C13.2717 32.7913 13.5693 33.4263 13.8162 33.7535C15.1877 32.9062 16.563 32.0651 17.942 31.2301C19.6344 30.2023 21.3963 29.293 23.215 28.5088C25.2929 27.6158 27.6565 26.8134 30.2198 26.3133C35.3915 25.3013 40.0993 25.0661 44.9166 25.661C49.7118 26.2524 54.6033 27.6684 60.1621 29.9642C65.6008 32.2109 71.584 33.813 77.762 34.6672C83.7861 35.5008 89.9926 35.6184 96.057 34.9239C100.154 34.4535 104.515 33.0514 108.495 31.3961C115.651 28.4196 121.404 24.8732 122.242 24.3073C121.984 23.9075 120.522 22.1332 118.965 21.6255C117.318 21.0894 115.36 20.3707 113.975 19.6693C112.576 18.9624 111.647 18.1344 111.714 17.211C111.814 15.8925 111.99 14.691 112.153 13.5836C112.366 12.1462 112.553 10.8803 112.486 9.57991C112.427 8.39775 112.094 7.00048 111.805 6.14205Z" fill="#F4F4F4"/>
</svg>
