<svg width="18" height="21" viewBox="0 0 18 21" fill="none" xmlns="http://www.w3.org/2000/svg">
<path d="M5 2.49994V14.4999C5 15.0304 5.21071 15.5391 5.58579 15.9142C5.96086 16.2892 6.46957 16.4999 7 16.4999H15C15.5304 16.4999 16.0391 16.2892 16.4142 15.9142C16.7893 15.5391 17 15.0304 17 14.4999V5.74194C17 5.4755 16.9467 5.21175 16.8433 4.96618C16.7399 4.72062 16.5885 4.49818 16.398 4.31194L13.083 1.06994C12.7094 0.704597 12.2076 0.500004 11.685 0.499939H7C6.46957 0.499939 5.96086 0.710653 5.58579 1.08573C5.21071 1.4608 5 1.96951 5 2.49994V2.49994Z" stroke="#6F7B8A" stroke-linecap="round" stroke-linejoin="round"/>
<path d="M13 16.4999V18.4999C13 19.0304 12.7893 19.5391 12.4142 19.9142C12.0391 20.2892 11.5304 20.4999 11 20.4999H3C2.46957 20.4999 1.96086 20.2892 1.58579 19.9142C1.21071 19.5391 1 19.0304 1 18.4999V7.49994C1 6.96951 1.21071 6.4608 1.58579 6.08573C1.96086 5.71065 2.46957 5.49994 3 5.49994H5" stroke="#6F7B8A" stroke-linecap="round" stroke-linejoin="round"/>
</svg>
