<svg width="89" height="75" viewBox="0 0 89 75" fill="none" xmlns="http://www.w3.org/2000/svg">
<path fill-rule="evenodd" clip-rule="evenodd" d="M35.8946 61.239C48.0123 61.239 57.8355 50.8323 57.8355 37.9947C57.8355 25.1574 48.0123 14.7506 35.8946 14.7506C23.7769 14.7506 13.9537 25.1574 13.9537 37.9947C13.9537 50.8323 23.7769 61.239 35.8946 61.239ZM35.8946 65.0385C49.9929 65.0385 61.422 52.9307 61.422 37.9947C61.422 23.059 49.9929 10.951 35.8946 10.951C21.7963 10.951 10.3672 23.059 10.3672 37.9947C10.3672 52.9307 21.7963 65.0385 35.8946 65.0385Z" fill="#3C3C3C"/>
<path fill-rule="evenodd" clip-rule="evenodd" d="M36.0002 69.2851C52.2542 69.2851 65.4306 55.326 65.4306 38.1065C65.4306 20.8871 52.2542 6.92797 36.0002 6.92797C19.7462 6.92797 6.56983 20.8871 6.56983 38.1065C6.56983 55.326 19.7462 69.2851 36.0002 69.2851ZM36.0002 72.6376C54.0019 72.6376 68.5951 57.1775 68.5951 38.1065C68.5951 19.0355 54.0019 3.57544 36.0002 3.57544C17.9985 3.57544 3.40527 19.0355 3.40527 38.1065C3.40527 57.1775 17.9985 72.6376 36.0002 72.6376Z" fill="#B50E1B"/>
<path d="M87.5822 25.2551H64.3755H64.059L58.2573 35.9832H74.8185L75.9788 34.4024H87.5822C88.0483 34.4024 88.4261 34.0021 88.4261 33.5084V26.1491C88.4261 25.6554 88.0483 25.2551 87.5822 25.2551Z" fill="#303030"/>
<path fill-rule="evenodd" clip-rule="evenodd" d="M63.9368 25.0316H87.5824C88.1649 25.0316 88.6372 25.532 88.6372 26.1491V33.5084C88.6372 34.1254 88.1649 34.6259 87.5824 34.6259H76.0822L74.9218 36.2067H57.8936L63.9368 25.0316ZM64.1815 25.4786L58.6214 35.7597H74.7155L75.8758 34.1789H87.5824C87.932 34.1789 88.2153 33.8785 88.2153 33.5084V26.1491C88.2153 25.7788 87.932 25.4786 87.5824 25.4786H64.1815Z" fill="black"/>
<path d="M82.941 29.9486H61.5275L60.7891 31.2897H84.4178C84.4178 30.485 83.6441 30.0604 82.941 29.9486Z" fill="#171717"/>
<path d="M61.5274 29.9486H82.9409C83.3114 30.0076 83.7015 30.1534 83.9875 30.3956H83.9958C83.988 30.3961 83.9958 30.3956 83.9958 30.4028C83.993 30.4003 83.9903 30.3981 83.9875 30.3956H61.1055L61.5274 29.9486Z" fill="#222222"/>
<path d="M42.6456 25.2551L32.9409 43.5823H37.7932L45.3882 30.0604H48.4472L40.7468 43.5823H45.9156L53.5105 30.0604H56.3586L48.7637 43.5823H54.2489L64.1646 25.2551H42.6456Z" fill="#B50E1B"/>
<path fill-rule="evenodd" clip-rule="evenodd" d="M42.5219 25.0316H64.5287L54.3711 43.8058H48.3926L55.9875 30.2839H53.6306L46.0356 43.8058H40.3732L48.0736 30.2839H45.5082L37.9133 43.8058H32.5806L42.5219 25.0316ZM42.7692 25.4786L33.3012 43.3588H37.6732L45.2681 29.8369H48.8209L41.1204 43.3588H45.7955L53.3905 29.8369H56.7297L49.1348 43.3588H54.1268L63.8004 25.4786H42.7692Z" fill="black"/>
<path d="M39.9031 25.2551H26.2955L24.1858 29.6134H32.6246L21.7596 50.1756H18.3841L21.7596 44.0293H16.6963L10.3672 54.9809H24.1858L39.9031 25.2551Z" fill="#B50E1B"/>
<path fill-rule="evenodd" clip-rule="evenodd" d="M26.1667 25.0316H40.2631L24.3095 55.2044H9.99072L16.5783 43.8058H22.1266L18.7511 49.9521H21.6361L32.2648 29.8369H23.8405L26.1667 25.0316ZM26.4245 25.4786L24.5312 29.3899H32.9846L21.8833 50.3991H18.0173L21.3928 44.2528H16.8146L10.7439 54.7574H24.0622L39.5433 25.4786H26.4245Z" fill="black"/>
<path d="M0.662598 35.3127C0.662598 35.066 0.851416 34.8657 1.08454 34.8657H11.4221C11.6552 34.8657 11.844 35.066 11.844 35.3127V39.3357C11.844 39.5827 11.6552 39.7827 11.4221 39.7827H1.08454C0.851416 39.7827 0.662598 39.5827 0.662598 39.3357V35.3127Z" fill="#3C3C3C"/>
<path d="M34.2066 11.8456C33.9735 11.8456 33.7847 11.6455 33.7847 11.3986V0.447005C33.7847 0.200131 33.9735 0 34.2066 0H38.0041C38.2372 0 38.426 0.200131 38.426 0.447005V11.3986C38.426 11.6455 38.2372 11.8456 38.0041 11.8456H34.2066Z" fill="#3C3C3C"/>
<path d="M34.2066 74.8726C33.9735 74.8726 33.7847 74.6726 33.7847 74.4256V63.474C33.7847 63.2272 33.9735 63.027 34.2066 63.027H37.7931C38.0262 63.027 38.215 63.2272 38.215 63.474V74.4256C38.215 74.6726 38.0262 74.8726 37.7931 74.8726H34.2066Z" fill="#3C3C3C"/>
<path d="M35.4727 46.0408C35.4727 45.7941 35.6615 45.5938 35.8946 45.5938H36.1056C36.3387 45.5938 36.5275 45.7941 36.5275 46.0408V61.239C36.5275 61.4859 36.3387 61.686 36.1056 61.686H35.8946C35.6615 61.686 35.4727 61.4859 35.4727 61.239V46.0408Z" fill="#3C3C3C"/>
<path d="M35.4727 8.269C35.4727 8.02211 35.6615 7.82199 35.8946 7.82199H36.1056C36.3387 7.82199 36.5275 8.02211 36.5275 8.269V23.4671C36.5275 23.7141 36.3387 23.9141 36.1056 23.9141H35.8946C35.6615 23.9141 35.4727 23.7141 35.4727 23.4671V8.269Z" fill="#3C3C3C"/>
<path d="M26.6119 36.4302L25.768 37.9947H10.5781V36.4302H26.6119Z" fill="#3C3C3C"/>
</svg>
