<svg width="219" height="35" viewBox="0 0 219 35" fill="none" xmlns="http://www.w3.org/2000/svg">
<g clip-path="url(#clip0_502_4793)">
<path d="M2.45333 26.8026L0.00614675 24.273L16.6568 7.06127C17.1337 6.56829 17.6999 6.17724 18.323 5.91044C18.9461 5.64364 19.614 5.50632 20.2884 5.50632C20.9629 5.50632 21.6307 5.64364 22.2539 5.91044C22.877 6.17724 23.4432 6.56829 23.9201 7.06127L26.3673 9.59092L9.71332 26.806C8.74986 27.8002 7.44398 28.3582 6.08265 28.3576C4.72133 28.357 3.41594 27.7977 2.45333 26.8026Z" fill="#F15A24"/>
<path d="M21.3718 26.8022L18.9246 24.2725L35.5753 7.06079C36.5384 6.06516 37.8448 5.50583 39.2069 5.50583C40.569 5.50583 41.8754 6.06516 42.8385 7.06078L45.2857 9.59043L28.6318 26.8055C27.6683 27.7997 26.3624 28.3577 25.0011 28.3571C23.6398 28.3565 22.3344 27.7972 21.3718 26.8022Z" fill="#F15A24"/>
<path d="M39.9632 24.3115C39.9632 27.177 42.2104 29.5 44.9826 29.5C47.7547 29.5 50.002 27.177 50.002 24.3115C50.002 21.446 47.7547 19.123 44.9826 19.123C42.2104 19.123 39.9632 21.446 39.9632 24.3115Z" fill="#F15A24"/>
</g>
<path d="M80.51 18.62C80.51 17.784 80.378 17.0727 80.114 16.486C79.8647 15.8847 79.498 15.43 79.014 15.122C78.53 14.814 77.9433 14.66 77.254 14.66C76.5793 14.66 75.978 14.8213 75.45 15.144C74.922 15.452 74.482 15.9213 74.13 16.552C73.8953 15.9507 73.5213 15.4887 73.008 15.166C72.5093 14.8287 71.908 14.66 71.204 14.66C70.5733 14.66 70.0233 14.7993 69.554 15.078C69.0993 15.3567 68.718 15.782 68.41 16.354V14.88H66.65V25H68.41V18.84C68.41 18.312 68.5053 17.8573 68.696 17.476C68.8867 17.0947 69.158 16.8087 69.51 16.618C69.862 16.4127 70.28 16.31 70.764 16.31C71.424 16.31 71.908 16.5153 72.216 16.926C72.5387 17.3367 72.7 17.9747 72.7 18.84V25H74.46V18.84C74.46 18.312 74.5553 17.8573 74.746 17.476C74.9367 17.0947 75.208 16.8087 75.56 16.618C75.912 16.4127 76.33 16.31 76.814 16.31C77.474 16.31 77.958 16.5153 78.266 16.926C78.5887 17.3367 78.75 17.9747 78.75 18.84V25H80.51V18.62ZM85.488 21.876C85.488 21.5093 85.576 21.194 85.752 20.93C85.928 20.666 86.192 20.4607 86.544 20.314C86.9107 20.1673 87.38 20.094 87.952 20.094C88.568 20.094 89.1473 20.1747 89.69 20.336C90.2327 20.4827 90.7607 20.732 91.274 21.084V20.05C91.1713 19.918 90.9733 19.7493 90.68 19.544C90.3867 19.324 89.9907 19.1333 89.492 18.972C89.008 18.796 88.3993 18.708 87.666 18.708C86.4193 18.708 85.444 19.0087 84.74 19.61C84.0507 20.1967 83.706 20.9813 83.706 21.964C83.706 22.6533 83.8673 23.24 84.19 23.724C84.5127 24.208 84.938 24.582 85.466 24.846C86.0087 25.0953 86.588 25.22 87.204 25.22C87.7613 25.22 88.3187 25.1173 88.876 24.912C89.448 24.7067 89.9247 24.3913 90.306 23.966C90.702 23.5407 90.9 23.0053 90.9 22.36L90.548 21.04C90.548 21.568 90.416 22.0373 90.152 22.448C89.9027 22.844 89.558 23.152 89.118 23.372C88.6927 23.592 88.2087 23.702 87.666 23.702C87.2407 23.702 86.8593 23.636 86.522 23.504C86.1993 23.3573 85.9427 23.1447 85.752 22.866C85.576 22.5873 85.488 22.2573 85.488 21.876ZM85.224 17.212C85.3853 17.0947 85.6053 16.9553 85.884 16.794C86.1627 16.6327 86.5 16.4933 86.896 16.376C87.3067 16.2587 87.7613 16.2 88.26 16.2C88.568 16.2 88.8613 16.2293 89.14 16.288C89.4187 16.3467 89.6607 16.442 89.866 16.574C90.086 16.706 90.2547 16.8893 90.372 17.124C90.4893 17.344 90.548 17.63 90.548 17.982V25H92.308V17.74C92.308 17.08 92.1393 16.5227 91.802 16.068C91.4793 15.6133 91.0173 15.2687 90.416 15.034C89.8293 14.7847 89.14 14.66 88.348 14.66C87.4093 14.66 86.6027 14.7993 85.928 15.078C85.268 15.3567 84.7473 15.6353 84.366 15.914L85.224 17.212ZM97.9278 14.88H96.1678V25H97.9278V14.88ZM100.986 16.816L101.954 15.364C101.69 15.0853 101.396 14.902 101.074 14.814C100.766 14.7113 100.428 14.66 100.062 14.66C99.5925 14.66 99.1305 14.8433 98.6758 15.21C98.2211 15.5767 97.8471 16.0753 97.5538 16.706C97.2751 17.322 97.1358 18.0333 97.1358 18.84H97.9278C97.9278 18.356 97.9718 17.9233 98.0598 17.542C98.1625 17.1607 98.3385 16.86 98.5878 16.64C98.8371 16.42 99.1818 16.31 99.6218 16.31C99.9151 16.31 100.157 16.354 100.348 16.442C100.538 16.5153 100.751 16.64 100.986 16.816ZM104.479 7.84V25H106.239V7.84H104.479ZM109.979 14.88L105.579 19.06L110.419 25H112.619L107.779 19.06L112.179 14.88H109.979ZM116.703 21.04V14.88H114.943V21.26C114.943 22.4627 115.259 23.4233 115.889 24.142C116.52 24.8607 117.363 25.22 118.419 25.22C119.094 25.22 119.681 25.0733 120.179 24.78C120.678 24.472 121.096 24.0173 121.433 23.416V25H123.193V14.88H121.433V21.04C121.433 21.5387 121.323 21.9787 121.103 22.36C120.898 22.7413 120.597 23.042 120.201 23.262C119.82 23.4673 119.373 23.57 118.859 23.57C118.155 23.57 117.62 23.35 117.253 22.91C116.887 22.47 116.703 21.8467 116.703 21.04ZM129.032 29.84V14.88H127.272V29.84H129.032ZM137.502 19.94C137.502 18.84 137.275 17.9013 136.82 17.124C136.365 16.332 135.757 15.7233 134.994 15.298C134.246 14.8727 133.41 14.66 132.486 14.66C131.65 14.66 130.909 14.8727 130.264 15.298C129.633 15.7233 129.135 16.332 128.768 17.124C128.416 17.9013 128.24 18.84 128.24 19.94C128.24 21.0253 128.416 21.964 128.768 22.756C129.135 23.548 129.633 24.1567 130.264 24.582C130.909 25.0073 131.65 25.22 132.486 25.22C133.41 25.22 134.246 25.0073 134.994 24.582C135.757 24.1567 136.365 23.548 136.82 22.756C137.275 21.964 137.502 21.0253 137.502 19.94ZM135.72 19.94C135.72 20.7173 135.559 21.3773 135.236 21.92C134.928 22.4627 134.51 22.8733 133.982 23.152C133.469 23.4307 132.897 23.57 132.266 23.57C131.753 23.57 131.247 23.4307 130.748 23.152C130.249 22.8733 129.839 22.4627 129.516 21.92C129.193 21.3773 129.032 20.7173 129.032 19.94C129.032 19.1627 129.193 18.5027 129.516 17.96C129.839 17.4173 130.249 17.0067 130.748 16.728C131.247 16.4493 131.753 16.31 132.266 16.31C132.897 16.31 133.469 16.4493 133.982 16.728C134.51 17.0067 134.928 17.4173 135.236 17.96C135.559 18.5027 135.72 19.1627 135.72 19.94ZM144.725 25.22C145.81 25.22 146.749 25.0073 147.541 24.582C148.348 24.142 149.015 23.4967 149.543 22.646L148.113 21.744C147.746 22.36 147.299 22.822 146.771 23.13C146.243 23.4233 145.634 23.57 144.945 23.57C144.256 23.57 143.669 23.4233 143.185 23.13C142.701 22.8367 142.334 22.4113 142.085 21.854C141.836 21.2967 141.711 20.622 141.711 19.83C141.726 19.0527 141.858 18.4 142.107 17.872C142.371 17.3293 142.738 16.9187 143.207 16.64C143.691 16.3467 144.27 16.2 144.945 16.2C145.517 16.2 146.016 16.3247 146.441 16.574C146.866 16.8233 147.196 17.168 147.431 17.608C147.68 18.048 147.805 18.5687 147.805 19.17C147.805 19.2727 147.783 19.4047 147.739 19.566C147.695 19.7127 147.651 19.8227 147.607 19.896L148.311 18.884H141.051V20.38H149.697C149.697 20.3507 149.697 20.2847 149.697 20.182C149.712 20.0647 149.719 19.9547 149.719 19.852C149.719 18.7813 149.528 17.8573 149.147 17.08C148.766 16.3027 148.216 15.7087 147.497 15.298C146.793 14.8727 145.942 14.66 144.945 14.66C143.948 14.66 143.068 14.88 142.305 15.32C141.557 15.76 140.97 16.376 140.545 17.168C140.134 17.96 139.929 18.884 139.929 19.94C139.929 20.9813 140.127 21.898 140.523 22.69C140.934 23.482 141.498 24.1053 142.217 24.56C142.95 25 143.786 25.22 144.725 25.22ZM154.771 14.88H153.011V25H154.771V14.88ZM157.829 16.816L158.797 15.364C158.533 15.0853 158.24 14.902 157.917 14.814C157.609 14.7113 157.272 14.66 156.905 14.66C156.436 14.66 155.974 14.8433 155.519 15.21C155.065 15.5767 154.691 16.0753 154.397 16.706C154.119 17.322 153.979 18.0333 153.979 18.84H154.771C154.771 18.356 154.815 17.9233 154.903 17.542C155.006 17.1607 155.182 16.86 155.431 16.64C155.681 16.42 156.025 16.31 156.465 16.31C156.759 16.31 157.001 16.354 157.191 16.442C157.382 16.5153 157.595 16.64 157.829 16.816ZM161.85 21.898L160.464 22.756C160.655 23.152 160.934 23.5407 161.3 23.922C161.682 24.3033 162.144 24.6187 162.686 24.868C163.229 25.1027 163.838 25.22 164.512 25.22C165.554 25.22 166.39 24.9267 167.02 24.34C167.666 23.7533 167.988 23.02 167.988 22.14C167.988 21.5387 167.842 21.0473 167.548 20.666C167.27 20.2847 166.888 19.962 166.404 19.698C165.92 19.4193 165.385 19.1627 164.798 18.928C164.446 18.7813 164.109 18.6273 163.786 18.466C163.464 18.3047 163.2 18.1213 162.994 17.916C162.789 17.7107 162.686 17.476 162.686 17.212C162.686 16.8747 162.818 16.6253 163.082 16.464C163.346 16.3027 163.662 16.222 164.028 16.222C164.556 16.222 165.026 16.3467 165.436 16.596C165.862 16.8453 166.214 17.1607 166.492 17.542L167.9 16.64C167.695 16.2587 167.409 15.9213 167.042 15.628C166.676 15.3347 166.25 15.1 165.766 14.924C165.297 14.748 164.791 14.66 164.248 14.66C163.706 14.66 163.178 14.7553 162.664 14.946C162.166 15.1367 161.755 15.43 161.432 15.826C161.124 16.222 160.97 16.7207 160.97 17.322C160.97 17.9087 161.117 18.4 161.41 18.796C161.718 19.1773 162.092 19.4927 162.532 19.742C162.987 19.9767 163.434 20.182 163.874 20.358C164.27 20.5047 164.644 20.666 164.996 20.842C165.348 21.0033 165.634 21.2087 165.854 21.458C166.089 21.6927 166.206 21.986 166.206 22.338C166.206 22.734 166.06 23.0493 165.766 23.284C165.488 23.504 165.099 23.614 164.6 23.614C164.19 23.614 163.808 23.5407 163.456 23.394C163.119 23.2327 162.818 23.02 162.554 22.756C162.29 22.492 162.056 22.206 161.85 21.898ZM171.625 24.12C171.625 24.4427 171.743 24.7287 171.977 24.978C172.227 25.2127 172.513 25.33 172.835 25.33C173.173 25.33 173.459 25.2127 173.693 24.978C173.928 24.7287 174.045 24.4427 174.045 24.12C174.045 23.7827 173.928 23.4967 173.693 23.262C173.459 23.0273 173.173 22.91 172.835 22.91C172.513 22.91 172.227 23.0273 171.977 23.262C171.743 23.4967 171.625 23.7827 171.625 24.12ZM179.453 19.94C179.453 19.236 179.6 18.6127 179.893 18.07C180.201 17.5127 180.612 17.08 181.125 16.772C181.653 16.464 182.247 16.31 182.907 16.31C183.45 16.31 183.956 16.398 184.425 16.574C184.909 16.7353 185.327 16.9553 185.679 17.234C186.031 17.5127 186.28 17.8207 186.427 18.158V15.958C186.075 15.5473 185.569 15.232 184.909 15.012C184.264 14.7773 183.596 14.66 182.907 14.66C181.924 14.66 181.037 14.8873 180.245 15.342C179.453 15.7967 178.822 16.42 178.353 17.212C177.898 18.004 177.671 18.9133 177.671 19.94C177.671 20.952 177.898 21.8613 178.353 22.668C178.822 23.46 179.453 24.0833 180.245 24.538C181.037 24.9927 181.924 25.22 182.907 25.22C183.596 25.22 184.264 25.11 184.909 24.89C185.569 24.6553 186.075 24.3327 186.427 23.922V21.722C186.28 22.0447 186.031 22.3527 185.679 22.646C185.327 22.9247 184.909 23.152 184.425 23.328C183.956 23.4893 183.45 23.57 182.907 23.57C182.247 23.57 181.653 23.416 181.125 23.108C180.612 22.7853 180.201 22.3527 179.893 21.81C179.6 21.2673 179.453 20.644 179.453 19.94ZM189.167 19.94C189.167 20.952 189.394 21.8613 189.849 22.668C190.318 23.46 190.949 24.0833 191.741 24.538C192.533 24.9927 193.42 25.22 194.403 25.22C195.4 25.22 196.287 24.9927 197.065 24.538C197.857 24.0833 198.48 23.46 198.935 22.668C199.404 21.8613 199.639 20.952 199.639 19.94C199.639 18.9133 199.404 18.004 198.935 17.212C198.48 16.42 197.857 15.7967 197.065 15.342C196.287 14.8873 195.4 14.66 194.403 14.66C193.42 14.66 192.533 14.8873 191.741 15.342C190.949 15.7967 190.318 16.42 189.849 17.212C189.394 18.004 189.167 18.9133 189.167 19.94ZM190.949 19.94C190.949 19.236 191.095 18.6127 191.389 18.07C191.697 17.5127 192.107 17.08 192.621 16.772C193.149 16.464 193.743 16.31 194.403 16.31C195.063 16.31 195.649 16.464 196.163 16.772C196.691 17.08 197.101 17.5127 197.395 18.07C197.703 18.6127 197.857 19.236 197.857 19.94C197.857 20.644 197.703 21.2673 197.395 21.81C197.101 22.3527 196.691 22.7853 196.163 23.108C195.649 23.416 195.063 23.57 194.403 23.57C193.743 23.57 193.149 23.416 192.621 23.108C192.107 22.7853 191.697 22.3527 191.389 21.81C191.095 21.2673 190.949 20.644 190.949 19.94ZM216.797 18.62C216.797 17.784 216.665 17.0727 216.401 16.486C216.151 15.8847 215.785 15.43 215.301 15.122C214.817 14.814 214.23 14.66 213.541 14.66C212.866 14.66 212.265 14.8213 211.737 15.144C211.209 15.452 210.769 15.9213 210.417 16.552C210.182 15.9507 209.808 15.4887 209.295 15.166C208.796 14.8287 208.195 14.66 207.491 14.66C206.86 14.66 206.31 14.7993 205.841 15.078C205.386 15.3567 205.005 15.782 204.697 16.354V14.88H202.937V25H204.697V18.84C204.697 18.312 204.792 17.8573 204.983 17.476C205.173 17.0947 205.445 16.8087 205.797 16.618C206.149 16.4127 206.567 16.31 207.051 16.31C207.711 16.31 208.195 16.5153 208.503 16.926C208.825 17.3367 208.987 17.9747 208.987 18.84V25H210.747V18.84C210.747 18.312 210.842 17.8573 211.033 17.476C211.223 17.0947 211.495 16.8087 211.847 16.618C212.199 16.4127 212.617 16.31 213.101 16.31C213.761 16.31 214.245 16.5153 214.553 16.926C214.875 17.3367 215.037 17.9747 215.037 18.84V25H216.797V18.62Z" fill="#F4F4F4"/>
<path d="M65 27.75H218.447V28.85H65V27.75Z" fill="#F4F4F4"/>
<defs>
<clipPath id="clip0_502_4793">
<rect width="50" height="24" fill="white" transform="translate(0 5.5)"/>
</clipPath>
</defs>
</svg>
