<?xml version="1.0" encoding="utf-8"?><svg viewBox="0 0 28 26" xmlns="http://www.w3.org/2000/svg" xmlns:xlink="http://www.w3.org/1999/xlink"><style>:root>svg{display:none}:root>svg:target{display:block}</style><svg viewBox="0 0 9 15" id="arrow" xmlns="http://www.w3.org/2000/svg"><path d="M.59 2.193a.5.5 0 00.092.567l4.3 4.423a.5.5 0 010 .697l-4.3 4.422a.5.5 0 00-.091.567l.512 1.053a.5.5 0 00.808.13l6-6.172a.5.5 0 000-.697l-6-6.172a.5.5 0 00-.808.13L.59 2.193z"/></svg><svg viewBox="0 0 28 26" id="cart" xmlns="http://www.w3.org/2000/svg"><path d="M21.667 20.5c-1.467 0-2.654 1.125-2.654 2.5s1.187 2.5 2.654 2.5c1.466 0 2.666-1.125 2.666-2.5s-1.2-2.5-2.666-2.5zm-13.334 0c-1.466 0-2.653 1.125-2.653 2.5s1.187 2.5 2.654 2.5C9.8 25.5 11 24.375 11 23s-1.2-2.5-2.666-2.5zm0-3.75l1.467-2.5h9.933c1 0 1.88-.512 2.334-1.287L27.933 3H5.947L4.694.5H.333V3H3l4.8 9.488-3.973 6.762h20.506v-2.5h-16z"/></svg><svg viewBox="0 0 20 16" id="mail" xmlns="http://www.w3.org/2000/svg"><path d="M17 0H3a3 3 0 00-3 3v10a3 3 0 003 3h14a3 3 0 003-3V3a3 3 0 00-3-3zm0 2l-6.5 4.47a1 1 0 01-1 0L3 2h14z"/></svg><svg viewBox="0 0 20 20" id="phone" xmlns="http://www.w3.org/2000/svg"><path d="M11.446 4.24L14.829.335c.39-.45 1.105-.448 1.558.006l2.782 2.787c.828.829 1.065 2.06.586 3.047a29.207 29.207 0 01-13.561 13.58c-.986.479-2.216.242-3.044-.587L.342 16.355c-.455-.455-.456-1.174-.002-1.564l3.92-3.365c.41-.352 1.047-.306 1.458.106l1.364 1.366a.462.462 0 00.553.088 14.557 14.557 0 005.36-5.367.463.463 0 00-.088-.554l-1.36-1.361c-.412-.414-.457-1.054-.101-1.465v.001z"/></svg><svg viewBox="0 0 18 24" id="pin" xmlns="http://www.w3.org/2000/svg"><path d="M7.89 23.447C5.441 20.437 0 13.144 0 9.047a9 9 0 1118 0c0 4.097-5.484 11.39-7.89 14.4a1.416 1.416 0 01-2.22 0zM9 12.047c1.655 0 3-1.345 3-3s-1.345-3-3-3-3 1.345-3 3 1.345 3 3 3z"/></svg><svg viewBox="0 0 24 20" id="schedule" xmlns="http://www.w3.org/2000/svg"><path d="M23.143 2.286h-4.286v-1.5a.215.215 0 00-.214-.215h-1.5a.215.215 0 00-.214.215v1.5h-3.965v-1.5A.215.215 0 0012.75.57h-1.5a.215.215 0 00-.214.215v1.5H7.07v-1.5A.215.215 0 006.857.57h-1.5a.215.215 0 00-.214.215v1.5H.857A.856.856 0 000 3.143V18.57c0 .474.383.857.857.857h22.286A.856.856 0 0024 18.57V3.143a.856.856 0 00-.857-.857zm-13.5 12.428a.215.215 0 01-.214.214H4.5a.215.215 0 01-.214-.214v-1.286c0-.117.096-.214.214-.214h4.929c.117 0 .214.097.214.214v1.286zm0-3.643a.215.215 0 01-.214.215H4.5a.215.215 0 01-.214-.215V9.786c0-.118.096-.215.214-.215h4.929c.117 0 .214.097.214.215v1.285zm10.031-2.445l-4.42 6.126a.426.426 0 01-.69 0l-3.06-4.238a.215.215 0 01.175-.34h1.47a.43.43 0 01.346.177l1.414 1.958 2.778-3.85a.423.423 0 01.345-.176H19.5c.174.003.276.2.174.343z"/></svg><svg viewBox="0 0 22 22" id="search" xmlns="http://www.w3.org/2000/svg"><path d="M21 21l-4.722-4.73L21 21zM18.895 9.947A8.947 8.947 0 111 9.947a8.947 8.947 0 0117.894 0z"/></svg></svg>