<svg width="80" height="80" viewBox="0 0 80 80" fill="none" xmlns="http://www.w3.org/2000/svg">
<path d="M41.6024 44.6825C41.598 44.0026 41.2155 43.3813 40.6094 43.0704C40.0033 42.76 39.2742 42.812 38.7184 43.205C38.1626 43.5979 37.8719 44.2673 37.9641 44.941C38.0564 45.6147 38.516 46.1814 39.1573 46.4113L38.0514 49.6121H41.4978L40.3919 46.4113C41.1232 46.1518 41.6091 45.4579 41.6024 44.6825L41.6024 44.6825Z" fill="#F4F4F4"/>
<path d="M39.7742 28.597C38.4418 28.5992 37.1642 29.1268 36.2198 30.0651C35.2754 31.0035 34.7409 32.2763 34.7324 33.6064V40.0088H44.8158V33.6064C44.8074 32.2762 44.2728 31.0034 43.3284 30.0651C42.384 29.1267 41.1065 28.5992 39.774 28.597H39.7742Z" fill="#F4F4F4"/>
<path d="M71.8382 14.0726C61.407 9.48964 50.9859 4.85906 40.5769 0.180029C40.0999 -0.0600098 39.538 -0.0600098 39.0616 0.180029C28.5824 4.83233 18.1091 9.4712 7.64 14.0966C7.11441 14.2362 6.77223 14.7419 6.8382 15.2812C6.91033 22.4036 6.83037 29.5338 6.91033 36.6557C6.95729 46.4687 10.1606 56.0065 16.0482 63.8649C21.7397 71.5154 29.0178 76.9973 38.2432 79.7661L38.2438 79.7655C39.2373 80.0781 40.3037 80.0781 41.2977 79.7655C49.8056 77.224 57.2834 72.0475 62.6511 64.9848C69.1784 56.8001 72.7132 46.6371 72.6707 36.1749V26.9396V15.3994V15.4C72.7574 14.8127 72.404 14.25 71.837 14.0714L71.8382 14.0726ZM51.2378 53.7105C51.2339 54.2129 50.8274 54.6187 50.3242 54.6232H29.2342C28.7316 54.6187 28.3251 54.2129 28.3206 53.7105V40.9058V40.9064C28.3335 40.4101 28.7377 40.0138 29.2342 40.0099H31.5267V33.6075C31.5267 30.6657 33.099 27.9472 35.6508 26.4762C38.2027 25.0053 41.3473 25.0053 43.8991 26.4762C46.451 27.9472 48.0232 30.6657 48.0232 33.6075V40.0099H50.3157C50.8184 40.0143 51.2249 40.4202 51.2293 40.922V53.7267L51.2378 53.7105Z" fill="#F4F4F4"/>
</svg>
