<svg width="850" height="286" viewBox="0 0 850 286" fill="none" xmlns="http://www.w3.org/2000/svg">
<g clip-path="url(#clip0_221_2177)">
<path d="M-0.398438 211H201.802V161.8H158.902L153.802 170.5H74.3016L115.402 115.6V190.9L108.202 194.2V247H168.802V37H123.202L-0.398438 211Z" fill="white"/>
<path d="M425.211 103V55" stroke="#F4F4F4" stroke-width="2"/>
<path d="M425.211 227.333V179.333" stroke="#F4F4F4" stroke-width="2"/>
<path d="M538.768 141.167C538.768 205.009 487.873 256.667 425.21 256.667C362.547 256.667 311.652 205.009 311.652 141.167C311.652 77.324 362.547 25.667 425.21 25.667C487.873 25.667 538.768 77.324 538.768 141.167Z" stroke="#B50E1B" stroke-width="4"/>
<path d="M445 143C445 154.055 436.036 163 425 163C413.964 163 405 154.055 405 143C405 131.945 413.964 123 425 123C436.036 123 445 131.945 445 143Z" stroke="#B50E1B" stroke-width="2"/>
<path d="M425.212 229.333C473.767 229.333 513.128 189.934 513.128 141.333C513.128 92.732 473.767 53.333 425.212 53.333C376.658 53.333 337.297 92.732 337.297 141.333C337.297 189.934 376.658 229.333 425.212 229.333Z" stroke="#F4F4F4" stroke-width="4"/>
<path d="M326.695 130H303.695V141H326.695V130Z" fill="#1B1B1B"/>
<path d="M552.695 130H529.695V141H552.695V130Z" fill="#1B1B1B"/>
<path d="M430.199 286V242H420.199V286H430.199Z" fill="#1B1B1B"/>
<path d="M431.199 44V0H420.199V44H431.199Z" fill="#1B1B1B"/>
<path d="M425.211 5.333V53" stroke="#F4F4F4" stroke-width="4"/>
<path d="M337.294 135.667H297" stroke="#F4F4F4" stroke-width="4"/>
<path d="M552.989 135.667H512.695" stroke="#F4F4F4" stroke-width="4"/>
<path d="M386.961 135.667H338.961" stroke="#F4F4F4" stroke-width="2"/>
<path d="M511.695 135.667H463.695" stroke="#F4F4F4" stroke-width="2"/>
<path d="M425.211 273V229" stroke="#F4F4F4" stroke-width="4"/>
<path d="M647.602 211H849.802V161.8H806.902L801.802 170.5H722.302L763.402 115.6V190.9L756.202 194.2V247H816.802V37H771.202L647.602 211Z" fill="white"/>
</g>
<defs>
<clipPath id="clip0_221_2177">
<rect width="850" height="286" fill="white"/>
</clipPath>
</defs>
</svg>
