<svg width="711" height="434" viewBox="0 0 711 434" fill="none" xmlns="http://www.w3.org/2000/svg">
<path fill-rule="evenodd" clip-rule="evenodd" d="M355 273.997C412.438 273.997 459 227.435 459 169.997C459 112.56 412.438 65.9973 355 65.9973C297.562 65.9973 251 112.56 251 169.997C251 227.435 297.562 273.997 355 273.997ZM355 290.997C421.826 290.997 476 236.824 476 169.997C476 103.171 421.826 48.9973 355 48.9973C288.174 48.9973 234 103.171 234 169.997C234 236.824 288.174 290.997 355 290.997Z" fill="#3C3C3C"/>
<path fill-rule="evenodd" clip-rule="evenodd" d="M355.5 309.997C432.544 309.997 495 247.541 495 170.497C495 93.4536 432.544 30.9973 355.5 30.9973C278.456 30.9973 216 93.4536 216 170.497C216 247.541 278.456 309.997 355.5 309.997ZM355.5 324.997C440.828 324.997 510 255.825 510 170.497C510 85.1693 440.828 15.9973 355.5 15.9973C270.172 15.9973 201 85.1693 201 170.497C201 255.825 270.172 324.997 355.5 324.997Z" fill="#AD131D"/>
<path d="M600 112.997H490H488.5L461 160.997H539.5L545 153.924H600C602.209 153.924 604 152.133 604 149.924V116.997C604 114.788 602.209 112.997 600 112.997Z" fill="#303030"/>
<path fill-rule="evenodd" clip-rule="evenodd" d="M487.92 111.997H600C602.761 111.997 605 114.236 605 116.997V149.924C605 152.685 602.761 154.924 600 154.924H545.489L539.989 161.997H459.275L487.92 111.997ZM489.08 113.997L462.725 159.997H539.011L544.511 152.924H600C601.657 152.924 603 151.58 603 149.924V116.997C603 115.34 601.657 113.997 600 113.997H489.08Z" fill="black"/>
<path d="M578 133.997H476.5L473 139.997H585C585 136.397 581.333 134.497 578 133.997Z" fill="#171717"/>
<path d="M476.5 133.997H578C579.756 134.261 581.605 134.913 582.961 135.997H583C582.963 135.999 583 135.997 583 136.029C582.987 136.018 582.974 136.008 582.961 135.997H474.5L476.5 133.997Z" fill="#222222"/>
<path d="M387 112.997L341 194.997H364L400 134.497H414.5L378 194.997H402.5L438.5 134.497H452L416 194.997H442L489 112.997H387Z" fill="#AD131D"/>
<path fill-rule="evenodd" clip-rule="evenodd" d="M386.414 111.997H490.726L442.579 195.997H414.241L450.241 135.497H439.069L403.069 195.997H376.229L412.729 135.497H400.569L364.569 195.997H339.292L386.414 111.997ZM387.586 113.997L342.708 193.997H363.431L399.431 133.497H416.271L379.771 193.997H401.931L437.931 133.497H453.759L417.759 193.997H441.421L487.274 113.997H387.586Z" fill="black"/>
<path d="M374 112.997H309.5L299.5 132.497H339.5L288 224.497H272L288 196.997H264L234 245.997H299.5L374 112.997Z" fill="#AD131D"/>
<path fill-rule="evenodd" clip-rule="evenodd" d="M308.889 111.997H375.706L300.086 246.997H232.215L263.44 195.997H289.739L273.739 223.497H287.414L337.794 133.497H297.863L308.889 111.997ZM310.111 113.997L301.137 131.497H341.206L288.586 225.497H270.261L286.261 197.997H264.56L235.785 244.997H298.914L372.294 113.997H310.111Z" fill="black"/>
<path d="M188 157.997C188 156.893 188.895 155.997 190 155.997H239C240.105 155.997 241 156.893 241 157.997V175.997C241 177.102 240.105 177.997 239 177.997H190C188.895 177.997 188 177.102 188 175.997V157.997Z" fill="#3C3C3C"/>
<path d="M347 53C345.895 53 345 52.1046 345 51V2C345 0.895431 345.895 0 347 0H365C366.105 0 367 0.895431 367 2V51C367 52.1046 366.105 53 365 53H347Z" fill="#3C3C3C"/>
<path d="M347 334.997C345.895 334.997 345 334.102 345 332.997V283.997C345 282.893 345.895 281.997 347 281.997H364C365.105 281.997 366 282.893 366 283.997V332.997C366 334.102 365.105 334.997 364 334.997H347Z" fill="#3C3C3C"/>
<path d="M353 205.997C353 204.893 353.895 203.997 355 203.997H356C357.105 203.997 358 204.893 358 205.997V273.997C358 275.102 357.105 275.997 356 275.997H355C353.895 275.997 353 275.102 353 273.997V205.997Z" fill="#3C3C3C"/>
<path d="M353 36.9973C353 35.8927 353.895 34.9973 355 34.9973H356C357.105 34.9973 358 35.8927 358 36.9973V104.997C358 106.102 357.105 106.997 356 106.997H355C353.895 106.997 353 106.102 353 104.997V36.9973Z" fill="#3C3C3C"/>
<path d="M311 162.997L307 169.997L235 169.997L235 162.997L311 162.997Z" fill="#3C3C3C"/>
<path d="M27 433.997V381.997C27 380.893 27.8949 379.997 28.9995 379.997H40.0034C41.1079 379.997 42 380.881 42 381.985V414.997C42 429.997 36.9022 433.997 27 433.997Z" fill="#AD131D"/>
<path d="M0 419.997C0 418.893 0.895431 417.997 2 417.997H24V433.997H2C0.89543 433.997 0 433.102 0 431.997V419.997Z" fill="#AD131D"/>
<path d="M181 393.997L209.997 393.997L209.997 379.997L199.365 379.997C184.866 379.997 181 384.755 181 393.997Z" fill="#AD131D"/>
<path d="M243 393.997L209 393.997L209 379.997L224.635 379.997C239.134 379.997 243 384.755 243 393.997Z" fill="#AD131D"/>
<path d="M181 393.997H194V431.997C194 433.102 193.105 433.997 192 433.997H183C181.895 433.997 181 433.102 181 431.997V393.997Z" fill="#AD131D"/>
<path d="M243 393.997H230V431.997C230 433.102 230.895 433.997 232 433.997H241C242.105 433.997 243 433.102 243 431.997V393.997Z" fill="#AD131D"/>
<path d="M241 416.997L241 403.997L203 403.997C201.895 403.997 201 404.893 201 405.997L201 414.997C201 416.102 201.895 416.997 203 416.997L241 416.997Z" fill="#AD131D"/>
<path d="M433 393.997L461.997 393.997L461.997 379.997L451.365 379.997C436.866 379.997 433 384.755 433 393.997Z" fill="#AD131D"/>
<path d="M495 393.997L461 393.997L461 379.997L476.635 379.997C491.134 379.997 495 384.755 495 393.997Z" fill="#AD131D"/>
<path d="M433 393.997H446V431.997C446 433.102 445.105 433.997 444 433.997H435C433.895 433.997 433 433.102 433 431.997V393.997Z" fill="#AD131D"/>
<path d="M495 393.997H482V431.997C482 433.102 482.895 433.997 484 433.997H493C494.105 433.997 495 433.102 495 431.997V393.997Z" fill="#AD131D"/>
<path d="M493 416.997L493 403.997L455 403.997C453.895 403.997 453 404.893 453 405.997L453 414.997C453 416.102 453.895 416.997 455 416.997L493 416.997Z" fill="#AD131D"/>
<path d="M646 419.997L617.003 419.997L617.003 433.997L627.635 433.997C642.134 433.997 646 429.239 646 419.997Z" fill="#AD131D"/>
<path d="M584 419.997L613 419.997L613 433.997L599.664 433.997C587.298 433.997 584 429.239 584 419.997Z" fill="#AD131D"/>
<path d="M646 419.997L633 419.997L633 381.997C633 380.893 633.895 379.997 635 379.997L644 379.997C645.105 379.997 646 380.893 646 381.997L646 419.997Z" fill="#AD131D"/>
<path d="M584 419.997L597 419.997L597 381.997C597 380.893 596.105 379.997 595 379.997L586 379.997C584.895 379.997 584 380.893 584 381.997L584 419.997Z" fill="#AD131D"/>
<path d="M297 410.997L297 379.997H311L311 394.253C311 407.472 306.242 410.997 297 410.997Z" fill="#AD131D"/>
<path d="M263 410.997L263 379.997H249L249 394.253C249 407.472 253.758 410.997 263 410.997Z" fill="#AD131D"/>
<path d="M287 410.997L287 397.997L262 397.997C260.895 397.997 260 398.893 260 399.997L260 408.997C260 410.102 260.895 410.997 262 410.997L287 410.997Z" fill="#AD131D"/>
<path d="M299 410.997L299 397.997L290 397.997L290 410.997L299 410.997Z" fill="#AD131D"/>
<path d="M273 400.997H287V431.997C287 433.102 286.105 433.997 285 433.997H275C273.895 433.997 273 433.102 273 431.997V400.997Z" fill="#AD131D"/>
<path d="M46.9999 417.997L75.9966 417.997L75.9966 432.997L65.3645 432.997C50.8661 432.997 46.9999 427.9 46.9999 417.997Z" fill="#AD131D"/>
<path d="M108 394.997L79.0034 394.997L79.0034 379.997L89.6355 379.997C104.134 379.997 108 385.095 108 394.997Z" fill="#AD131D"/>
<path d="M46.9999 394.997L75.9966 394.997L75.9966 379.997L65.3645 379.997C50.8661 379.997 46.9999 385.095 46.9999 394.997Z" fill="#AD131D"/>
<path d="M108 417.997L79.0034 417.997L79.0034 432.997L89.6355 432.997C104.134 432.997 108 427.9 108 417.997Z" fill="#AD131D"/>
<path d="M47 393.997H60V419.997H47V393.997Z" fill="#AD131D"/>
<path d="M108.003 418.997L95.0034 418.997L95.0034 392.997L108.003 392.997L108.003 418.997Z" fill="#AD131D"/>
<path d="M177 394.997L130 394.998L130 379.998L158.635 379.997C173.134 379.997 177 385.095 177 394.997Z" fill="#AD131D"/>
<path d="M177 403.998L130 403.998C132.5 406.998 154.5 433.998 154.5 433.998L176 433.998C175.5 432.998 162.5 416.998 163 416.998C173 416.998 177 412.58 177 403.998Z" fill="#AD131D"/>
<path d="M112 381.998C112 380.893 112.895 379.998 114 379.998H127V431.998C127 433.102 126.105 433.998 125 433.998H114C112.895 433.998 112 433.102 112 431.998V381.998Z" fill="#AD131D"/>
<path d="M162 393.998H177V404.998H162V393.998Z" fill="#AD131D"/>
<path d="M563 394.997L516 394.998L516 379.998L544.635 379.997C559.134 379.997 563 385.095 563 394.997Z" fill="#AD131D"/>
<path d="M563 403.998L516 403.998C518.5 406.998 540.5 433.998 540.5 433.998L562 433.998C561.5 432.998 548.5 416.998 549 416.998C559 416.998 563 412.58 563 403.998Z" fill="#AD131D"/>
<path d="M498 381.998C498 380.893 498.895 379.998 500 379.998H513V431.998C513 433.102 512.105 433.998 511 433.998H500C498.895 433.998 498 433.102 498 431.998V381.998Z" fill="#AD131D"/>
<path d="M548 393.998H563V404.998H548V393.998Z" fill="#AD131D"/>
<path d="M361 381.998C361 380.893 361.895 379.998 363 379.998H376V431.998C376 433.102 375.105 433.998 374 433.998H363C361.895 433.998 361 433.102 361 431.998V381.998Z" fill="#AD131D"/>
<path d="M415 379.998H428C429.105 379.998 430 380.893 430 381.998V431.998C430 433.102 429.105 433.998 428 433.998H417C415.895 433.998 415 433.102 415 431.998V379.998Z" fill="#AD131D"/>
<path d="M395.5 406.497L415 379.997H416V403.997L395.5 430.997V406.497Z" fill="#AD131D"/>
<path d="M395.5 430.997V406.497L379 384.074V409.266L395.5 430.997Z" fill="#AD131D"/>
<path d="M566 381.997C566 380.893 566.895 379.997 568 379.997H579C580.105 379.997 581 380.893 581 381.997V431.997C581 433.102 580.105 433.997 579 433.997H568C566.895 433.997 566 433.102 566 431.997V381.997Z" fill="#AD131D"/>
<path d="M649 394.997L679 394.997L679 379.997L667.365 379.997C652.866 379.997 649 385.095 649 394.997Z" fill="#AD131D"/>
<path d="M710.003 418.997L680 418.997L680 433.997L691.639 433.997C706.137 433.997 710.003 428.9 710.003 418.997Z" fill="#AD131D"/>
<path d="M649 399.997L679 399.997L679 413.997L667.365 413.997C652.866 413.997 649 409.239 649 399.997Z" fill="#AD131D"/>
<path d="M710 413.997L680 413.997L680 399.997L691.636 399.997C706.134 399.997 710 404.755 710 413.997Z" fill="#AD131D"/>
<path d="M680 379.997H708C709.105 379.997 710 380.893 710 381.997V392.997C710 394.102 709.105 394.997 708 394.997H680V379.997Z" fill="#AD131D"/>
<path d="M679 418.997H651C649.896 418.997 649 419.893 649 420.997V431.997C649 433.102 649.896 433.997 651 433.997H679V418.997Z" fill="#AD131D"/>
</svg>
