<svg width="61" height="40" viewBox="0 0 61 40" fill="none" xmlns="http://www.w3.org/2000/svg">
<g clip-path="url(#clip0_712_7865)">
<path d="M38.5669 22.5032V10.3097H32.9023V27.729H45.2378V22.5032H38.5669Z" fill="#F4F4F4"/>
<path d="M59.0455 10.3097H42.8906V15.5355H48.1422V27.729H53.8068V15.5355H59.0455V10.3097Z" fill="#F4F4F4"/>
<path d="M43.4963 7.40646C43.4963 7.40646 41.1737 9.36775 36.1673 9.36775C29.0576 9.36775 27.3157 5.30323 17.8705 5.30323C13.1608 5.30323 8.51569 9.65162 8.51569 16.4C8.51569 21.1871 12.1415 34.2581 33.9867 34.2581C42.3996 34.2581 51.1221 29.9742 51.1221 29.9742C51.1221 29.9742 43.935 39.6258 28.7738 39.6258C12.2189 39.6258 0.451172 30.5548 0.451172 17.6387C0.451172 4.72259 10.8383 0.580652 16.8641 0.580652C22.8899 0.580652 23.9738 2.18065 28.2576 2.18065C31.0189 2.18065 34.0641 0.361298 34.0641 0.361298C34.0641 0.361298 35.806 4.28388 43.4963 7.40646Z" fill="#F4F4F4"/>
<path d="M57.9476 23.3032C56.7218 23.3032 55.625 24.1548 55.625 25.6129C55.625 27.071 56.7218 27.9226 57.9476 27.9226C59.1605 27.9226 60.2573 27.071 60.2573 25.6129C60.2573 24.1548 59.1605 23.3032 57.9476 23.3032ZM57.9476 27.3806C57.0315 27.3806 56.296 26.671 56.296 25.6129C56.296 24.5548 57.0315 23.8452 57.9476 23.8452C58.8379 23.8452 59.5992 24.5548 59.5992 25.6129C59.5863 26.671 58.8379 27.3806 57.9476 27.3806Z" fill="#F4F4F4"/>
<path d="M22.7348 9.6387C17.638 9.6387 13.4961 13.7806 13.4961 18.8774C13.4961 23.9742 17.638 28.1161 22.7348 28.1161C27.8316 28.1161 31.9735 23.9742 31.9735 18.8774C31.9735 13.7806 27.8445 9.6387 22.7348 9.6387ZM22.7348 22.671C20.6316 22.671 18.9413 20.9677 18.9413 18.8774C18.9413 16.7742 20.6445 15.0839 22.7348 15.0839C24.838 15.0839 26.5284 16.7871 26.5284 18.8774C26.5413 20.9677 24.838 22.671 22.7348 22.671Z" fill="#F4F4F4"/>
<path d="M58.3751 25.7678C58.7106 25.7419 58.9687 25.5742 58.9687 25.1226C58.9687 24.5549 58.5945 24.3742 57.9493 24.3742H57.0332V26.8516H57.5622V25.8065H57.8074L58.3751 26.8516H59.0074L58.3751 25.7678ZM58.0268 25.3807H57.5622V24.7871H57.9364C58.1429 24.7871 58.4138 24.8 58.4138 25.0581C58.4138 25.3419 58.2719 25.3807 58.0268 25.3807Z" fill="#F4F4F4"/>
</g>
<defs>
<clipPath id="clip0_712_7865">
<rect width="60.6452" height="40" fill="white"/>
</clipPath>
</defs>
</svg>
