<svg width="181" height="40" viewBox="0 0 181 40" fill="none" xmlns="http://www.w3.org/2000/svg">
<g clip-path="url(#clip0_712_7934)">
<path fill-rule="evenodd" clip-rule="evenodd" d="M49.3332 26.0737C48.6305 26.0783 47.9301 25.9929 47.2491 25.8196C46.6294 25.6238 46.0662 25.3973 45.6432 25.1453L45.0523 25.7642H44.32L44.2073 21.3669H44.9396C45.1086 21.7912 45.3339 22.2421 45.5869 22.6919C45.8409 23.1439 46.1215 23.5671 46.4605 23.933C46.7994 24.2988 47.1927 24.6093 47.6157 24.8634C48.0663 25.0879 48.5446 25.2293 49.1365 25.2293C49.8965 25.2293 50.4884 25.0315 50.9104 24.6646C51.3333 24.2701 51.53 23.7915 51.53 23.2279C51.53 22.7493 51.361 22.3528 50.9954 22.0453C50.6574 21.7071 50.1218 21.4253 49.3895 21.1989C48.9446 21.0705 48.5034 20.9297 48.0663 20.7767C47.672 20.6342 47.2777 20.5225 46.9398 20.3821C46.1225 20.0439 45.5029 19.592 45.1373 18.972C44.7143 18.3797 44.5177 17.7034 44.5177 16.9706C44.5177 16.4911 44.6303 16.0402 44.827 15.5893C45.0523 15.166 45.3339 14.7715 45.7282 14.4333C46.0938 14.0951 46.5731 13.842 47.1641 13.6442C47.756 13.4188 48.4033 13.3348 49.0792 13.3348C49.7551 13.3348 50.3758 13.4198 50.9667 13.6166C51.4429 13.7509 51.9051 13.9304 52.3472 14.1525L52.8542 13.6442H53.6151L53.6714 17.7874H52.9392C52.7702 17.3365 52.5736 16.8856 52.3472 16.406C52.1456 15.9954 51.9001 15.6078 51.615 15.2501C51.3333 14.9395 51.023 14.6577 50.6574 14.461C50.2918 14.2642 49.8688 14.1792 49.3619 14.1792C48.7699 14.1792 48.264 14.3483 47.8687 14.6864C47.4744 15.0523 47.2777 15.4755 47.2777 15.9828C47.2777 16.4624 47.4467 16.8569 47.7847 17.1664C48.1226 17.4759 48.6583 17.7587 49.3619 17.9842C49.7848 18.1245 50.2068 18.266 50.6574 18.4074C51.108 18.5478 51.4747 18.6892 51.8116 18.8306C52.6565 19.1401 53.2761 19.5633 53.6991 20.1269C54.1221 20.6916 54.3474 21.3956 54.3474 22.2124C54.3474 22.7483 54.2347 23.2556 53.9818 23.7331C53.7278 24.2414 53.4185 24.6359 52.9955 24.9741C52.5449 25.3123 52.0093 25.5941 51.4183 25.7909C50.8264 25.9897 50.1218 26.0737 49.3332 26.0737ZM71.5294 25.7632H66.4312V25.1442C66.5726 25.1145 66.6852 25.0858 66.8255 25.0858C66.944 25.0918 67.0616 25.0625 67.1635 25.0018C67.3048 24.9454 67.3888 24.8614 67.4175 24.72C67.4452 24.5796 67.4738 24.4095 67.4738 24.2137V20.211C67.4738 19.6197 67.3612 19.1965 67.1645 18.9146C66.9392 18.6052 66.6576 18.4648 66.2633 18.4648C66.0093 18.4648 65.8127 18.4924 65.616 18.5775C65.4194 18.6625 65.2504 18.7466 65.0814 18.8593C64.9114 18.972 64.7998 19.1124 64.7148 19.2251C64.6021 19.3379 64.5458 19.4506 64.4618 19.5357V24.101C64.4618 24.3275 64.4895 24.4669 64.5458 24.6093C64.6077 24.7379 64.7055 24.8457 64.8274 24.9198C64.9114 24.9762 64.9964 25.0038 65.1377 25.0602C65.2504 25.0879 65.3631 25.1166 65.5034 25.1463V25.7652H60.6305V25.1463C60.7432 25.1166 60.8558 25.1166 61.0248 25.0879C61.1651 25.0602 61.2778 25.0315 61.3628 25.0038C61.4203 24.9785 61.4708 24.9397 61.51 24.8906C61.5493 24.8416 61.576 24.7837 61.5881 24.722C61.6444 24.6103 61.6444 24.4402 61.6444 24.2158V20.213C61.6444 19.6217 61.5604 19.1985 61.3351 18.9167C61.1385 18.6072 60.8282 18.4668 60.4615 18.4668C60.2075 18.4668 59.9832 18.4945 59.7856 18.5795C59.6156 18.6646 59.4189 18.7486 59.2776 18.8614C59.1086 18.9741 58.9683 19.1145 58.8833 19.2272C58.8054 19.3286 58.7303 19.4322 58.658 19.5377V24.1031C58.658 24.3008 58.6857 24.4689 58.743 24.6113C58.8029 24.7329 58.8898 24.8391 58.997 24.9219C59.1097 24.9782 59.1936 25.0059 59.3073 25.0622C59.4476 25.0899 59.5603 25.1186 59.7016 25.1483V25.7673H54.5758V25.1483C54.7448 25.1186 54.8851 25.1186 55.0264 25.0899C55.1667 25.0622 55.2794 25.0336 55.392 25.0059C55.561 24.9495 55.7023 24.8378 55.7576 24.7241C55.8426 24.5837 55.8703 24.4136 55.8703 24.2178V19.2282C55.8703 19.0591 55.814 18.89 55.729 18.721C55.6369 18.5566 55.5125 18.4127 55.3633 18.2977C55.239 18.2261 55.1066 18.1693 54.969 18.1286C54.807 18.0683 54.6349 18.0394 54.4621 18.0436V17.4236L58.5177 17.1981L58.659 17.3109V18.5232H58.6867C58.8557 18.3818 59.0523 18.2127 59.25 18.0159C59.4753 17.8192 59.6729 17.6501 59.8696 17.5363C60.0949 17.3959 60.3489 17.2822 60.6858 17.1981C61.0449 17.1062 61.414 17.059 61.7847 17.0578C62.4043 17.0578 62.9676 17.1981 63.3906 17.481C63.8412 17.7628 64.1515 18.1573 64.3205 18.6082H64.4055C64.5745 18.4678 64.7711 18.2701 64.9975 18.0723C65.2514 17.8755 65.4481 17.7064 65.6734 17.565C65.87 17.4236 66.1517 17.3109 66.5183 17.1981C66.8774 17.1061 67.2465 17.0589 67.6172 17.0578C68.4621 17.0578 69.1381 17.3119 69.5887 17.8192C70.067 18.3264 70.2933 19.0591 70.2933 19.9896V24.1338C70.2933 24.3295 70.3209 24.4996 70.3773 24.64C70.4483 24.775 70.5698 24.8763 70.7152 24.9219C70.8002 24.9782 70.9119 25.0059 71.0532 25.0622C71.1945 25.0899 71.3348 25.1186 71.5325 25.1483V25.7632H71.5294ZM76.7966 25.7632H71.4168V25.1442C71.5581 25.1145 71.6984 25.1145 71.8398 25.0858C71.9811 25.0581 72.0937 25.0295 72.2054 25.0018C72.3658 24.957 72.5053 24.8573 72.5997 24.72C72.656 24.5796 72.7123 24.4095 72.7123 24.2137V19.2241C72.7128 19.0452 72.6639 18.8697 72.571 18.7169C72.4889 18.5699 72.373 18.4445 72.233 18.351C72.1204 18.2947 71.979 18.2096 71.7537 18.1543C71.5571 18.0979 71.3594 18.0415 71.1904 18.0415V17.4215L75.3587 17.1961L75.5 17.3088V24.1C75.5 24.2978 75.5277 24.4658 75.6127 24.6083C75.6967 24.7487 75.838 24.8347 75.9783 24.9188C76.091 24.9751 76.2313 25.0028 76.3726 25.0592C76.5139 25.0868 76.6542 25.1155 76.7956 25.1453V25.7632H76.7966ZM75.5574 14.1238C75.5574 14.5471 75.3884 14.9129 75.0504 15.2234C74.7125 15.5329 74.3182 15.6743 73.8675 15.6743C73.4169 15.6743 73.0226 15.5329 72.6847 15.2234C72.3467 14.9129 72.1777 14.5471 72.1777 14.1238C72.1777 13.7006 72.3467 13.3071 72.6847 13.0243C73.0226 12.7137 73.4169 12.5447 73.8675 12.5447C74.3182 12.5447 74.7125 12.7137 75.0504 13.0243C75.3884 13.3061 75.5574 13.7006 75.5574 14.1238ZM83.0224 25.3686C82.6557 25.5111 82.2614 25.6505 81.8385 25.7909C81.4155 25.9333 80.9372 25.9886 80.3176 25.9886C79.444 25.9886 78.7681 25.7622 78.3461 25.34C77.9232 24.8901 77.6989 24.2967 77.6989 23.481V18.2373H76.178V17.3355H77.7552V14.7428H80.5153V17.3355H82.9097V18.2373H80.5429V22.9164C80.5429 23.5927 80.6279 24.0713 80.7969 24.3254C80.9946 24.6072 81.3325 24.7476 81.8108 24.7476C81.9521 24.7476 82.1774 24.7476 82.4304 24.72C82.6293 24.7043 82.827 24.6762 83.0224 24.6359V25.3686ZM93.782 25.7632H88.6552V25.1442C88.7678 25.1145 88.9091 25.1145 89.0494 25.0858C89.1908 25.0581 89.3034 25.0295 89.3884 25.0018C89.5061 24.9442 89.5968 24.8432 89.6414 24.72C89.6977 24.6083 89.7264 24.4382 89.7264 24.2137V20.211C89.7264 19.6197 89.6137 19.1965 89.3884 18.887C89.1621 18.6052 88.8528 18.4648 88.4585 18.4648C88.2374 18.4582 88.0172 18.4966 87.8112 18.5775C87.6136 18.6339 87.4456 18.7466 87.248 18.8593C87.079 18.972 86.9377 19.0848 86.8537 19.2251C86.741 19.3379 86.657 19.4506 86.5997 19.5357V24.101C86.5997 24.3275 86.6273 24.4976 86.6847 24.6093C86.7123 24.721 86.826 24.8358 86.9663 24.9198C87.0513 24.9762 87.163 25.0038 87.3043 25.0602C87.4456 25.0879 87.5859 25.1166 87.6986 25.1463V25.7652H82.5154V25.1463C82.6567 25.1166 82.8257 25.1166 82.9384 25.0879C83.0797 25.0602 83.22 25.0315 83.3327 25.0038C83.5017 24.9475 83.642 24.8358 83.6983 24.722C83.7584 24.5602 83.7873 24.3884 83.7833 24.2158V14.6895C83.7833 14.5204 83.7556 14.3226 83.6706 14.1259C83.6057 13.9294 83.4765 13.7605 83.304 13.6463C83.1497 13.5763 82.9897 13.5197 82.8257 13.4772C82.6004 13.4495 82.4028 13.4208 82.2338 13.3921V12.7722L86.4584 12.5467L86.5997 12.6881V18.5508H86.6273C86.8527 18.3541 87.0503 18.185 87.2193 18.0436C87.4078 17.8619 87.6155 17.7014 87.8389 17.565C88.0642 17.4236 88.3469 17.3109 88.6838 17.1981C89.0429 17.1061 89.412 17.0589 89.7827 17.0578C90.684 17.0578 91.3876 17.3396 91.8382 17.8468C92.3185 18.3818 92.5428 19.0868 92.5428 19.9599V24.1328C92.5428 24.3285 92.5704 24.4986 92.6288 24.639C92.7114 24.7752 92.8417 24.8757 92.9944 24.9208C93.0784 24.9772 93.19 25.0049 93.3304 25.0612C93.444 25.0889 93.612 25.1176 93.782 25.1473V25.7632ZM111.612 25.7632H106.626C106.485 25.5951 106.288 25.3973 106.092 25.1442C105.902 24.9301 105.714 24.7139 105.528 24.4955C104.936 25.0581 104.317 25.4527 103.725 25.6781C103.133 25.9323 102.485 26.044 101.809 26.044C100.739 26.044 99.8951 25.7622 99.1905 25.1996C98.5146 24.6073 98.1766 23.8745 98.1766 22.944C98.1766 22.4942 98.2329 22.0996 98.3722 21.7615C98.4838 21.4233 98.6825 21.1128 98.9642 20.7746C99.2182 20.4641 99.5561 20.1823 99.9228 19.9281C100.344 19.6499 100.787 19.4052 101.247 19.1965C100.711 18.5478 100.372 18.0128 100.175 17.5619C99.9657 17.1219 99.8596 16.6401 99.8644 16.1529C99.8644 15.3361 100.204 14.6588 100.878 14.1238C101.554 13.5879 102.373 13.3348 103.331 13.3348C104.204 13.3348 104.935 13.5315 105.499 13.9537C106.033 14.3769 106.315 14.9406 106.315 15.6169C106.315 16.2369 106.148 16.7729 105.81 17.2514C105.499 17.731 104.935 18.1819 104.175 18.6328C104.795 19.4496 105.273 20.0429 105.611 20.4375C105.949 20.832 106.4 21.3659 106.963 22.0146C107.281 21.553 107.555 21.0623 107.781 20.5492C107.949 20.1269 108.033 19.7324 108.033 19.4496C108.033 19.2805 107.921 19.1401 107.667 19.0274C107.415 18.9146 107.048 18.8306 106.597 18.7456V18.0979H111.357V18.7456C110.822 18.7742 110.455 18.8306 110.203 18.9146C109.949 18.9997 109.723 19.1688 109.471 19.3942C109.385 19.507 109.245 19.6771 109.103 19.9568C108.935 20.211 108.793 20.4651 108.654 20.6916C108.513 20.9714 108.316 21.2819 108.148 21.62C107.95 21.9305 107.724 22.2687 107.472 22.6069C107.978 23.2269 108.4 23.6778 108.738 23.9883C109.076 24.2988 109.357 24.4966 109.584 24.6083C109.837 24.7487 110.146 24.8347 110.513 24.9188C110.879 25.0028 111.246 25.0592 111.611 25.0592V25.7632H111.612ZM105.02 15.7583C105.02 15.2511 104.908 14.8565 104.654 14.5747C104.402 14.2929 104.092 14.1525 103.726 14.1525C103.361 14.1525 103.05 14.2653 102.824 14.4907C102.598 14.7448 102.486 15.0543 102.486 15.4212C102.486 15.7594 102.598 16.1262 102.797 16.5484C102.995 16.9707 103.332 17.4789 103.755 18.0702C104.205 17.7608 104.515 17.4226 104.714 17.027C104.908 16.6038 105.02 16.2092 105.02 15.7583ZM105.078 23.9319C104.517 23.2706 103.963 22.6034 103.416 21.9305C102.811 21.2188 102.22 20.4955 101.642 19.7611C101.332 20.0429 101.134 20.4098 100.994 20.8043C100.852 21.1989 100.796 21.5934 100.796 21.9869C100.796 22.7493 101.023 23.3683 101.529 23.8479C102.009 24.3265 102.629 24.5529 103.361 24.5529C103.699 24.5529 104.009 24.4966 104.261 24.4105C104.514 24.3265 104.796 24.1584 105.078 23.9319ZM135.048 14.3206C134.878 14.3493 134.71 14.377 134.54 14.462C134.344 14.5184 134.174 14.5747 134.006 14.6875C133.752 14.8279 133.555 14.9969 133.442 15.166C133.358 15.3361 133.246 15.5616 133.16 15.786C132.85 16.6601 132.344 18.0405 131.696 19.9568C131.047 21.8465 130.372 23.8479 129.668 25.9056L127.949 25.878L124.767 16.8866L121.893 25.878H120.176C119.218 23.1162 118.486 21.0001 117.978 19.508C117.472 18.0139 117.051 16.7739 116.711 15.7594C116.599 15.4489 116.486 15.2244 116.345 15.083C116.184 14.9216 116.005 14.7796 115.811 14.6598C115.669 14.5471 115.501 14.4907 115.331 14.4343C115.163 14.378 114.937 14.3503 114.712 14.3216V13.6453H121.191V14.2939C120.795 14.3503 120.515 14.379 120.317 14.4343C120.161 14.4605 120.01 14.5081 119.867 14.5758C119.831 14.5867 119.797 14.6049 119.768 14.6292C119.738 14.6535 119.714 14.6834 119.697 14.7172C119.669 14.7735 119.669 14.8012 119.669 14.8576C119.669 14.9139 119.669 14.999 119.697 15.083C119.697 15.1394 119.725 15.2244 119.753 15.3372C119.896 15.7881 120.177 16.6058 120.572 17.8458C120.993 19.0858 121.499 20.6352 122.12 22.4686L124.88 13.6463H126.683L129.867 22.7514C130.345 21.2839 130.711 20.1013 130.993 19.1708C131.275 18.2403 131.527 17.4523 131.725 16.7759C131.837 16.3814 131.923 16.0432 131.979 15.7614C132.063 15.5073 132.091 15.2542 132.091 15.0564C132.091 14.9437 132.035 14.8309 131.923 14.7459C131.809 14.6608 131.669 14.6045 131.471 14.5204C131.304 14.4917 131.106 14.4354 130.853 14.4077C130.636 14.3855 130.42 14.3571 130.205 14.3226V13.6463H135.049V14.3206H135.048ZM143.497 23.7055C143.301 24.0436 143.047 24.3541 142.765 24.6359C142.482 24.9178 142.173 25.1719 141.806 25.3686C141.412 25.5951 141.046 25.7632 140.652 25.8472C140.211 25.9669 139.756 26.0241 139.3 26.0173C138.484 26.0173 137.752 25.9056 137.132 25.6792C136.512 25.425 136.005 25.1145 135.61 24.6923C135.22 24.2922 134.922 23.8112 134.737 23.2832C134.532 22.7043 134.427 22.0942 134.427 21.4796C134.427 20.915 134.539 20.3524 134.765 19.8164C134.963 19.2805 135.271 18.8306 135.667 18.4074C136.062 17.9841 136.54 17.6747 137.132 17.4205C137.722 17.1664 138.37 17.0547 139.104 17.0547C139.893 17.0547 140.54 17.1397 141.046 17.3365C141.582 17.5332 142.005 17.7874 142.314 18.1256C142.652 18.4648 142.876 18.8306 143.046 19.2805C143.187 19.7324 143.244 20.1823 143.244 20.6629V21.2255H137.498C137.498 22.3804 137.722 23.2832 138.173 23.8756C138.623 24.4956 139.328 24.804 140.314 24.804C140.85 24.804 141.328 24.6636 141.75 24.3541C142.183 24.0618 142.556 23.6888 142.848 23.2556L143.497 23.7055ZM140.231 20.4651C140.231 20.1269 140.203 19.7888 140.175 19.4219C140.159 19.124 140.102 18.8298 140.005 18.5478C139.893 18.266 139.778 18.0682 139.61 17.9278C139.418 17.7999 139.193 17.7314 138.962 17.731C138.54 17.731 138.173 17.9565 137.919 18.4074C137.666 18.8583 137.525 19.5346 137.498 20.5205L140.231 20.4651ZM147.356 26.045C146.802 26.0459 146.251 25.9602 145.723 25.7909C145.299 25.6753 144.891 25.5052 144.511 25.2846L144.257 25.8769H143.583L143.469 22.6909H144.089C144.173 22.9451 144.315 23.2269 144.511 23.5374C144.709 23.8756 144.963 24.1574 145.215 24.4105C145.469 24.6646 145.78 24.8911 146.118 25.0592C146.456 25.2293 146.822 25.341 147.216 25.341C147.751 25.341 148.118 25.2293 148.37 25.0305C148.624 24.8347 148.766 24.5242 148.766 24.1C148.766 23.8756 148.71 23.6778 148.596 23.5374C148.485 23.3673 148.315 23.2556 148.118 23.1428C147.883 23.027 147.638 22.9327 147.386 22.861C147.132 22.777 146.794 22.6633 146.427 22.5505C146.084 22.4549 145.745 22.342 145.413 22.2124C145.105 22.0797 144.819 21.8988 144.567 21.6764C144.315 21.4419 144.106 21.1656 143.949 20.8597C143.795 20.5142 143.717 20.1394 143.722 19.7611C143.722 18.9433 144.06 18.2947 144.736 17.8161C145.412 17.3088 146.285 17.0547 147.385 17.0547C147.891 17.0547 148.369 17.111 148.793 17.2238C149.242 17.3365 149.609 17.4502 149.891 17.563L150.086 17.0557H150.735L150.877 19.9865H150.257C150.06 19.3942 149.722 18.8593 149.243 18.4361C148.765 18.0128 148.23 17.7884 147.665 17.7884C147.243 17.7884 146.905 17.9011 146.653 18.0692C146.527 18.1507 146.424 18.2638 146.354 18.3973C146.285 18.5308 146.251 18.6802 146.257 18.8306C146.257 19.2528 146.455 19.5633 146.821 19.7611C147.187 19.9568 147.696 20.1556 148.37 20.3237C149.384 20.5778 150.118 20.916 150.596 21.3966C151.075 21.8465 151.301 22.4112 151.301 23.1162C151.301 24.0446 150.935 24.7774 150.203 25.2856C149.47 25.7909 148.512 26.045 147.356 26.045ZM155.385 26.045C154.84 26.0459 154.298 25.9602 153.779 25.7909C153.347 25.6747 152.931 25.5047 152.541 25.2846L152.287 25.8769H151.639L151.527 22.6909H152.146C152.232 22.9451 152.372 23.2269 152.57 23.5374C152.765 23.8756 152.992 24.1574 153.246 24.4105C153.525 24.6646 153.808 24.8911 154.174 25.0592C154.512 25.2293 154.878 25.341 155.274 25.341C155.78 25.341 156.174 25.2293 156.428 25.0305C156.682 24.8347 156.793 24.5242 156.793 24.1C156.793 23.8756 156.737 23.6778 156.623 23.5374C156.512 23.3673 156.371 23.2556 156.174 23.1428C155.937 23.0314 155.692 22.9373 155.442 22.861C155.16 22.777 154.85 22.6633 154.455 22.5505C154.061 22.4378 153.751 22.3241 153.469 22.2124C153.187 22.1007 152.907 21.9305 152.596 21.6764C152.344 21.4491 152.142 21.1707 152.005 20.8597C151.829 20.5206 151.742 20.1428 151.751 19.7611C151.751 18.9433 152.089 18.2947 152.764 17.8161C153.44 17.3088 154.343 17.0547 155.413 17.0547C155.946 17.0547 156.399 17.111 156.849 17.2238C157.271 17.3365 157.637 17.4502 157.947 17.563L158.117 17.0557H158.765L158.905 19.9865H158.313C158.109 19.3865 157.749 18.8515 157.271 18.4361C156.792 18.0128 156.286 17.7884 155.722 17.7884C155.273 17.7884 154.933 17.9011 154.68 18.0692C154.426 18.2383 154.314 18.4924 154.314 18.8306C154.314 19.2528 154.482 19.5633 154.848 19.7611C155.213 19.9568 155.75 20.1556 156.398 20.3237C157.412 20.5778 158.172 20.916 158.623 21.3966C159.103 21.8465 159.355 22.4112 159.355 23.1162C159.355 24.0446 158.96 24.7774 158.257 25.2856C157.525 25.7909 156.567 26.045 155.385 26.045ZM168.173 18.2947C168.595 18.6892 168.933 19.1688 169.159 19.7047C169.355 20.2386 169.469 20.832 169.469 21.4796C169.469 22.0996 169.385 22.7206 169.159 23.2545C168.951 23.7992 168.623 24.2902 168.2 24.6913C167.751 25.1432 167.214 25.4517 166.594 25.6781C165.976 25.9046 165.243 26.0163 164.454 26.0163C163.749 26.0163 163.13 25.9323 162.54 25.7345C161.968 25.5419 161.44 25.2355 160.989 24.8337C160.56 24.4367 160.215 23.9566 159.975 23.4226C159.709 22.8292 159.575 22.1853 159.581 21.535C159.581 20.8586 159.693 20.2376 159.919 19.7314C160.145 19.1954 160.455 18.7158 160.905 18.2936C161.352 17.881 161.88 17.5646 162.454 17.3642C163.129 17.154 163.833 17.0493 164.54 17.0537C165.329 17.0537 166.032 17.1664 166.624 17.3642C167.243 17.5896 167.751 17.9001 168.173 18.2947ZM166.005 24.2137C166.116 23.9032 166.229 23.5087 166.286 23.0568C166.397 22.0741 166.397 21.082 166.286 20.0993C166.228 19.591 166.144 19.1975 166.032 18.887C165.915 18.5636 165.722 18.2735 165.468 18.0415C165.203 17.836 164.875 17.7268 164.54 17.7321C164.144 17.7321 163.806 17.8448 163.581 18.0702C163.327 18.2957 163.157 18.5785 163.017 18.9444C162.894 19.3107 162.809 19.6888 162.763 20.0726C162.736 20.4948 162.707 20.9734 162.707 21.4253C162.707 22.0453 162.734 22.5526 162.763 22.9748C162.791 23.3693 162.906 23.7936 163.045 24.1881C163.185 24.554 163.383 24.8368 163.609 25.0325C163.861 25.2303 164.171 25.343 164.539 25.343C164.875 25.343 165.185 25.2313 165.412 25.0612C165.667 24.8624 165.862 24.5806 166.005 24.2137ZM180.932 25.7632H175.778V25.1442C175.89 25.1145 176.032 25.1145 176.172 25.0858C176.342 25.0581 176.454 25.0295 176.538 25.0018C176.656 24.9449 176.747 24.8437 176.792 24.72C176.848 24.6083 176.876 24.4382 176.876 24.2137V20.211C176.876 19.6197 176.764 19.1965 176.538 18.9146C176.342 18.6052 176.032 18.4648 175.61 18.4648C175.384 18.4648 175.158 18.4924 174.962 18.5775C174.761 18.6428 174.57 18.7378 174.397 18.8593C174.229 18.972 174.087 19.0848 174.003 19.2251C173.891 19.3379 173.805 19.4506 173.749 19.5357V24.101C173.749 24.2988 173.777 24.4669 173.833 24.6093C173.888 24.7425 173.988 24.8524 174.115 24.9198C174.201 24.9762 174.312 25.0038 174.453 25.0602C174.595 25.0879 174.734 25.1166 174.847 25.1463V25.7652H169.664V25.1463C169.806 25.1166 169.945 25.1166 170.088 25.0879C170.256 25.0602 170.367 25.0315 170.482 25.0038C170.65 24.9475 170.792 24.8358 170.848 24.722C170.904 24.5816 170.959 24.4115 170.959 24.2158V19.2262C170.959 19.0571 170.903 18.888 170.819 18.7189C170.719 18.5604 170.596 18.4178 170.453 18.2957C170.34 18.2393 170.227 18.183 170.059 18.1266C169.897 18.0664 169.724 18.0376 169.551 18.0415V17.4215L173.608 17.1961L173.748 17.3088V18.5488H173.776C173.946 18.4084 174.141 18.2383 174.368 18.0415C174.594 17.8448 174.79 17.6757 174.987 17.563C175.183 17.4215 175.466 17.3088 175.804 17.1961C176.142 17.111 176.508 17.0557 176.901 17.0557C177.831 17.0557 178.536 17.3375 178.986 17.8448C179.466 18.3797 179.69 19.0848 179.69 19.9579V24.1307C179.69 24.3265 179.72 24.4966 179.776 24.637C179.814 24.7073 179.866 24.7688 179.929 24.8174C179.992 24.866 180.064 24.9005 180.142 24.9188C180.226 24.9751 180.337 25.0028 180.452 25.0592C180.592 25.0868 180.762 25.1155 180.93 25.1453V25.7632H180.932ZM19.927 8.03567L19.9546 7.97931L20.0396 7.86658L20.1246 7.78255L20.1523 7.72619L20.0683 7.44437L19.8993 7.27528L19.7303 7.07853L19.674 6.74036L19.7027 6.51491L19.843 6.31815L20.012 6.14906L20.2086 5.92361L20.181 5.69816L20.096 5.58543L19.9546 5.6131L19.758 5.66947C19.1609 6.58459 19.3934 7.33882 19.927 8.03567ZM17.7015 22.861L19.589 17.1674L19.8706 17.0823L20.0683 17.1387L20.2373 17.2791L20.3499 17.5046L20.4626 17.7587L20.6039 17.9842L20.7729 18.2096L20.9982 18.351L22.1811 18.0692L20.2096 11.4184L16.9426 22.1847L17.0839 22.3804L17.2243 22.6346L17.3943 22.861L17.6196 23.1152V23.0875L17.6759 22.9738L17.7036 22.8897V22.861H17.7015ZM18.0671 23.8192H18.3774L18.5741 23.7915L18.7431 23.7331L19.504 22.7206L18.6591 21.536L19.6167 18.6052L24.9401 17.7884L24.7998 17.7023L24.6298 17.6183L24.4608 17.5056L24.2919 17.3652L24.0112 16.407L23.7296 15.4765L23.3916 14.5184L22.9973 13.6166L22.518 12.7424L21.9548 11.897L21.2502 11.1643L20.4339 10.4879L18.3488 12.1512L16.0956 16.5484L17.2499 18.183L16.8556 19.8738L16.7142 19.9865L16.5176 20.0993L16.321 20.211L16.0956 20.3534L17.6165 23.7915H17.7015L17.7865 23.7639L17.9268 23.7915L18.0671 23.8192ZM25.7287 25.2006L29.0808 12.3192L28.9968 12.2629L28.9118 12.2352H28.7991L28.6865 12.2075H28.4611L28.3208 12.1788L28.2082 12.1225L27.9829 11.9534L27.9255 11.6716L27.8979 11.3334L27.7576 11.0239L26.9126 13.842L25.5608 13.8697L25.4481 13.842L25.3631 13.7006L25.2781 13.5315L25.2218 13.2774L26.1507 11.5865L25.9254 10.9665L25.6151 10.3742L25.2208 9.78187L24.7415 9.24695L24.2069 8.73968L23.6436 8.31645L22.9963 7.92192L22.348 7.64011L22.1227 7.6688H21.7284L21.5881 8.1197L21.4181 8.48554L21.3055 8.88008V9.35967L21.8974 9.83824L22.4607 10.3732L22.94 10.9091L23.4183 11.5004L23.8412 12.1204L24.2355 12.7681L24.6012 13.4444L24.9391 14.1208L25.2494 14.8535L25.5311 15.5862L25.7851 16.3476L26.039 17.108L26.293 17.8981L26.5184 18.6871L26.715 19.5049L26.9413 20.3206L26.8287 20.8853L26.6873 21.3936L26.5747 21.9275L26.4344 22.4081L26.3217 22.8867L26.2091 23.3652L26.0964 23.8171L26.0114 24.2394L23.7296 24.9157H23.9549L24.1802 24.9434L24.4055 24.971L24.6585 24.9987L24.9125 25.0551L25.1665 25.1114L25.4481 25.1411L25.7287 25.2006ZM15.2507 25.9056L15.3071 25.6515L15.3634 25.425L15.4484 25.1729L15.561 24.8624L15.5897 24.7763L15.7024 24.6923L15.8714 24.6083L16.0967 24.5242L14.7448 19.9005L14.7725 19.8728L14.8851 19.8164L14.9701 19.676L15.0828 19.4783L14.4632 18.8019L13.9562 18.0692L13.5343 17.2525L13.1963 16.3783L12.9423 15.4478L12.802 14.5184L12.7457 13.5592L12.7733 12.601L12.6607 12.4043L12.4917 12.3192H12.294L12.0687 12.4043L11.8434 13.2497L11.7871 14.0664L11.8434 14.8279L12.0124 15.5606L12.2664 16.2933L12.548 16.9983L12.9136 17.7034L13.2803 18.3797L13.6459 19.0848L13.9839 19.7898L14.2942 20.5225L14.5195 21.2552L14.6885 22.0156L14.7161 22.8344L14.6311 23.6788L14.4058 24.554L14.4908 25.1739L14.6311 25.5961L14.8278 25.9067L14.9967 26.0747L15.0254 26.0471L15.1381 25.9907L15.2231 25.9343L15.2507 25.9056ZM20.3489 32.8105H20.4616L20.5466 32.7829H21.3341L21.5595 32.5564L21.6168 32.3586L21.5595 32.1629L21.4468 31.9651L21.2778 31.7694L21.1088 31.5716L20.9962 31.3759L20.9398 31.1494L23.5596 27.2604L25.1091 30.8952H26.3483L26.6863 29.7403L27.0243 28.5557L27.3059 27.3444L27.5876 26.0757L27.8415 24.8368L28.0955 23.5394L28.3495 22.2708L28.6312 21.0021L28.9128 19.7355L29.2508 18.4955L29.5887 17.2832L30.0117 16.0996L30.4623 14.9437L30.9693 13.8451L31.5326 12.8019L32.1798 11.816H32.3488L32.5178 11.8724L32.6868 11.9575L32.8834 12.1266L33.0247 12.2669L33.1374 12.4924L33.25 12.7742L33.3904 13.1124L33.419 13.1974L33.5317 13.2538L33.7007 13.3389L33.9547 13.3952L34.095 13.3676L34.2639 13.3112L34.3766 13.2261L34.4616 13.0857L34.6869 11.733L34.4616 11.4789L34.2076 11.2821L33.926 11.1407L33.588 11.0003L33.25 10.8876L32.8834 10.7749L32.5178 10.6335L32.1522 10.4367L32.0672 10.2676L31.9545 10.0985L31.7568 9.95712L31.4752 9.78803L29.4751 10.408L29.3624 10.3793L29.1934 10.3516L28.9968 10.2666L28.7991 10.1815L28.7704 10.0688L28.7428 9.95609L28.7151 9.787L28.7715 9.61792L30.152 9.19571L30.2647 8.94156L30.3773 8.60236L30.405 8.20783L30.32 7.78562L30.2913 7.70057L30.1786 7.6442L30.0097 7.58784L29.7843 7.50278L29.5877 7.53045L29.4187 7.58682L29.3061 7.69954L29.1934 7.84096L29.0808 7.98238L28.9681 8.15147L28.8831 8.32056L28.7704 8.48964L28.5738 8.65872L28.3485 8.77145L28.0945 8.82781L27.8129 8.79912L27.5312 8.74276L27.2496 8.6577L26.9956 8.57264L26.7703 8.45992L26.4047 8.17811L26.039 7.92397L25.6448 7.72516L25.2228 7.52738L24.7998 7.35829L24.4055 7.2179L23.9826 7.04881L23.5883 6.90739L23.194 6.7383L22.7997 6.54053L22.4607 6.34377L22.1514 6.09065L21.8698 5.80884L21.6445 5.49833L21.4468 5.1038L21.3065 4.6529L21.1099 4.5125L20.8845 4.42744L20.6306 4.37108H20.3489L20.0683 4.39875L19.758 4.45511L19.504 4.56784L19.25 4.70926L19.081 5.1038L18.9397 5.52702L18.7994 6.00559L18.7431 6.48519L18.7154 6.99245L18.7431 7.47204L18.8557 7.95061L19.0523 8.42918L19.249 8.48554L19.334 8.5419L19.3903 8.59826L19.6156 8.73968L15.5027 14.8555L15.4187 14.8842L15.2774 14.9406L15.136 14.9682L14.967 14.9119L15.39 10.1764L17.9811 7.44232L17.8121 7.24557L17.5868 7.16051L17.3052 7.18818L17.0235 7.27324L16.7132 7.41465L16.4326 7.58374L16.2063 7.75283L16.0096 7.94959L15.5877 8.40048L15.221 8.79502L14.8554 9.16189L14.5738 9.52773L14.2921 9.92227L14.0381 10.2881L13.8128 10.7113L13.6152 11.1909L13.4185 11.4164L13.1932 11.5004L12.9116 11.4727L12.6299 11.4164L12.3207 11.3313L12.0103 11.275L11.7 11.3026L11.4184 11.4154L9.33528 10.6847L8.96966 10.9665L8.57537 11.1356L8.09607 11.2207L7.61677 11.3057L7.10982 11.3334L6.63052 11.4184L6.15225 11.5588L5.72927 11.7556L5.56029 12.0948L5.50396 12.517L5.47631 12.9966L5.41998 13.4475L5.44866 13.6729L5.58897 13.842L5.75897 13.9537L5.95561 14.0388L6.20857 14.0664H6.49021L6.74318 14.0388L6.99716 13.9537L7.05349 13.757L7.1385 13.5038L7.2235 13.2497L7.39248 13.0243L7.87178 13.0529L8.2374 13.1933L8.54772 13.4752L8.82833 13.8133L9.05467 14.2079L9.2513 14.6024L9.47661 14.9969L9.7306 15.3351L9.98459 16.8292L9.95693 18.267L9.78795 19.6771L9.61897 21.0585L10.0696 21.5083L10.5192 21.9869L10.9422 22.4952L11.3088 23.0014L11.6744 23.5661L12.04 24.1307L12.3504 24.721L12.6596 25.341L12.9413 25.9897L13.1953 26.6383L13.4493 27.287L13.6459 27.9921L13.8712 28.6684L14.0402 29.4011L14.2102 30.1062L14.3792 30.8389L15.5907 30.7825L16.5196 24.8358L16.9703 24.8921L17.3932 25.0325L17.7589 25.259L18.1245 25.5131L18.4911 25.8493L18.8854 26.1895L19.2797 26.5553L19.7303 26.8915L20.2936 25.2867L20.181 24.7784L20.012 24.2445L19.8706 23.7085L19.8143 23.1746L20.181 23.231L20.4626 23.399L20.7166 23.6532L20.9142 23.9637L21.1109 24.3295L21.3362 24.6677L21.5615 24.9782L21.8431 25.26L21.9558 25.2877H22.0684L22.1811 25.26L22.2938 25.2037L22.4064 25.1473L22.5477 25.1176L22.6891 25.0899L22.8304 25.1176L22.9154 25.176L23.0004 25.2877L23.0844 25.4558L23.1694 25.6822L23.1131 26.1905L22.9441 26.5851L22.6338 26.9232L22.2682 27.1753L21.8452 27.4295L21.3946 27.6559L20.9439 27.908L20.521 28.1899H20.268L20.0714 28.2175H19.8737L18.7748 27.2604L18.4942 27.7389L18.3529 28.2749L18.3815 28.8652L18.5229 29.5139L18.7195 30.1338L19.0011 30.7538L19.3104 31.3164L19.6207 31.797L19.6494 31.9928L19.6771 32.1906L19.7334 32.4447L19.8737 32.6968H20.0437L20.1851 32.7552L20.3489 32.8105ZM18.7431 35.8264L19.5603 35.8828L20.3766 35.9105L21.1928 35.8828L21.9824 35.8264L22.7997 35.7404L23.5883 35.6287L24.3492 35.4585L25.1102 35.2628L25.8424 35.0087L26.547 34.6982L27.1943 34.36L27.8426 33.9655L28.4345 33.5156L28.9691 33.0073L29.4761 32.4734L29.9267 31.8534L30.49 30.7549L30.8556 29.6256L31.0246 28.4983L31.0533 27.3711L30.9129 26.2725L30.6313 25.2293L30.2657 24.2148L29.7864 23.2843H28.9681L28.5451 24.4669L28.4038 25.7078V26.9765L28.4601 28.2452L28.4038 29.4841L28.1222 30.6391L27.4749 31.712L26.376 32.6404L25.7564 33.0063L25.1368 33.3168L24.5172 33.5709L23.8699 33.7687L23.2503 33.9368L22.6031 34.0485L21.9558 34.1345L21.3362 34.1622H20.6889L20.0406 34.1345L19.421 34.0485L18.7728 33.9644L18.1532 33.824L17.5335 33.6539L16.9416 33.4582L16.3496 33.2317L15.73 32.8936L15.0828 32.4713L14.4345 32.0194L13.8149 31.5409L13.2229 30.9762L12.6883 30.3859L12.2377 29.7096L11.8711 29.0045L12.0124 28.5526L12.0974 28.1304V27.3137L12.0124 26.9478L11.8711 26.6097L11.6744 26.2991L11.4491 26.0727L11.2801 26.0163L11.0825 25.9886H10.8572L10.6318 26.0163L10.3779 26.0727L10.1525 26.129L9.95591 26.2428L9.78693 26.3545L10.3789 33.0052L10.5479 33.1754L10.7445 33.2594L10.9698 33.2871L11.2238 33.2307L11.4778 33.1743L11.7594 33.118L12.0411 33.0319L12.2951 32.9755L18.7431 35.8264ZM4.18077 20.1546L5.89928 18.4637L7.61677 20.1546L5.89928 21.8742L4.18077 20.1546ZM20.2649 2.11659C30.0957 2.11659 38.1229 10.1498 38.1229 20.0142C38.1229 29.851 30.0957 37.8842 20.2649 37.8842C10.4065 37.8842 2.37828 29.85 2.37828 20.0142C2.37828 10.1498 10.4055 2.11659 20.2649 2.11659ZM20.2649 0.678833C30.8843 0.678833 39.5598 9.35967 39.5598 20.0132C39.5598 30.638 30.8843 39.3209 20.2649 39.3209C9.61794 39.3209 0.941406 30.638 0.941406 20.0132C0.941406 9.36069 9.61692 0.678833 20.2649 0.678833ZM32.1511 20.3534L33.8696 18.6615L35.5595 20.3534L33.8696 22.073L32.1511 20.3534Z" fill="#F4F4F4"/>
</g>
<defs>
<clipPath id="clip0_712_7934">
<rect width="181" height="40" fill="white"/>
</clipPath>
</defs>
</svg>
