<svg width="110" height="38" viewBox="0 0 110 38" fill="none" xmlns="http://www.w3.org/2000/svg">
<path d="M0.0371094 16.1129V0.335785H34.7877V4.59432H16.8637C16.8637 4.59432 14.4338 4.59432 14.4338 7.77539H34.6963V11.803H14.4338V16.1129H0.0371094Z" fill="#F4F4F4"/>
<path d="M38.2629 0.297302L35.3496 16.0616H49.5503L50.9351 12.2263H58.3294L59.8971 16.0616H73.0004L69.9565 0.297302H38.2629ZM51.327 8.22433C51.327 6.40291 52.8294 4.92781 54.6845 4.92781C56.5396 4.92781 58.042 6.40291 58.042 8.22433H51.327Z" fill="#F4F4F4"/>
<path d="M73.8784 0.387115L73.8262 16.0872H108.237C110.327 16.0872 110.719 12.9318 110.719 12.9318V0.387115H73.8784ZM96.4663 12.2905H87.7917V9.67379H97.015C97.015 9.67379 98.3998 11.29 96.4663 12.2905ZM97.015 6.85187H87.7917V4.23519H96.4663C98.3998 5.23568 97.015 6.85187 97.015 6.85187Z" fill="#F4F4F4"/>
<path d="M7.42043 21.2565C12.633 21.2565 15.0499 23.8732 15.0499 29.5042C15.0499 32.3902 14.2399 34.4682 12.5677 35.7765C10.9869 37.0207 9.4715 37.1747 7.51188 37.1747H0V21.2565H7.42043ZM3.40974 24.0271V34.404H7.35511C10.386 34.404 11.3266 33.147 11.3266 29.222C11.3266 25.3226 10.3729 24.0399 7.35511 24.0399H3.40974V24.0271Z" fill="#E03616"/>
<path d="M20.2517 27.7212H29.6841V30.4918H20.2256C20.2517 33.3522 21.4014 34.3912 24.0795 34.3912H29.6841V37.1618H23.9228C21.9632 37.1618 20.4477 37.0079 18.867 35.7637C17.1947 34.4554 16.3848 32.3774 16.3848 29.4913C16.3848 23.8603 18.8016 21.2437 24.0142 21.2437H29.6841V24.0143H24.0795C21.6235 24.0271 20.3824 25.22 20.2517 27.7212Z" fill="#E03616"/>
<path d="M34.189 23.0779C35.4563 21.8209 37.5073 21.2565 40.5121 21.2565H45.6986V24.0271H40.2116C37.2983 24.0271 35.9919 25.1559 35.9396 27.9008H45.6855V30.6586H35.9527V37.1747H32.543V29.8634C32.543 26.6823 32.7259 24.5402 34.189 23.0779Z" fill="#E03616"/>
<path d="M50.8078 27.7212H60.2401V30.4918H50.7817C50.8078 33.3522 51.9574 34.3912 54.6356 34.3912H60.227V37.1618H54.4657C52.5061 37.1618 50.9907 37.0079 49.4099 35.7637C47.7377 34.4554 46.9277 32.3774 46.9277 29.4913C46.9277 23.8603 49.3446 21.2437 54.5572 21.2437H60.227V24.0143H54.6356C52.1795 24.0271 50.9384 25.22 50.8078 27.7212Z" fill="#E03616"/>
<path d="M67.5299 21.2565L74.1665 32.6852L74.0097 21.2565H77.4848V37.1618H73.5394L66.5632 25.1302L66.7199 37.1618H63.2188V21.2565H67.5299Z" fill="#E03616"/>
<path d="M86.0654 24.0912C84.2887 24.0912 83.4526 24.7069 83.4526 26.1692C83.4526 27.3236 84.1711 27.9008 85.5951 27.9008H90.1153C93.721 27.9008 95.2887 29.0809 95.2887 32.4031C95.2887 35.7509 93.4597 37.1619 89.6189 37.1619H80.5393V34.3271H89.0702C90.873 34.3271 91.7091 33.9038 91.7091 32.5313C91.7091 31.1076 90.9384 30.6971 89.2923 30.6971H85.2685C81.5714 30.6971 79.873 29.3246 79.873 26.1307C79.873 22.6803 81.702 21.2565 85.5559 21.2565H94.4787V24.0912H86.0654Z" fill="#E03616"/>
<path d="M100.661 27.7212H110.094V30.4918H100.635C100.661 33.3522 101.811 34.3912 104.489 34.3912H110.081V37.1618H104.319C102.36 37.1618 100.844 37.0079 99.2634 35.7637C97.5912 34.4554 96.7812 32.3774 96.7812 29.4913C96.7812 23.8603 99.1981 21.2437 104.411 21.2437H110.081V24.0143H104.489C102.046 24.0271 100.805 25.22 100.661 27.7212Z" fill="#E03616"/>
</svg>
