<svg width="91" height="60" viewBox="0 0 91 60" fill="none" xmlns="http://www.w3.org/2000/svg">
<path d="M4.33135 7.31765V13.6203C4.33097 14.2845 4.46758 14.9411 4.73206 15.5464C4.99655 16.1518 5.38286 16.692 5.86526 17.1311H56.6638V7.35412C56.6059 7.02966 56.4401 6.73627 56.1951 6.52458C55.9501 6.31288 55.6413 6.19617 55.3218 6.19459H40.0143C39.7609 5.46953 39.2974 4.84275 38.6867 4.39959C38.076 3.95644 37.348 3.71845 36.6017 3.71805H25.5315C26.6974 8.56775 23.1447 13.2598 18.3067 13.2598C13.4687 13.2598 9.916 8.56756 11.0822 3.71844H7.80256C5.88273 3.72523 4.33041 5.33475 4.33135 7.31765ZM81.147 7.61907L81.6447 6.96347L83.1275 4.73792C83.7467 3.81309 84.8064 3.81309 85.4254 4.73792L86.8554 7.60899H88.5146V13.3007H59.7981V7.61907H81.151H81.147ZM3.65942 57.622C7.05663 60.6473 13.2989 60.3246 17.1136 57.887C21.0986 55.3408 17.8855 51.6815 23.1475 44.7738C24.7616 42.6534 29.0461 36.5408 32.8133 30.9907C33.9727 29.2811 36.2002 30.3075 41.0015 32.2722C42.1965 32.5418 43.7208 32.6194 44.4904 32.6857C48.0615 32.6857 52.3939 29.2551 52.7943 26.3968C53.2024 23.4842 51.5254 22.6362 53.3254 22.1309C53.9504 21.9554 55.0644 21.1524 55.1414 20.3723H47.4367C49.0352 21.2626 50.093 22.8003 50.093 24.5406C50.093 27.2921 47.4658 29.5216 44.216 29.5216C40.966 29.5216 38.3391 27.296 38.3391 24.5406C38.3391 22.7962 39.397 21.2626 40.9955 20.3723H10.9233C15.2783 24.2915 13.006 28.8702 11.4503 31.1202L1.65527 45.3262C-1.07808 49.2932 0.611698 54.9081 3.65942 57.622ZM7.62941 50.1971C7.62941 47.8951 10.3237 46.7426 11.8999 48.3703C13.4755 49.9977 12.3596 52.7811 10.1308 52.7811C8.74923 52.7811 7.62941 51.6239 7.62941 50.1971ZM42.9724 27.478C41.1457 26.1179 41.5114 22.5893 42.0301 20.3763H44.4338C43.0113 22.0347 42.2834 25.6634 42.9724 27.478ZM22.6143 5.55723C22.6143 9.52322 17.972 11.5088 15.2571 8.70469C12.5423 5.90074 14.4646 1.10593 18.3044 1.10593C20.6845 1.10593 22.6143 3.09891 22.6143 5.55723Z" fill="url(#paint0_linear_380_10643)"/>
<defs>
<linearGradient id="paint0_linear_380_10643" x1="44.3969" y1="17.205" x2="44.3969" y2="20.3084" gradientUnits="userSpaceOnUse">
<stop stop-color="#313740"/>
<stop offset="1" stop-color="white"/>
</linearGradient>
</defs>
</svg>
