<svg width="90" height="60" viewBox="0 0 90 60" fill="none" xmlns="http://www.w3.org/2000/svg">
<path d="M0.263672 53.7873C1.03711 55.6647 2.95312 57.0756 5.58984 57.7053L6.76758 57.9851L15.1172 57.9851L23.4668 57.9851L24.5742 57.5887C25.8574 57.1222 26.6133 56.5975 27.1934 55.7463C27.5625 55.2099 27.8086 54.0555 29.2324 45.8699L30.8496 36.5882L33.8027 36.5882C36.7031 36.5882 36.7559 36.5882 37.1777 36.2967L37.6172 36.0168L37.6172 26.7934L37.6172 17.57L37.1777 17.2901L36.7559 16.9986L31.6055 16.9986L26.4375 16.9986L22.9395 16.0658L19.4414 15.133L14.8008 15.133L10.1777 15.133L9.75586 15.4245C9.33398 15.6927 9.3164 15.751 9.3164 17.465C9.3164 19.7622 9.28125 19.7272 12.1289 19.8321C14.3965 19.9137 16.2422 20.1936 18 20.7183C19.3008 21.1148 21.6211 22.0942 21.6211 22.2458C21.6211 22.4324 20.3203 22.5956 18.7559 22.5956C17.3848 22.5956 17.1738 22.6306 16.8223 22.8522C16.5234 23.0621 16.1367 23.9249 15.1523 26.5719L13.8516 30.035L11.9883 30.0817C10.3711 30.1166 9.9668 30.1633 9.10547 30.4431C7.83984 30.8512 6.45117 31.8424 6.08203 32.5887C5.87109 33.0317 3.69141 39.9231 2.02148 45.5084C1.88086 45.9515 1.37109 47.6306 0.878906 49.2165C-0.0527346 52.2598 -0.123047 52.8429 0.263672 53.7873ZM9.49219 44.1791C11.4258 37.6959 11.4609 37.6026 12.9375 36.9497C14.0449 36.4716 14.6426 36.4133 17.2266 36.5532C19.8457 36.7048 20.6895 36.903 21.6035 37.591C22.6406 38.3722 22.7812 38.8736 22.5352 40.9609C21.9727 45.7766 21.2344 51.0355 21.0762 51.4553C20.8125 52.1082 19.3359 53.0527 18.2285 53.251C16.9453 53.4958 11.1621 53.146 10.0547 52.7729C8.75391 52.3298 7.75195 51.3037 7.75195 50.4058C7.73437 50.2076 8.52539 47.4091 9.49219 44.1791ZM15.5039 16.9986L18.8965 16.9986L21.6211 17.7099C23.1152 18.1064 24.3984 18.4678 24.4687 18.5028C24.6094 18.5845 24.2227 20.2402 23.959 20.7067C23.8184 20.9632 23.8008 20.9632 22.8516 20.4851C20.2148 19.1791 17.0508 18.3046 13.9043 18.0481L12.1289 17.8965L12.1289 17.4417L12.1289 16.9986L15.5039 16.9986Z" fill="#313740"/>
<path d="M39.1992 48.0621C39.5156 48.7384 40.6582 49.2981 41.748 49.2981C42.3984 49.2981 44.7715 48.7384 46.4238 48.1903C50.4668 46.8494 54.334 44.7155 57.0059 42.3601C59.3262 40.3079 60.8379 38.1157 61.9453 35.2589C62.2969 34.3727 62.7715 33.4282 63 33.16C64.0547 31.9706 66.2344 30.9795 68.291 30.758C68.8711 30.6997 72 30.5947 75.2344 30.5247C81.6152 30.3965 82.3535 30.3265 84.375 29.6735C85.8516 29.1955 87.9609 27.8195 88.7344 26.8284C89.9121 25.3242 90 24.8578 90 19.5406L90 14.7715L89.5605 14.4916L89.1387 14.2001L64.5996 14.2001L40.043 14.2001L39.5332 14.5383L39.0234 14.8764L39.041 31.306C39.041 40.3312 39.1289 47.8755 39.1992 48.0621Z" fill="#F4F4F4"/>
<path d="M48.1273 58.9646C48.2855 59.1861 48.6546 59.4776 48.9183 59.6059C49.4105 59.8391 49.6214 59.8508 56.2484 59.8508C62.8753 59.8508 63.0863 59.8391 63.5785 59.6059C63.8421 59.4776 64.2113 59.1861 64.3871 58.9646C64.6683 58.5914 64.6859 57.8219 64.6507 46.8494L64.598 35.1306L64.1761 35.0956C63.5961 35.0373 63.4906 35.1539 63.1039 36.1917C61.2054 41.4389 56.2836 45.9982 49.2523 49.0299L47.8109 49.6479L47.8109 54.1138C47.8109 58.125 47.8461 58.6031 48.1273 58.9646ZM52.2406 51.5835C52.5218 50.9422 53.9808 49.9744 54.9476 49.7878C56.6 49.4613 57.9183 49.6945 59.1488 50.5224C60.9418 51.7001 60.9418 53.1927 59.1488 54.3704C57.3734 55.5597 55.1234 55.5597 53.348 54.3704C52.1 53.5541 51.766 52.6796 52.2406 51.5835Z" fill="#313740"/>
<path d="M55.2832 53.0877C55.5469 53.2743 55.916 53.3792 56.25 53.3792C56.584 53.3792 56.9531 53.2743 57.2168 53.0877C57.498 52.9128 57.6562 52.6679 57.6562 52.4464C57.6562 52.2248 57.498 51.98 57.2168 51.8051C56.9531 51.6185 56.584 51.5135 56.25 51.5135C55.916 51.5135 55.5469 51.6185 55.2832 51.8051C55.002 51.98 54.8437 52.2248 54.8437 52.4464C54.8437 52.6679 55.002 52.9128 55.2832 53.0877Z" fill="#313740"/>
<path d="M48.0937 12.591C48.6211 13.2556 48.7441 13.2673 56.25 13.2673C62.0508 13.2673 63.2109 13.244 63.6328 13.0924C64.6875 12.7309 64.6875 12.7426 64.6875 6.88901C64.6875 1.00048 64.6875 1.04712 63.5801 0.51074C63.0879 0.277532 62.877 0.265871 56.25 0.265871C49.623 0.265872 49.4121 0.277532 48.9199 0.510741C47.7949 1.04712 47.8125 1.00048 47.8125 6.91233C47.8301 11.4249 47.8652 12.3228 48.0937 12.591ZM52.2422 6.80738C52.6992 5.80459 54.6328 4.87175 56.25 4.87175C58.4297 4.87175 60.4687 6.22436 60.4687 7.67026C60.4687 9.11615 58.4297 10.4688 56.25 10.4688C55.1426 10.4688 54.2461 10.2006 53.3496 9.59423C52.1016 8.778 51.7676 7.90347 52.2422 6.80738Z" fill="#313740"/>
<path d="M55.2832 8.31157C56.1445 8.8946 57.6562 8.48648 57.6562 7.67025C57.6562 7.19217 56.9707 6.73741 56.25 6.73741C55.5293 6.73741 54.8437 7.19217 54.8437 7.67025C54.8437 7.8918 55.002 8.13667 55.2832 8.31157Z" fill="#313740"/>
</svg>
