<svg width="51" height="70" viewBox="0 0 51 70" fill="none" xmlns="http://www.w3.org/2000/svg">
<path d="M38.5448 22.1577C42.0324 18.4579 44.7351 13.9753 46.6014 8.81081C46.6559 8.51168 47.2686 5.0692 47.3131 1.22989C46.5394 4.8927 44.7316 11.7201 41.2598 16.6733C39.3168 19.4458 37.7635 21.3943 36.4531 22.859C36.95 22.9312 37.8291 22.9182 38.5448 22.1576V22.1577Z" fill="#F4F4F4"/>
<path d="M8.5306 61.8767C8.46563 61.8121 7.3156 60.6671 5.21809 61.0032C2.33738 61.6791 1.50165 63.6074 1.46719 63.6888C1.46544 63.6932 1.46076 63.6964 1.459 63.7008C1.45666 63.7056 1.45724 63.7105 1.45432 63.7154C1.44729 63.7274 1.29337 63.9994 0.966797 64.4831C2.03723 66.3951 2.5118 68.6547 2.75767 69.9972C3.83454 69.2589 4.53925 69.2155 4.57132 69.2144L5.76525 69.254C8.34331 69.342 10.5176 67.4678 10.6124 65.0764C10.6563 63.97 10.2507 62.9174 9.47527 62.0856C9.07731 62.2066 8.7045 62.0264 8.53067 61.8766L8.5306 61.8767ZM5.86774 68.8322C3.64791 68.7567 1.90843 67.02 1.98979 64.9609C2.07114 62.9018 3.94337 61.2883 6.16319 61.3637C8.38242 61.4392 10.1225 63.1759 10.0405 65.235C9.95919 67.2947 8.08696 68.9082 5.86759 68.8322H5.86774Z" fill="#F4F4F4"/>
<path d="M50.2067 62.3784C49.9205 62.4023 49.6384 62.3295 49.519 62.0728C49.3522 61.7009 49.5237 61.3941 49.7502 61.2068L49.6788 61.0749C49.5899 61.0945 49.4869 61.1032 49.3792 61.0804C49.2569 61.0543 49.0854 60.9794 48.9625 60.7671C48.7571 60.4131 48.9625 60.069 49.189 59.8518L49.1234 59.7112C48.983 59.7449 48.8127 59.759 48.6505 59.6976C48.5487 59.6585 48.4106 59.5728 48.3281 59.3849C48.1923 59.0749 48.369 58.7948 48.5727 58.6108L48.506 58.5049C48.4211 58.5201 48.3263 58.4995 48.2385 58.4772C48.0185 58.4218 47.8417 58.2926 47.7288 58.1037C47.545 57.7975 47.6936 57.493 47.8763 57.291C47.8604 57.2649 47.8435 57.2362 47.8253 57.2068C47.7299 57.2237 47.6252 57.2264 47.521 57.2036C47.3472 57.1645 47.2032 57.0614 47.1043 56.9066C46.9808 56.7134 46.9159 56.399 47.2518 55.9625C43.7736 49.7931 40.6319 46.2562 39.6868 45.2546C39.3292 45.0993 38.2687 44.5629 36.5954 43.0933C35.1451 41.8191 34.2145 40.3023 34.1783 40.2426L33.4842 39.1465C33.3952 39.0694 33.0891 38.8099 32.5846 38.4195C32.4793 38.5477 32.3868 38.6372 32.3681 38.6551C32.0883 38.9646 31.187 39.774 29.7391 39.4103C29.8988 39.2697 30.0633 39.1258 30.2278 38.9809C31.026 39.0629 31.5668 38.7062 31.8501 38.4342C31.7459 38.2257 31.6101 38.033 31.4878 37.8767C33.24 36.3457 35.1281 34.7149 36.7943 33.3333C37.0366 33.1329 37.3012 32.9158 37.5844 32.684C41.6724 29.3382 50.1797 22.3756 50.5345 13.4283C50.7633 7.64165 48.8478 2.33875 47.8511 0C47.9489 4.34478 47.2009 8.55002 47.1377 8.89581C47.3156 14.0989 45.5832 18.5397 43.8995 20.962C42.2701 23.3067 41.5486 24.2519 38.4425 26.8812C36.3303 28.6694 32.2997 32.2324 29.6314 34.5897C29.3089 34.8747 29.0046 35.144 28.7231 35.3926C28.5932 35.2802 28.4609 35.1651 28.3245 35.0473C28.6125 34.7927 28.9244 34.5169 29.2557 34.2243C31.925 31.8648 35.9586 28.3003 38.0749 26.5081C41.131 23.9202 41.8399 22.9924 43.4404 20.6884C44.9229 18.5543 46.4452 14.8067 46.5932 10.3463C44.7351 14.9978 42.1768 19.0701 38.9767 22.4647C37.9115 23.595 36.5508 23.4098 36.0551 23.2931C34.4837 24.9962 33.2651 26.0021 32.131 26.9342L31.558 27.4071C30.5443 28.2534 27.9775 30.4635 25.5011 32.6037C23.0256 30.4637 20.458 28.2535 19.4431 27.4071L18.8701 26.9342C17.7353 26.0021 16.5174 24.9967 14.9454 23.2931C14.4497 23.4098 13.0889 23.595 12.0238 22.4647C8.82365 19.0694 6.26597 14.9977 4.40722 10.3463C4.55529 14.8073 6.07749 18.5543 7.56002 20.6884C9.16076 22.9918 9.87004 23.9202 12.9256 26.5081C15.0419 28.2997 19.0761 31.8648 21.7448 34.2243C22.0766 34.5174 22.388 34.7927 22.6765 35.0473C22.5402 35.1651 22.4079 35.2802 22.278 35.3926C21.9965 35.1439 21.6915 34.8747 21.3697 34.5897C18.702 32.2319 14.6708 28.6694 12.5585 26.8812C9.45263 24.2519 8.73092 23.3067 7.10216 20.962C5.41842 18.5396 3.68598 14.0988 3.86397 8.89581C3.80076 8.54998 3.0528 4.34534 3.15054 0C2.15327 2.33875 0.238223 7.64165 0.467158 13.4283C0.821242 22.3757 9.32862 29.3387 13.4166 32.684C13.6999 32.9158 13.9644 33.1324 14.2067 33.3333C15.8729 34.7149 17.761 36.3458 19.5133 37.8767C19.3909 38.0325 19.2552 38.2257 19.151 38.4342C19.4342 38.7062 19.975 39.0629 20.7733 38.9809C20.9384 39.1253 21.1022 39.2697 21.262 39.4103C19.8141 39.774 18.9127 38.9646 18.633 38.6551C18.6143 38.6372 18.5218 38.5482 18.4165 38.4195C17.912 38.8093 17.6065 39.0694 17.5169 39.1465L16.8228 40.2426C16.7859 40.3023 15.8559 41.8191 14.4056 43.0933C12.7324 44.5623 11.6719 45.0993 11.3143 45.2546C10.3691 46.2562 7.22688 49.7931 3.74866 55.9625C4.08402 56.399 4.01906 56.7133 3.89615 56.9066C3.79724 57.0619 3.65327 57.165 3.47945 57.2036C3.37469 57.2269 3.26994 57.2242 3.17513 57.2068C3.15698 57.2362 3.13943 57.2649 3.12421 57.291C3.30622 57.4929 3.45546 57.7975 3.27169 58.1037C3.15815 58.2921 2.98199 58.4213 2.76194 58.4772C2.67415 58.4995 2.57875 58.5201 2.49389 58.5049L2.42775 58.6108C2.63143 58.7948 2.80818 59.0749 2.67239 59.3849C2.58987 59.5728 2.45174 59.6585 2.34992 59.6976C2.18839 59.759 2.01748 59.7443 1.87704 59.7112L1.81149 59.8518C2.03798 60.069 2.24341 60.4126 2.03798 60.7671C1.91508 60.9794 1.7436 61.0543 1.62128 61.0804C1.51359 61.1032 1.4106 61.095 1.32163 61.0749L1.25023 61.2068C1.47672 61.3941 1.6482 61.7009 1.48141 62.0728C1.3626 62.3296 1.07992 62.4023 0.793739 62.3784L0.447266 63.2107C0.473602 63.2975 0.546175 63.4528 0.72819 63.4593C0.795495 63.4615 0.911383 63.4332 1.00678 63.4023C1.23502 62.943 2.2803 61.1721 5.10362 60.5108C7.52841 60.1194 8.86096 61.4663 8.91655 61.5233C8.95635 61.5548 9.12198 61.6666 9.31921 61.5993C9.32272 61.595 9.32506 61.5906 9.32916 61.5863C9.14538 61.0792 8.99672 60.1536 9.39646 59.2242C9.79678 58.2931 10.6331 57.5716 11.8839 57.0765C11.6621 55.6492 11.4262 53.026 15.3468 51.8702C15.1859 51.0548 15.1765 49.5494 16.0883 48.3935C16.8164 47.4701 17.9618 46.9641 19.4928 46.8903C20.8717 46.9185 22.1563 47.4902 22.9201 48.0141C22.9658 48.0396 23.0436 48.0488 23.1103 48.0293C23.2186 47.9962 23.2835 47.8909 23.3192 47.8078C23.4579 47.4859 23.613 47.064 23.6762 46.8887C23.6411 46.8159 23.5598 46.6748 23.3906 46.4967C23.3895 46.4956 23.3895 46.494 23.3883 46.4929C22.473 45.6764 21.8959 43.9435 21.7303 42.5781C21.6121 41.6042 21.9205 40.7398 22.1763 40.2149C22.2307 40.2627 22.2904 40.3154 22.3443 40.3626C22.4332 40.4413 22.5146 40.5124 22.6012 40.5884C22.3928 41.0635 22.1786 41.7594 22.2711 42.5216C22.449 43.9841 23.0308 45.4206 23.7027 46.0738C23.8062 46.0624 23.8981 46.0293 23.966 45.9967C23.8934 45.5293 23.7606 44.196 24.2627 42.9012C24.0456 42.7025 23.6921 42.2584 23.5996 41.4664C23.8724 41.7058 24.1176 41.9197 24.3394 42.113C24.4085 42.2509 24.4816 42.3671 24.5478 42.4425C24.5747 42.4148 24.6045 42.3926 24.6332 42.3676C24.6508 42.3828 24.6724 42.4018 24.6894 42.4165C24.9914 42.1597 25.2729 42.0733 25.4994 42.0571C25.7259 42.0734 26.008 42.1597 26.31 42.4165C26.3269 42.4018 26.3486 42.3828 26.3662 42.3676C26.3948 42.3926 26.4247 42.4148 26.4516 42.4425C26.5177 42.3671 26.5909 42.2509 26.66 42.113C26.8818 41.9197 27.127 41.7058 27.3997 41.4664C27.3072 42.2585 26.9537 42.7026 26.7366 42.9012C27.2388 44.196 27.1059 45.5293 27.0334 45.9967C27.1012 46.0288 27.1925 46.0624 27.2967 46.0738C27.9686 45.4207 28.5509 43.9848 28.7288 42.5216C28.8213 41.76 28.6071 41.064 28.3988 40.5884C28.4854 40.5124 28.5661 40.4413 28.6557 40.3626C28.7095 40.3154 28.7692 40.2627 28.8237 40.2149C29.0794 40.7399 29.3884 41.6042 29.2702 42.5781C29.104 43.944 28.5269 45.6764 27.6122 46.4929C27.6111 46.494 27.6111 46.4956 27.6099 46.4967C27.4402 46.6748 27.3588 46.8154 27.3237 46.8887C27.3869 47.064 27.542 47.4859 27.6807 47.8078C27.7164 47.8903 27.782 47.9962 27.8896 48.0293C27.9564 48.0488 28.0342 48.0396 28.0798 48.0141C28.8436 47.4902 30.1283 46.9185 31.5071 46.8903C33.0382 46.9641 34.1835 47.4701 34.9116 48.3935C35.8234 49.5499 35.8141 51.0553 35.6531 51.8702C39.5738 53.026 39.338 55.6492 39.1155 57.0765C40.3662 57.5717 41.2031 58.2932 41.6033 59.2242C42.0036 60.1542 41.8544 61.0799 41.6712 61.5863C41.6747 61.5901 41.6771 61.595 41.6806 61.5993C41.8778 61.6666 42.0434 61.5554 42.0832 61.5233C42.1388 61.4663 43.4715 60.1193 45.8962 60.5108C48.7189 61.1721 49.7641 62.9424 49.9924 63.4023C50.0878 63.4332 50.2037 63.4615 50.271 63.4593C50.453 63.4533 50.5256 63.2975 50.5519 63.2107L50.2067 62.3784ZM25.5019 37.5997C25.6224 37.724 25.743 37.8489 25.8624 37.9814C25.7418 38.1068 25.6213 38.2365 25.5019 38.3717C25.3825 38.2365 25.2619 38.1062 25.1414 37.9814C25.2608 37.8484 25.3813 37.724 25.5019 37.5997Z" fill="#F4F4F4"/>
<path d="M12.461 22.1577C13.1774 22.9183 14.0559 22.9313 14.5534 22.8591C13.2424 21.3944 11.6897 19.4459 9.74663 16.6734C6.27486 11.7201 4.46706 4.89268 3.69336 1.23001C3.73784 5.06932 4.35002 8.51185 4.40503 8.81093C6.27082 13.9749 8.97293 18.4575 12.4612 22.1578L12.461 22.1577Z" fill="#F4F4F4"/>
<path d="M49.5427 63.7029C49.5404 63.6985 49.5363 63.6953 49.5345 63.6909C49.5006 63.6089 48.6648 61.6811 45.7842 61.0053C43.6866 60.6692 42.5366 61.8136 42.4717 61.8788C42.2979 62.0286 41.9251 62.2083 41.5271 62.0883C40.7516 62.9201 40.346 63.9728 40.3899 65.0792C40.4848 67.4701 42.6591 69.3442 45.2371 69.2568L46.4311 69.2171C46.4632 69.2188 47.1679 69.2617 48.2447 70C48.4899 68.6574 48.9652 66.3979 50.0356 64.4858C49.7084 64.0021 49.5551 63.7307 49.548 63.7182C49.5445 63.7128 49.5451 63.7073 49.5428 63.703L49.5427 63.7029ZM45.1339 68.8332C42.9141 68.9086 41.0419 67.2952 40.9605 65.2365C40.8792 63.1774 42.6185 61.4407 44.8385 61.3652C47.0584 61.2898 48.9301 62.9032 49.0119 64.9624C49.0932 67.021 47.3539 68.7578 45.1339 68.8333V68.8332Z" fill="#F4F4F4"/>
</svg>
